{
classes = (
{
automatic = 1;
code = "A Aacute Abreve Acircumflex Adieresis Agrave Amacron Aogonek Aring Aringacute Atilde AE AEacute B C Cacute Ccaron Ccedilla Ccircumflex Cdotaccent D Eth Dcaron Dcroat E Eacute Ebreve Ecaron Ecircumflex Edieresis Edotaccent Egrave Emacron Eogonek F G Gbreve Gcircumflex Gcommaaccent Gdotaccent H Hbar Hcircumflex I IJ Iacute Ibreve Icircumflex Idieresis Idotaccent Igrave Imacron Iogonek Itilde J Jcircumflex K Kcommaaccent L Lacute Lcaron Lcommaaccent Ldot Lslash M N Nacute Ncaron Ncommaaccent Eng Ntilde O Oacute Obreve Ocircumflex Odieresis Ograve Ohungarumlaut Omacron Oslash Oslashacute Otilde OE P Thorn Q R Racute Rcaron Rcommaaccent S Sacute Scaron Scedilla Scircumflex Scommaaccent T Tbar Tcaron Tcedilla Tcommaaccent U Uacute Ubreve Ucircumflex Udieresis Ugrave Uhungarumlaut Umacron Uogonek Uring Utilde V W Wacute Wcircumflex Wdieresis Wgrave X Y Yacute Ycircumflex Ydieresis Ygrave Z Zacute Zcaron Zdotaccent Delta Omega";
name = Uppercase;
}
);
copyright = "Copyright (c) 2012-2014, Omnibus-Type (www.omnibus-type.com omnibus.type@gmail.com) with Reserved Font Name 'Archivo'";
customParameters = (
{
name = openTypeNameDescription;
value = "Archivo Narrow was designed to be used simultaneously in print and digital platforms. The technical and aesthetic characteristics of the font are both crafted for high performance typography.";
},
{
name = openTypeNameLicense;
value = "This Font Software is licensed under the SIL Open Font License, Version 1.1. This license is available with a FAQ at: http://scripts.sil.org/OFL";
},
{
name = openTypeNameLicenseURL;
value = "http://scripts.sil.org/OFL";
}
);
date = "2013-12-04 03:08:51 +0000";
designer = "Hector Gatti, Marcela Romero, Pablo Cosgaya and Nicolas Silva";
familyName = "Archivo Narrow Devanagari";
featurePrefixes = (
{
automatic = 1;

glyphs = (
{
glyphname = A;
lastChange = "2014-07-03 12:03:26 -0700";
layers = (
{
anchors = (
{
name = ogonek;
position = "{492, 10}";
},
{
name = top;
position = "{274, 686}";
}
);
layerId = "D861F68D-CC3D-4754-9BA0-60D90FAB2DB2";
name = Regular;
paths = (
{
closed = 1;
nodes = (
"217 686 LINE",
"-1 0 LINE",
"87 0 LINE",
"134 153 LINE",
"406 153 LINE",
"453 0 LINE",
"548 0 LINE",
"330 686 LINE"
);
},
{
closed = 1;
nodes = (
"272 614 OFFCURVE",
"281 561 OFFCURVE",
"288 538 CURVE SMOOTH",
"381 233 LINE",
"158 233 LINE",
"252 538 LINE SMOOTH",
"259 560 OFFCURVE",
"268 614 OFFCURVE",
"268 614 CURVE",
"272 614 LINE"
);
}
);
width = 547;
},
{
anchors = (
{
name = ogonek;
position = "{533, 10}";
},
{
name = top;
position = "{296, 686}";
}
);
layerId = "72E9C866-9899-4CE7-8B77-ABF2E23FF1EF";
name = Bold;
paths = (
{
closed = 1;
nodes = (
"221 686 LINE",
"0 0 LINE",
"124 0 LINE",
"165 135 LINE",
"418 135 LINE",
"460 0 LINE",
"591 0 LINE",
"370 686 LINE"
);
},
{
closed = 1;
nodes = (
"294 571 OFFCURVE",
"303 514 OFFCURVE",
"314 478 CURVE SMOOTH",
"383 249 LINE",
"200 249 LINE",
"270 478 LINE SMOOTH",
"280 510 OFFCURVE",
"290 571 OFFCURVE",
"290 571 CURVE",
"294 571 LINE"
);
}
);
width = 592;
}
);
unicode = 0041;
},
{
glyphname = Aacute;
lastChange = "2014-07-03 12:03:26 -0700";
layers = (
{
layerId = "D861F68D-CC3D-4754-9BA0-60D90FAB2DB2";
name = Regular;
paths = (
{
closed = 1;
nodes = (
"217 686 LINE",
"-1 0 LINE",
"87 0 LINE",
"134 153 LINE",
"406 153 LINE",
"453 0 LINE",
"548 0 LINE",
"330 686 LINE"
);
},
{
closed = 1;
nodes = (
"272 614 OFFCURVE",
"281 561 OFFCURVE",
"288 538 CURVE SMOOTH",
"381 233 LINE",
"158 233 LINE",
"252 538 LINE SMOOTH",
"259 560 OFFCURVE",
"268 614 OFFCURVE",
"268 614 CURVE",
"272 614 LINE"
);
},
{
closed = 1;
nodes = (
"300 883 LINE",
"214 751 LINE",
"283 751 LINE",
"391 880 LINE",
"390 883 LINE"
);
}
);
width = 547;
},
{
layerId = "72E9C866-9899-4CE7-8B77-ABF2E23FF1EF";
name = Bold;
paths = (
{
closed = 1;
nodes = (
"221 686 LINE",
"0 0 LINE",
"124 0 LINE",
"165 135 LINE",
"418 135 LINE",
"460 0 LINE",
"591 0 LINE",
"370 686 LINE"
);
},
{
closed = 1;
nodes = (
"294 571 OFFCURVE",
"303 514 OFFCURVE",
"314 478 CURVE SMOOTH",
"383 249 LINE",
"200 249 LINE",
"270 478 LINE SMOOTH",
"280 510 OFFCURVE",
"290 571 OFFCURVE",
"290 571 CURVE",
"294 571 LINE"
);
},
{
closed = 1;
nodes = (
"313 883 LINE",
"227 751 LINE",
"326 751 LINE",
"434 880 LINE",
"433 883 LINE"
);
}
);
width = 592;
}
);
unicode = 00C1;
},
{
glyphname = Abreve;
lastChange = "2014-07-03 12:03:26 -0700";
layers = (
{
layerId = "D861F68D-CC3D-4754-9BA0-60D90FAB2DB2";
name = Regular;
paths = (
{
closed = 1;
nodes = (
"217 686 LINE",
"-1 0 LINE",
"87 0 LINE",
"134 153 LINE",
"406 153 LINE",
"453 0 LINE",
"548 0 LINE",
"330 686 LINE"
);
},
{
closed = 1;
nodes = (
"272 614 OFFCURVE",
"281 561 OFFCURVE",
"288 538 CURVE SMOOTH",
"381 233 LINE",
"158 233 LINE",
"252 538 LINE SMOOTH",
"259 560 OFFCURVE",
"268 614 OFFCURVE",
"268 614 CURVE",
"272 614 LINE"
);
},
{
closed = 1;
nodes = (
"333 883 LINE",
"332 869 OFFCURVE",
"307 850 OFFCURVE",
"273 850 CURVE SMOOTH",
"240 850 OFFCURVE",
"217 869 OFFCURVE",
"214 883 CURVE",
"150 883 LINE",
"150 838 OFFCURVE",
"197 786 OFFCURVE",
"273 786 CURVE SMOOTH",
"350 786 OFFCURVE",
"397 838 OFFCURVE",
"397 883 CURVE"
);
}
);
width = 547;
},
{
layerId = "72E9C866-9899-4CE7-8B77-ABF2E23FF1EF";
name = Bold;
paths = (
{
closed = 1;
nodes = (
"221 686 LINE",
"0 0 LINE",
"124 0 LINE",
"165 135 LINE",
"418 135 LINE",
"460 0 LINE",
"591 0 LINE",
"370 686 LINE"
);
},
{
closed = 1;
nodes = (
"294 571 OFFCURVE",
"303 514 OFFCURVE",
"314 478 CURVE SMOOTH",
"383 249 LINE",
"200 249 LINE",
"270 478 LINE SMOOTH",
"280 510 OFFCURVE",
"290 571 OFFCURVE",
"290 571 CURVE",
"294 571 LINE"
);
},
{
closed = 1;
nodes = (
"355 883 LINE",
"354 869 OFFCURVE",
"330 850 OFFCURVE",
"295 850 CURVE SMOOTH",
"263 850 OFFCURVE",
"240 869 OFFCURVE",
"237 883 CURVE",
"163 883 LINE",
"163 833 OFFCURVE",
"213 776 OFFCURVE",
"295 776 CURVE SMOOTH",
"378 776 OFFCURVE",
"430 833 OFFCURVE",
"430 883 CURVE"
);
}
);
width = 592;
}
);
unicode = 0102;
},
{
glyphname = Acircumflex;
lastChange = "2014-07-03 12:03:26 -0700";
layers = (
{
layerId = "D861F68D-CC3D-4754-9BA0-60D90FAB2DB2";
name = Regular;
paths = (
{
closed = 1;
nodes = (
"217 686 LINE",
"-1 0 LINE",
"87 0 LINE",
"134 153 LINE",
"406 153 LINE",
"453 0 LINE",
"548 0 LINE",
"330 686 LINE"
);
},
{
closed = 1;
nodes = (
"272 614 OFFCURVE",
"281 561 OFFCURVE",
"288 538 CURVE SMOOTH",
"381 233 LINE",
"158 233 LINE",
"252 538 LINE SMOOTH",
"259 560 OFFCURVE",
"268 614 OFFCURVE",
"268 614 CURVE",
"272 614 LINE"
);
},
{
closed = 1;
nodes = (
"235 882 LINE",
"149 747 LINE",
"229 747 LINE",
"274 826 LINE",
"318 747 LINE",
"398 747 LINE",
"313 882 LINE"
);
}
);
width = 547;
},
{
layerId = "72E9C866-9899-4CE7-8B77-ABF2E23FF1EF";
name = Bold;
paths = (
{
closed = 1;
nodes = (
"221 686 LINE",
"0 0 LINE",
"124 0 LINE",
"165 135 LINE",
"418 135 LINE",
"460 0 LINE",
"591 0 LINE",
"370 686 LINE"
);
},
{
closed = 1;
nodes = (
"294 571 OFFCURVE",
"303 514 OFFCURVE",
"314 478 CURVE SMOOTH",
"383 249 LINE",
"200 249 LINE",
"270 478 LINE SMOOTH",
"280 510 OFFCURVE",
"290 571 OFFCURVE",
"290 571 CURVE",
"294 571 LINE"
);
},
{
closed = 1;
nodes = (
"248 883 LINE",
"162 748 LINE",
"251 748 LINE",
"296 817 LINE",
"341 748 LINE",
"431 748 LINE",
"346 883 LINE"
);
}
);
width = 592;
}
);
unicode = 00C2;
},
{
glyphname = Adieresis;
lastChange = "2014-07-03 12:03:26 -0700";
layers = (
{
layerId = "D861F68D-CC3D-4754-9BA0-60D90FAB2DB2";
name = Regular;
paths = (
{
closed = 1;
nodes = (
"217 686 LINE",
"-1 0 LINE",
"87 0 LINE",
"134 153 LINE",
"406 153 LINE",
"453 0 LINE",
"548 0 LINE",
"330 686 LINE"
);
},
{
closed = 1;
nodes = (
"272 614 OFFCURVE",
"281 561 OFFCURVE",
"288 538 CURVE SMOOTH",
"381 233 LINE",
"158 233 LINE",
"252 538 LINE SMOOTH",
"259 560 OFFCURVE",
"268 614 OFFCURVE",
"268 614 CURVE",
"272 614 LINE"
);
},
{
closed = 1;
nodes = (
"155 883 LINE",
"155 788 LINE",
"242 788 LINE",
"242 883 LINE"
);
},
{
closed = 1;
nodes = (
"305 883 LINE",
"305 788 LINE",
"392 788 LINE",
"392 883 LINE"
);
}
);
width = 547;
},
{
layerId = "72E9C866-9899-4CE7-8B77-ABF2E23FF1EF";
name = Bold;
paths = (
{
closed = 1;
nodes = (
"221 686 LINE",
"0 0 LINE",
"124 0 LINE",
"165 135 LINE",
"418 135 LINE",
"460 0 LINE",
"591 0 LINE",
"370 686 LINE"
);
},
{
closed = 1;
nodes = (
"294 571 OFFCURVE",
"303 514 OFFCURVE",
"314 478 CURVE SMOOTH",
"383 249 LINE",
"200 249 LINE",
"270 478 LINE SMOOTH",
"280 510 OFFCURVE",
"290 571 OFFCURVE",
"290 571 CURVE",
"294 571 LINE"
);
},
{
closed = 1;
nodes = (
"159 883 LINE",
"159 774 LINE",
"259 774 LINE",
"259 883 LINE"
);
},
{
closed = 1;
nodes = (
"333 883 LINE",
"333 774 LINE",
"434 774 LINE",
"434 883 LINE"
);
}
);
width = 592;
}
);
unicode = 00C4;
},
{
glyphname = Agrave;
lastChange = "2014-07-03 12:03:26 -0700";
layers = (
{
layerId = "D861F68D-CC3D-4754-9BA0-60D90FAB2DB2";
name = Regular;
paths = (
{
closed = 1;
nodes = (
"217 686 LINE",
"-1 0 LINE",
"87 0 LINE",
"134 153 LINE",
"406 153 LINE",
"453 0 LINE",
"548 0 LINE",
"330 686 LINE"
);
},
{
closed = 1;
nodes = (
"272 614 OFFCURVE",
"281 561 OFFCURVE",
"288 538 CURVE SMOOTH",
"381 233 LINE",
"158 233 LINE",
"252 538 LINE SMOOTH",
"259 560 OFFCURVE",
"268 614 OFFCURVE",
"268 614 CURVE",
"272 614 LINE"
);
},
{
closed = 1;
nodes = (
"157 883 LINE",
"156 880 LINE",
"264 751 LINE",
"333 751 LINE",
"247 883 LINE"
);
}
);
width = 547;
},
{
layerId = "72E9C866-9899-4CE7-8B77-ABF2E23FF1EF";
name = Bold;
paths = (
{
closed = 1;
nodes = (
"221 686 LINE",
"0 0 LINE",
"124 0 LINE",
"165 135 LINE",
"418 135 LINE",
"460 0 LINE",
"591 0 LINE",
"370 686 LINE"
);
},
{
closed = 1;
nodes = (
"294 571 OFFCURVE",
"303 514 OFFCURVE",
"314 478 CURVE SMOOTH",
"383 249 LINE",
"200 249 LINE",
"270 478 LINE SMOOTH",
"280 510 OFFCURVE",
"290 571 OFFCURVE",
"290 571 CURVE",
"294 571 LINE"
);
},
{
closed = 1;
nodes = (
"159 883 LINE",
"158 880 LINE",
"266 751 LINE",
"365 751 LINE",
"279 883 LINE"
);
}
);
width = 592;
}
);
unicode = 00C0;
},
{
glyphname = Amacron;
lastChange = "2014-07-03 12:03:26 -0700";
layers = (
{
layerId = "D861F68D-CC3D-4754-9BA0-60D90FAB2DB2";
name = Regular;
paths = (
{
closed = 1;
nodes = (
"217 686 LINE",
"-1 0 LINE",
"87 0 LINE",
"134 153 LINE",
"406 153 LINE",
"453 0 LINE",
"548 0 LINE",
"330 686 LINE"
);
},
{
closed = 1;
nodes = (
"272 614 OFFCURVE",
"281 561 OFFCURVE",
"288 538 CURVE SMOOTH",
"381 233 LINE",
"158 233 LINE",
"252 538 LINE SMOOTH",
"259 560 OFFCURVE",
"268 614 OFFCURVE",
"268 614 CURVE",
"272 614 LINE"
);
},
{
closed = 1;
nodes = (
"148 831 LINE",
"148 759 LINE",
"399 759 LINE",
"399 831 LINE"
);
}
);
width = 547;
},
{
layerId = "72E9C866-9899-4CE7-8B77-ABF2E23FF1EF";
name = Bold;
paths = (
{
closed = 1;
nodes = (
"221 686 LINE",
"0 0 LINE",
"124 0 LINE",
"165 135 LINE",
"418 135 LINE",
"460 0 LINE",
"591 0 LINE",
"370 686 LINE"
);
},
{
closed = 1;
nodes = (
"294 571 OFFCURVE",
"303 514 OFFCURVE",
"314 478 CURVE SMOOTH",
"383 249 LINE",
"200 249 LINE",
"270 478 LINE SMOOTH",
"280 510 OFFCURVE",
"290 571 OFFCURVE",
"290 571 CURVE",
"294 571 LINE"
);
},
{
closed = 1;
nodes = (
"168 846 LINE",
"168 759 LINE",
"424 759 LINE",
"424 846 LINE"
);
}
);
width = 592;
}
);
unicode = 0100;
},
{
glyphname = Aogonek;
lastChange = "2014-07-03 12:03:26 -0700";
layers = (
{
layerId = "D861F68D-CC3D-4754-9BA0-60D90FAB2DB2";
name = Regular;
paths = (
{
closed = 1;
nodes = (
"548 0 LINE",
"330 686 LINE",
"217 686 LINE",
"-1 0 LINE",
"87 0 LINE",
"134 153 LINE",
"406 153 LINE",
"453 0 LINE"
);
},
{
closed = 1;
nodes = (
"272 614 OFFCURVE",
"281 561 OFFCURVE",
"288 538 CURVE SMOOTH",
"381 233 LINE",
"158 233 LINE",
"252 538 LINE SMOOTH",
"259 560 OFFCURVE",
"268 614 OFFCURVE",
"268 614 CURVE",
"272 614 LINE"
);
},
{
closed = 1;
nodes = (
"485 0 LINE",
"466 -24 OFFCURVE",
"446 -46 OFFCURVE",
"446 -92 CURVE SMOOTH",
"446 -161 OFFCURVE",
"497 -182 OFFCURVE",
"540 -182 CURVE SMOOTH",
"560 -182 OFFCURVE",
"580 -177 OFFCURVE",
"601 -168 CURVE",
"601 -117 LINE",
"570 -117 LINE SMOOTH",
"536 -117 OFFCURVE",
"524 -90 OFFCURVE",
"524 -62 CURVE SMOOTH",
"524 -34 OFFCURVE",
"537 -15 OFFCURVE",
"548 0 CURVE"
);
}
);
width = 547;
},
{
layerId = "72E9C866-9899-4CE7-8B77-ABF2E23FF1EF";
name = Bold;
paths = (
{
closed = 1;
nodes = (
"591 0 LINE",
"370 686 LINE",
"221 686 LINE",
"0 0 LINE",
"124 0 LINE",
"165 135 LINE",
"418 135 LINE",
"460 0 LINE"
);
},
{
closed = 1;
nodes = (
"294 571 OFFCURVE",
"303 514 OFFCURVE",
"314 478 CURVE SMOOTH",
"383 249 LINE",
"200 249 LINE",
"270 478 LINE SMOOTH",
"280 510 OFFCURVE",
"290 571 OFFCURVE",
"290 571 CURVE",
"294 571 LINE"
);
},
{
closed = 1;
nodes = (
"508 0 LINE",
"486 -27 OFFCURVE",
"463 -50 OFFCURVE",
"463 -100 CURVE SMOOTH",
"463 -169 OFFCURVE",
"516 -190 OFFCURVE",
"562 -190 CURVE SMOOTH",
"584 -190 OFFCURVE",
"605 -185 OFFCURVE",
"628 -176 CURVE",
"628 -121 LINE",
"606 -121 LINE SMOOTH",
"573 -121 OFFCURVE",
"561 -96 OFFCURVE",
"561 -70 CURVE SMOOTH",
"561 -38 OFFCURVE",
"579 -11 OFFCURVE",
"591 0 CURVE"
);
}
);
width = 592;
}
);
unicode = 0104;
},
{
glyphname = Aring;
lastChange = "2014-07-03 12:03:26 -0700";
layers = (
{
layerId = "D861F68D-CC3D-4754-9BA0-60D90FAB2DB2";
name = Regular;
paths = (
{
closed = 1;
nodes = (
"217 686 LINE",
"-1 0 LINE",
"87 0 LINE",
"134 153 LINE",
"406 153 LINE",
"453 0 LINE",
"548 0 LINE",
"330 686 LINE"
);
},
{
closed = 1;
nodes = (
"272 614 OFFCURVE",
"281 561 OFFCURVE",
"288 538 CURVE SMOOTH",
"381 233 LINE",
"158 233 LINE",
"252 538 LINE SMOOTH",
"259 560 OFFCURVE",
"268 614 OFFCURVE",
"268 614 CURVE",
"272 614 LINE"
);
},
{
closed = 1;
nodes = (
"220 915 OFFCURVE",
"177 872 OFFCURVE",
"177 819 CURVE SMOOTH",
"177 765 OFFCURVE",
"221 723 OFFCURVE",
"273 723 CURVE SMOOTH",
"327 723 OFFCURVE",
"369 766 OFFCURVE",
"369 819 CURVE SMOOTH",
"369 871 OFFCURVE",
"328 915 OFFCURVE",
"273 915 CURVE SMOOTH"
);
},
{
closed = 1;
nodes = (
"300 870 OFFCURVE",
"324 847 OFFCURVE",
"324 819 CURVE SMOOTH",
"324 791 OFFCURVE",
"300 768 OFFCURVE",
"273 768 CURVE SMOOTH",
"246 768 OFFCURVE",
"222 791 OFFCURVE",
"222 819 CURVE SMOOTH",
"222 847 OFFCURVE",
"246 870 OFFCURVE",
"273 870 CURVE SMOOTH"
);
}
);
width = 547;
},
{
layerId = "72E9C866-9899-4CE7-8B77-ABF2E23FF1EF";
name = Bold;
paths = (
{
closed = 1;
nodes = (
"221 686 LINE",
"0 0 LINE",
"124 0 LINE",
"165 135 LINE",
"418 135 LINE",
"460 0 LINE",
"591 0 LINE",
"370 686 LINE"
);
},
{
closed = 1;
nodes = (
"294 571 OFFCURVE",
"303 514 OFFCURVE",
"314 478 CURVE SMOOTH",
"383 249 LINE",
"200 249 LINE",
"270 478 LINE SMOOTH",
"280 510 OFFCURVE",
"290 571 OFFCURVE",
"290 571 CURVE",
"294 571 LINE"
);
},
{
closed = 1;
nodes = (
"243 913 OFFCURVE",
"200 870 OFFCURVE",
"200 817 CURVE SMOOTH",
"200 763 OFFCURVE",
"244 721 OFFCURVE",
"296 721 CURVE SMOOTH",
"349 721 OFFCURVE",
"392 764 OFFCURVE",
"392 817 CURVE SMOOTH",
"392 869 OFFCURVE",
"350 913 OFFCURVE",
"296 913 CURVE SMOOTH"
);
},
{
closed = 1;
nodes = (
"321 863 OFFCURVE",
"342 843 OFFCURVE",
"342 817 CURVE SMOOTH",
"342 791 OFFCURVE",
"321 771 OFFCURVE",
"296 771 CURVE SMOOTH",
"270 771 OFFCURVE",
"250 791 OFFCURVE",
"250 817 CURVE SMOOTH",
"250 843 OFFCURVE",
"270 863 OFFCURVE",
"296 863 CURVE SMOOTH"
);
}
);
width = 592;
}
);
unicode = 00C5;
},
{
glyphname = Aringacute;
lastChange = "2014-07-03 12:03:26 -0700";
layers = (
{
layerId = "D861F68D-CC3D-4754-9BA0-60D90FAB2DB2";
name = Regular;
paths = (
{
closed = 1;
nodes = (
"221 821 OFFCURVE",
"178 780 OFFCURVE",
"178 729 CURVE SMOOTH",
"178 701 OFFCURVE",
"190 677 OFFCURVE",
"209 661 CURVE",
"-1 0 LINE",
"87 0 LINE",
"134 153 LINE",
"406 153 LINE",
"453 0 LINE",
"548 0 LINE",
"338 660 LINE",
"357 677 OFFCURVE",
"370 701 OFFCURVE",
"370 729 CURVE SMOOTH",
"370 779 OFFCURVE",
"328 821 OFFCURVE",
"274 821 CURVE SMOOTH"
);
},
{
closed = 1;
nodes = (
"272 614 LINE",
"272 614 OFFCURVE",
"281 561 OFFCURVE",
"288 538 CURVE SMOOTH",
"381 233 LINE",
"158 233 LINE",
"252 538 LINE SMOOTH",
"259 560 OFFCURVE",
"268 614 OFFCURVE",
"268 614 CURVE"
);
},
{
closed = 1;
nodes = (
"404 957 LINE",
"314 957 LINE",
"243 848 LINE",
"312 848 LINE",
"405 953 LINE"
);
},
{
closed = 1;
nodes = (
"301 778 OFFCURVE",
"325 756 OFFCURVE",
"325 729 CURVE SMOOTH",
"325 702 OFFCURVE",
"301 680 OFFCURVE",
"274 680 CURVE SMOOTH",
"246 680 OFFCURVE",
"223 702 OFFCURVE",
"223 729 CURVE SMOOTH",
"223 756 OFFCURVE",
"246 778 OFFCURVE",
"274 778 CURVE SMOOTH"
);
}
);
width = 547;
},
{
layerId = "72E9C866-9899-4CE7-8B77-ABF2E23FF1EF";
name = Bold;
paths = (
{
closed = 1;
nodes = (
"243 821 OFFCURVE",
"200 779 OFFCURVE",
"200 728 CURVE SMOOTH",
"200 708 OFFCURVE",
"206 689 OFFCURVE",
"217 674 CURVE",
"0 0 LINE",
"124 0 LINE",
"165 135 LINE",
"418 135 LINE",
"460 0 LINE",
"591 0 LINE",
"374 673 LINE",
"385 689 OFFCURVE",
"392 708 OFFCURVE",
"392 728 CURVE SMOOTH",
"392 778 OFFCURVE",
"350 821 OFFCURVE",
"296 821 CURVE SMOOTH"
);
},
{
closed = 1;
nodes = (
"294 571 LINE",
"294 571 OFFCURVE",
"303 514 OFFCURVE",
"314 478 CURVE SMOOTH",
"383 249 LINE",
"200 249 LINE",
"270 478 LINE SMOOTH",
"280 510 OFFCURVE",
"290 571 OFFCURVE",
"290 571 CURVE"
);
},
{
closed = 1;
nodes = (
"443 957 LINE",
"323 957 LINE",
"253 848 LINE",
"352 848 LINE",
"444 954 LINE"
);
},
{
closed = 1;
nodes = (
"321 772 OFFCURVE",
"342 753 OFFCURVE",
"342 728 CURVE SMOOTH",
"342 702 OFFCURVE",
"321 683 OFFCURVE",
"296 683 CURVE SMOOTH",
"270 683 OFFCURVE",
"250 702 OFFCURVE",
"250 728 CURVE SMOOTH",
"250 753 OFFCURVE",
"270 772 OFFCURVE",
"296 772 CURVE SMOOTH"
);
}
);
width = 592;
}
);
unicode = 01FA;
},
{
glyphname = Atilde;
lastChange = "2014-07-03 12:03:26 -0700";
layers = (
{
layerId = "D861F68D-CC3D-4754-9BA0-60D90FAB2DB2";
name = Regular;
paths = (
{
closed = 1;
nodes = (
"217 686 LINE",
"-1 0 LINE",
"87 0 LINE",
"134 153 LINE",
"406 153 LINE",
"453 0 LINE",
"548 0 LINE",
"330 686 LINE"
);
},
{
closed = 1;
nodes = (
"272 614 OFFCURVE",
"281 561 OFFCURVE",
"288 538 CURVE SMOOTH",
"381 233 LINE",
"158 233 LINE",
"252 538 LINE SMOOTH",
"259 560 OFFCURVE",
"268 614 OFFCURVE",
"268 614 CURVE",
"272 614 LINE"
);
},
{
closed = 1;
nodes = (
"361 883 LINE",
"358 860 OFFCURVE",
"345 853 OFFCURVE",
"327 853 CURVE SMOOTH",
"288 853 OFFCURVE",
"255 883 OFFCURVE",
"212 883 CURVE SMOOTH",
"152 883 OFFCURVE",
"127 825 OFFCURVE",
"127 779 CURVE",
"186 779 LINE",
"188 802 OFFCURVE",
"201 810 OFFCURVE",
"219 810 CURVE SMOOTH",
"258 810 OFFCURVE",
"291 779 OFFCURVE",
"334 779 CURVE SMOOTH",
"395 779 OFFCURVE",
"419 837 OFFCURVE",
"419 883 CURVE"
);
}
);
width = 547;
},
{
layerId = "72E9C866-9899-4CE7-8B77-ABF2E23FF1EF";
name = Bold;
paths = (
{
closed = 1;
nodes = (
"221 686 LINE",
"0 0 LINE",
"124 0 LINE",
"165 135 LINE",
"418 135 LINE",
"460 0 LINE",
"591 0 LINE",
"370 686 LINE"
);
},
{
closed = 1;
nodes = (
"294 571 OFFCURVE",
"303 514 OFFCURVE",
"314 478 CURVE SMOOTH",
"383 249 LINE",
"200 249 LINE",
"270 478 LINE SMOOTH",
"280 510 OFFCURVE",
"290 571 OFFCURVE",
"290 571 CURVE",
"294 571 LINE"
);
},
{
closed = 1;
nodes = (
"398 883 LINE",
"394 855 OFFCURVE",
"380 846 OFFCURVE",
"359 846 CURVE SMOOTH",
"314 846 OFFCURVE",
"275 883 OFFCURVE",
"226 883 CURVE SMOOTH",
"156 883 OFFCURVE",
"128 816 OFFCURVE",
"128 761 CURVE",
"194 761 LINE",
"198 788 OFFCURVE",
"212 798 OFFCURVE",
"233 798 CURVE SMOOTH",
"278 798 OFFCURVE",
"317 761 OFFCURVE",
"365 761 CURVE SMOOTH",
"436 761 OFFCURVE",
"464 828 OFFCURVE",
"464 883 CURVE"
);
}
);
width = 592;
}
);
unicode = 00C3;
},
{
glyphname = AE;
lastChange = "2014-07-03 12:03:26 -0700";
layers = (
{
anchors = (
{
name = top;
position = "{410, 686}";
}
);
layerId = "D861F68D-CC3D-4754-9BA0-60D90FAB2DB2";
name = Regular;
paths = (
{
closed = 1;
nodes = (
"279 686 LINE",
"-1 0 LINE",
"87 0 LINE",
"146 153 LINE",
"419 153 LINE",
"453 0 LINE",
"783 0 LINE",
"783 80 LINE",
"529 80 LINE",
"477 311 LINE",
"733 311 LINE",
"733 391 LINE",
"459 391 LINE",
"410 606 LINE",
"777 606 LINE",
"777 686 LINE"
);
},
{
closed = 1;
nodes = (
"327 584 OFFCURVE",
"329 564 OFFCURVE",
"334 543 CURVE SMOOTH",
"402 233 LINE",
"177 233 LINE",
"298 543 LINE SMOOTH",
"306 564 OFFCURVE",
"312 584 OFFCURVE",
"319 605 CURVE",
"323 605 LINE"
);
}
);
width = 820;
},
{
anchors = (
{
name = top;
position = "{410, 686}";
}
);
layerId = "72E9C866-9899-4CE7-8B77-ABF2E23FF1EF";
name = Bold;
paths = (
{
closed = 1;
nodes = (
"255 686 LINE",
"-8 0 LINE",
"111 0 LINE",
"161 135 LINE",
"414 135 LINE",
"447 0 LINE",
"777 0 LINE",
"777 114 LINE",
"550 114 LINE",
"506 294 LINE",
"727 294 LINE",
"727 408 LINE",
"478 408 LINE",
"438 572 LINE",
"771 572 LINE",
"771 686 LINE"
);
},
{
closed = 1;
nodes = (
"320 534 OFFCURVE",
"323 521 OFFCURVE",
"326 509 CURVE",
"387 249 LINE",
"203 249 LINE",
"299 509 LINE",
"304 521 OFFCURVE",
"308 534 OFFCURVE",
"313 546 CURVE",
"317 546 LINE"
);
}
);
width = 820;
}
);
unicode = 00C6;
},
{
glyphname = AEacute;
lastChange = "2014-07-03 12:03:26 -0700";
layers = (
{
layerId = "D861F68D-CC3D-4754-9BA0-60D90FAB2DB2";
name = Regular;
paths = (
{
closed = 1;
nodes = (
"279 686 LINE",
"-1 0 LINE",
"87 0 LINE",
"146 153 LINE",
"419 153 LINE",
"453 0 LINE",
"783 0 LINE",
"783 80 LINE",
"529 80 LINE",
"477 311 LINE",
"733 311 LINE",
"733 391 LINE",
"459 391 LINE",
"410 606 LINE",
"777 606 LINE",
"777 686 LINE"
);
},
{
closed = 1;
nodes = (
"327 584 OFFCURVE",
"329 564 OFFCURVE",
"334 543 CURVE SMOOTH",
"402 233 LINE",
"177 233 LINE",
"298 543 LINE SMOOTH",
"306 564 OFFCURVE",
"312 584 OFFCURVE",
"319 605 CURVE",
"323 605 LINE"
);
},
{
closed = 1;
nodes = (
"534 883 LINE",
"448 751 LINE",
"517 751 LINE",
"625 880 LINE",
"624 883 LINE"
);
}
);
width = 820;
},
{
layerId = "72E9C866-9899-4CE7-8B77-ABF2E23FF1EF";
name = Bold;
paths = (
{
closed = 1;
nodes = (
"255 686 LINE",
"-8 0 LINE",
"111 0 LINE",
"161 135 LINE",
"414 135 LINE",
"447 0 LINE",
"777 0 LINE",
"777 114 LINE",
"550 114 LINE",
"506 294 LINE",
"727 294 LINE",
"727 408 LINE",
"478 408 LINE",
"438 572 LINE",
"771 572 LINE",
"771 686 LINE"
);
},
{
closed = 1;
nodes = (
"321 531 OFFCURVE",
"324 515 OFFCURVE",
"328 500 CURVE",
"387 249 LINE",
"203 249 LINE",
"295 497 LINE",
"301 513 OFFCURVE",
"307 530 OFFCURVE",
"313 546 CURVE",
"317 546 LINE"
);
},
{
closed = 1;
nodes = (
"427 883 LINE",
"341 751 LINE",
"440 751 LINE",
"548 880 LINE",
"547 883 LINE"
);
}
);
width = 820;
}
);
unicode = 01FC;
},
{
glyphname = B;
lastChange = "2014-07-03 12:03:26 -0700";
layers = (
{
layerId = "D861F68D-CC3D-4754-9BA0-60D90FAB2DB2";
name = Regular;
paths = (
{
closed = 1;
nodes = (
"65 0 LINE",
"325 0 LINE SMOOTH",
"430 0 OFFCURVE",
"518 67 OFFCURVE",
"518 182 CURVE SMOOTH",
"518 270 OFFCURVE",
"465 335 OFFCURVE",
"397 356 CURVE",
"397 360 LINE",
"456 381 OFFCURVE",
"502 439 OFFCURVE",
"502 518 CURVE SMOOTH",
"502 619 OFFCURVE",
"427 686 OFFCURVE",
"325 686 CURVE SMOOTH",
"65 686 LINE"
);
},
{
closed = 1;
nodes = (
"307 311 LINE SMOOTH",
"380 311 OFFCURVE",
"426 256 OFFCURVE",
"426 194 CURVE SMOOTH",
"426 120 OFFCURVE",
"378 80 OFFCURVE",
"313 80 CURVE SMOOTH",
"153 80 LINE",
"153 311 LINE"
);
},
{
closed = 1;
nodes = (
"305 606 LINE SMOOTH",
"368 606 OFFCURVE",
"410 571 OFFCURVE",
"410 499 CURVE SMOOTH",
"410 441 OFFCURVE",
"366 391 OFFCURVE",
"299 391 CURVE SMOOTH",
"153 391 LINE",
"153 606 LINE"
);
}
);
width = 547;
},
{
layerId = "72E9C866-9899-4CE7-8B77-ABF2E23FF1EF";
name = Bold;
paths = (
{
closed = 1;
nodes = (
"60 0 LINE",
"355 0 LINE SMOOTH",
"465 0 OFFCURVE",
"558 69 OFFCURVE",
"558 184 CURVE SMOOTH",
"558 272 OFFCURVE",
"505 335 OFFCURVE",
"437 356 CURVE",
"437 360 LINE",
"496 381 OFFCURVE",
"542 437 OFFCURVE",
"542 516 CURVE SMOOTH",
"542 617 OFFCURVE",
"463 686 OFFCURVE",
"355 686 CURVE SMOOTH",
"60 686 LINE"
);
},
{
closed = 1;
nodes = (
"328 295 LINE SMOOTH",
"395 295 OFFCURVE",
"427 253 OFFCURVE",
"427 200 CURVE SMOOTH",
"427 144 OFFCURVE",
"387 114 OFFCURVE",
"334 114 CURVE SMOOTH",
"188 114 LINE",
"188 295 LINE"
);
},
{
closed = 1;
nodes = (
"326 572 LINE SMOOTH",
"377 572 OFFCURVE",
"411 545 OFFCURVE",
"411 493 CURVE SMOOTH",
"411 447 OFFCURVE",
"381 408 OFFCURVE",
"320 408 CURVE SMOOTH",
"188 408 LINE",
"188 572 LINE"
);
}
);
width = 592;
}
);
unicode = 0042;
},
{
glyphname = C;
lastChange = "2014-07-03 12:03:26 -0700";
layers = (
{
anchors = (
{
name = bottom;
position = "{296, 0}";
},
{
name = top;
position = "{296, 686}";
}
);
layerId = "D861F68D-CC3D-4754-9BA0-60D90FAB2DB2";
name = Regular;
paths = (
{
closed = 1;
nodes = (
"134 698 OFFCURVE",
"42 581 OFFCURVE",
"42 343 CURVE SMOOTH",
"42 105 OFFCURVE",
"134 -12 OFFCURVE",
"312 -12 CURVE SMOOTH",
"452 -12 OFFCURVE",
"551 69 OFFCURVE",
"551 246 CURVE",
"464 246 LINE",
"464 127 OFFCURVE",
"404 69 OFFCURVE",
"312 69 CURVE SMOOTH",
"192 69 OFFCURVE",
"134 151 OFFCURVE",
"134 318 CURVE SMOOTH",
"134 368 LINE SMOOTH",
"134 535 OFFCURVE",
"192 617 OFFCURVE",
"312 617 CURVE SMOOTH",
"402 617 OFFCURVE",
"461 558 OFFCURVE",
"461 438 CURVE",
"551 438 LINE",
"551 613 OFFCURVE",
"452 698 OFFCURVE",
"312 698 CURVE SMOOTH"
);
}
);
width = 592;
},
{
anchors = (
{
name = bottom;
position = "{296, 0}";
},
{
name = top;
position = "{296, 686}";
}
);
layerId = "72E9C866-9899-4CE7-8B77-ABF2E23FF1EF";
name = Bold;
paths = (
{
closed = 1;
nodes = (
"135 698 OFFCURVE",
"34 585 OFFCURVE",
"34 343 CURVE SMOOTH",
"34 101 OFFCURVE",
"135 -12 OFFCURVE",
"307 -12 CURVE SMOOTH",
"452 -12 OFFCURVE",
"559 74 OFFCURVE",
"559 254 CURVE",
"434 254 LINE",
"434 148 OFFCURVE",
"385 98 OFFCURVE",
"311 98 CURVE SMOOTH",
"213 98 OFFCURVE",
"166 181 OFFCURVE",
"166 318 CURVE SMOOTH",
"166 368 LINE SMOOTH",
"166 505 OFFCURVE",
"212 588 OFFCURVE",
"307 588 CURVE SMOOTH",
"379 588 OFFCURVE",
"428 537 OFFCURVE",
"428 431 CURVE",
"559 431 LINE",
"559 617 OFFCURVE",
"450 698 OFFCURVE",
"307 698 CURVE SMOOTH"
);
}
);
width = 592;
}
);
unicode = 0043;
},
{
glyphname = Cacute;
lastChange = "2014-07-03 12:03:26 -0700";
layers = (
{
layerId = "D861F68D-CC3D-4754-9BA0-60D90FAB2DB2";
name = Regular;
paths = (
{
closed = 1;
nodes = (
"134 698 OFFCURVE",
"42 581 OFFCURVE",
"42 343 CURVE SMOOTH",
"42 105 OFFCURVE",
"134 -12 OFFCURVE",
"312 -12 CURVE SMOOTH",
"452 -12 OFFCURVE",
"551 69 OFFCURVE",
"551 246 CURVE",
"464 246 LINE",
"464 127 OFFCURVE",
"404 69 OFFCURVE",
"312 69 CURVE SMOOTH",
"192 69 OFFCURVE",
"134 151 OFFCURVE",
"134 318 CURVE SMOOTH",
"134 368 LINE SMOOTH",
"134 535 OFFCURVE",
"192 617 OFFCURVE",
"312 617 CURVE SMOOTH",
"402 617 OFFCURVE",
"461 558 OFFCURVE",
"461 438 CURVE",
"551 438 LINE",
"551 613 OFFCURVE",
"452 698 OFFCURVE",
"312 698 CURVE SMOOTH"
);
},
{
closed = 1;
nodes = (
"337 883 LINE",
"251 751 LINE",
"320 751 LINE",
"428 880 LINE",
"427 883 LINE"
);
}
);
width = 592;
},
{
layerId = "72E9C866-9899-4CE7-8B77-ABF2E23FF1EF";
name = Bold;
paths = (
{
closed = 1;
nodes = (
"135 698 OFFCURVE",
"34 585 OFFCURVE",
"34 343 CURVE SMOOTH",
"34 101 OFFCURVE",
"135 -12 OFFCURVE",
"307 -12 CURVE SMOOTH",
"452 -12 OFFCURVE",
"559 74 OFFCURVE",
"559 254 CURVE",
"434 254 LINE",
"434 148 OFFCURVE",
"385 98 OFFCURVE",
"311 98 CURVE SMOOTH",
"213 98 OFFCURVE",
"166 181 OFFCURVE",
"166 318 CURVE SMOOTH",
"166 368 LINE SMOOTH",
"166 505 OFFCURVE",
"212 588 OFFCURVE",
"307 588 CURVE SMOOTH",
"379 588 OFFCURVE",
"428 537 OFFCURVE",
"428 431 CURVE",
"559 431 LINE",
"559 617 OFFCURVE",
"450 698 OFFCURVE",
"307 698 CURVE SMOOTH"
);
},
{
closed = 1;
nodes = (
"324 883 LINE",
"238 751 LINE",
"337 751 LINE",
"445 880 LINE",
"444 883 LINE"
);
}
);
width = 592;
}
);
unicode = 0106;
},
{
glyphname = Ccaron;
lastChange = "2014-07-03 12:03:26 -0700";
layers = (
{
layerId = "D861F68D-CC3D-4754-9BA0-60D90FAB2DB2";
name = Regular;
paths = (
{
closed = 1;
nodes = (
"134 698 OFFCURVE",
"42 581 OFFCURVE",
"42 343 CURVE SMOOTH",
"42 105 OFFCURVE",
"134 -12 OFFCURVE",
"312 -12 CURVE SMOOTH",
"452 -12 OFFCURVE",
"551 69 OFFCURVE",
"551 246 CURVE",
"464 246 LINE",
"464 127 OFFCURVE",
"404 69 OFFCURVE",
"312 69 CURVE SMOOTH",
"192 69 OFFCURVE",
"134 151 OFFCURVE",
"134 318 CURVE SMOOTH",
"134 368 LINE SMOOTH",
"134 535 OFFCURVE",
"192 617 OFFCURVE",
"312 617 CURVE SMOOTH",
"402 617 OFFCURVE",
"461 558 OFFCURVE",
"461 438 CURVE",
"551 438 LINE",
"551 613 OFFCURVE",
"452 698 OFFCURVE",
"312 698 CURVE SMOOTH"
);
},
{
closed = 1;
nodes = (
"421 883 LINE",
"341 883 LINE",
"296 804 LINE",
"251 883 LINE",
"171 883 LINE",
"256 748 LINE",
"334 748 LINE"
);
}
);
width = 592;
},
{
layerId = "72E9C866-9899-4CE7-8B77-ABF2E23FF1EF";
name = Bold;
paths = (
{
closed = 1;
nodes = (
"135 698 OFFCURVE",
"34 585 OFFCURVE",
"34 343 CURVE SMOOTH",
"34 101 OFFCURVE",
"135 -12 OFFCURVE",
"307 -12 CURVE SMOOTH",
"452 -12 OFFCURVE",
"559 74 OFFCURVE",
"559 254 CURVE",
"434 254 LINE",
"434 148 OFFCURVE",
"385 98 OFFCURVE",
"311 98 CURVE SMOOTH",
"213 98 OFFCURVE",
"166 181 OFFCURVE",
"166 318 CURVE SMOOTH",
"166 368 LINE SMOOTH",
"166 505 OFFCURVE",
"212 588 OFFCURVE",
"307 588 CURVE SMOOTH",
"379 588 OFFCURVE",
"428 537 OFFCURVE",
"428 431 CURVE",
"559 431 LINE",
"559 617 OFFCURVE",
"450 698 OFFCURVE",
"307 698 CURVE SMOOTH"
);
},
{
closed = 1;
nodes = (
"441 883 LINE",
"352 883 LINE",
"307 814 LINE",
"262 883 LINE",
"172 883 LINE",
"258 748 LINE",
"356 748 LINE"
);
}
);
width = 592;
}
);
unicode = 010C;
},
{
glyphname = Ccedilla;
lastChange = "2014-07-03 12:03:26 -0700";
layers = (
{
layerId = "D861F68D-CC3D-4754-9BA0-60D90FAB2DB2";
name = Regular;
paths = (
{
closed = 1;
nodes = (
"134 698 OFFCURVE",
"42 581 OFFCURVE",
"42 343 CURVE SMOOTH",
"42 130 OFFCURVE",
"115 14 OFFCURVE",
"258 -8 CURVE",
"247 -77 LINE",
"280 -77 LINE SMOOTH",
"306 -77 OFFCURVE",
"314 -85 OFFCURVE",
"314 -101 CURVE SMOOTH",
"314 -120 OFFCURVE",
"300 -125 OFFCURVE",
"278 -125 CURVE SMOOTH",
"202 -125 LINE",
"202 -174 LINE",
"226 -179 OFFCURVE",
"258 -182 OFFCURVE",
"286 -182 CURVE SMOOTH",
"327 -182 OFFCURVE",
"390 -168 OFFCURVE",
"390 -101 CURVE SMOOTH",
"390 -55 OFFCURVE",
"352 -39 OFFCURVE",
"309 -36 CURVE",
"312 -12 LINE",
"452 -12 OFFCURVE",
"551 69 OFFCURVE",
"551 246 CURVE",
"464 246 LINE",
"464 127 OFFCURVE",
"404 69 OFFCURVE",
"312 69 CURVE SMOOTH",
"192 69 OFFCURVE",
"134 151 OFFCURVE",
"134 318 CURVE SMOOTH",
"134 368 LINE SMOOTH",
"134 535 OFFCURVE",
"192 617 OFFCURVE",
"312 617 CURVE SMOOTH",
"402 617 OFFCURVE",
"461 558 OFFCURVE",
"461 438 CURVE",
"551 438 LINE",
"551 613 OFFCURVE",
"452 698 OFFCURVE",
"312 698 CURVE SMOOTH"
);
}
);
width = 592;
},
{
layerId = "72E9C866-9899-4CE7-8B77-ABF2E23FF1EF";
name = Bold;
paths = (
{
closed = 1;
nodes = (
"135 698 OFFCURVE",
"34 585 OFFCURVE",
"34 343 CURVE SMOOTH",
"34 122 OFFCURVE",
"117 9 OFFCURVE",
"262 -9 CURVE",
"254 -77 LINE",
"287 -77 LINE SMOOTH",
"313 -77 OFFCURVE",
"321 -85 OFFCURVE",
"321 -101 CURVE SMOOTH",
"321 -120 OFFCURVE",
"307 -125 OFFCURVE",
"285 -125 CURVE SMOOTH",
"214 -125 LINE",
"214 -174 LINE",
"238 -179 OFFCURVE",
"270 -182 OFFCURVE",
"298 -182 CURVE SMOOTH",
"341 -182 OFFCURVE",
"407 -168 OFFCURVE",
"407 -101 CURVE SMOOTH",
"407 -55 OFFCURVE",
"371 -36 OFFCURVE",
"328 -33 CURVE",
"330 -11 LINE",
"463 -2 OFFCURVE",
"559 84 OFFCURVE",
"559 254 CURVE",
"434 254 LINE",
"434 148 OFFCURVE",
"385 98 OFFCURVE",
"311 98 CURVE SMOOTH",
"213 98 OFFCURVE",
"166 181 OFFCURVE",
"166 318 CURVE SMOOTH",
"166 368 LINE SMOOTH",
"166 505 OFFCURVE",
"212 588 OFFCURVE",
"307 588 CURVE SMOOTH",
"379 588 OFFCURVE",
"428 537 OFFCURVE",
"428 431 CURVE",
"559 431 LINE",
"559 617 OFFCURVE",
"450 698 OFFCURVE",
"307 698 CURVE SMOOTH"
);
}
);
width = 592;
}
);
unicode = 00C7;
},
{
glyphname = Ccircumflex;
lastChange = "2014-07-03 12:03:26 -0700";
layers = (
{
layerId = "D861F68D-CC3D-4754-9BA0-60D90FAB2DB2";
name = Regular;
paths = (
{
closed = 1;
nodes = (
"134 698 OFFCURVE",
"42 581 OFFCURVE",
"42 343 CURVE SMOOTH",
"42 105 OFFCURVE",
"134 -12 OFFCURVE",
"312 -12 CURVE SMOOTH",
"452 -12 OFFCURVE",
"551 69 OFFCURVE",
"551 246 CURVE",
"464 246 LINE",
"464 127 OFFCURVE",
"404 69 OFFCURVE",
"312 69 CURVE SMOOTH",
"192 69 OFFCURVE",
"134 151 OFFCURVE",
"134 318 CURVE SMOOTH",
"134 368 LINE SMOOTH",
"134 535 OFFCURVE",
"192 617 OFFCURVE",
"312 617 CURVE SMOOTH",
"402 617 OFFCURVE",
"461 558 OFFCURVE",
"461 438 CURVE",
"551 438 LINE",
"551 613 OFFCURVE",
"452 698 OFFCURVE",
"312 698 CURVE SMOOTH"
);
},
{
closed = 1;
nodes = (
"335 882 LINE",
"257 882 LINE",
"171 747 LINE",
"251 747 LINE",
"297 826 LINE",
"341 747 LINE",
"421 747 LINE"
);
}
);
width = 592;
},
{
layerId = "72E9C866-9899-4CE7-8B77-ABF2E23FF1EF";
name = Bold;
paths = (
{
closed = 1;
nodes = (
"135 698 OFFCURVE",
"34 585 OFFCURVE",
"34 343 CURVE SMOOTH",
"34 101 OFFCURVE",
"135 -12 OFFCURVE",
"307 -12 CURVE SMOOTH",
"452 -12 OFFCURVE",
"559 74 OFFCURVE",
"559 254 CURVE",
"434 254 LINE",
"434 148 OFFCURVE",
"385 98 OFFCURVE",
"311 98 CURVE SMOOTH",
"213 98 OFFCURVE",
"166 181 OFFCURVE",
"166 318 CURVE SMOOTH",
"166 368 LINE SMOOTH",
"166 505 OFFCURVE",
"212 588 OFFCURVE",
"307 588 CURVE SMOOTH",
"379 588 OFFCURVE",
"428 537 OFFCURVE",
"428 431 CURVE",
"559 431 LINE",
"559 617 OFFCURVE",
"450 698 OFFCURVE",
"307 698 CURVE SMOOTH"
);
},
{
closed = 1;
nodes = (
"356 883 LINE",
"258 883 LINE",
"172 748 LINE",
"262 748 LINE",
"307 817 LINE",
"352 748 LINE",
"441 748 LINE"
);
}
);
width = 592;
}
);
unicode = 0108;
},
{
glyphname = Cdotaccent;
lastChange = "2014-07-03 12:03:26 -0700";
layers = (
{
layerId = "D861F68D-CC3D-4754-9BA0-60D90FAB2DB2";
name = Regular;
paths = (
{
closed = 1;
nodes = (
"134 698 OFFCURVE",
"42 581 OFFCURVE",
"42 343 CURVE SMOOTH",
"42 105 OFFCURVE",
"134 -12 OFFCURVE",
"312 -12 CURVE SMOOTH",
"452 -12 OFFCURVE",
"551 69 OFFCURVE",
"551 246 CURVE",
"464 246 LINE",
"464 127 OFFCURVE",
"404 69 OFFCURVE",
"312 69 CURVE SMOOTH",
"192 69 OFFCURVE",
"134 151 OFFCURVE",
"134 318 CURVE SMOOTH",
"134 368 LINE SMOOTH",
"134 535 OFFCURVE",
"192 617 OFFCURVE",
"312 617 CURVE SMOOTH",
"402 617 OFFCURVE",
"461 558 OFFCURVE",
"461 438 CURVE",
"551 438 LINE",
"551 613 OFFCURVE",
"452 698 OFFCURVE",
"312 698 CURVE SMOOTH"
);
},
{
closed = 1;
nodes = (
"340 883 LINE",
"252 883 LINE",
"252 788 LINE",
"340 788 LINE"
);
}
);
width = 592;
},
{
layerId = "72E9C866-9899-4CE7-8B77-ABF2E23FF1EF";
name = Bold;
paths = (
{
closed = 1;
nodes = (
"135 698 OFFCURVE",
"34 585 OFFCURVE",
"34 343 CURVE SMOOTH",
"34 101 OFFCURVE",
"135 -12 OFFCURVE",
"307 -12 CURVE SMOOTH",
"452 -12 OFFCURVE",
"559 74 OFFCURVE",
"559 254 CURVE",
"434 254 LINE",
"434 148 OFFCURVE",
"385 98 OFFCURVE",
"311 98 CURVE SMOOTH",
"213 98 OFFCURVE",
"166 181 OFFCURVE",
"166 318 CURVE SMOOTH",
"166 368 LINE SMOOTH",
"166 505 OFFCURVE",
"212 588 OFFCURVE",
"307 588 CURVE SMOOTH",
"379 588 OFFCURVE",
"428 537 OFFCURVE",
"428 431 CURVE",
"559 431 LINE",
"559 617 OFFCURVE",
"450 698 OFFCURVE",
"307 698 CURVE SMOOTH"
);
},
{
closed = 1;
nodes = (
"360 883 LINE",
"253 883 LINE",
"253 768 LINE",
"360 768 LINE"
);
}
);
width = 592;
}
);
unicode = 010A;
},
{
glyphname = D;
lastChange = "2014-07-03 12:03:26 -0700";
layers = (
{
anchors = (
{
name = center;
position = "{296, 343}";
},
{
name = top;
position = "{296, 686}";
}
);
layerId = "D861F68D-CC3D-4754-9BA0-60D90FAB2DB2";
name = Regular;
paths = (
{
closed = 1;
nodes = (
"283 0 LINE SMOOTH",
"445 0 OFFCURVE",
"543 118 OFFCURVE",
"543 353 CURVE SMOOTH",
"543 574 OFFCURVE",
"445 686 OFFCURVE",
"283 686 CURVE SMOOTH",
"70 686 LINE",
"70 0 LINE"
);
},
{
closed = 1;
nodes = (
"275 606 LINE SMOOTH",
"383 606 OFFCURVE",
"451 531 OFFCURVE",
"451 378 CURVE SMOOTH",
"451 328 LINE SMOOTH",
"451 161 OFFCURVE",
"383 80 OFFCURVE",
"275 80 CURVE SMOOTH",
"158 80 LINE",
"158 606 LINE"
);
}
);
width = 592;
},
{
anchors = (
{
name = center;
position = "{296, 343}";
},
{
name = top;
position = "{296, 686}";
}
);
layerId = "72E9C866-9899-4CE7-8B77-ABF2E23FF1EF";
name = Bold;
paths = (
{
closed = 1;
nodes = (
"283 0 LINE SMOOTH",
"454 0 OFFCURVE",
"558 118 OFFCURVE",
"558 353 CURVE SMOOTH",
"558 574 OFFCURVE",
"454 686 OFFCURVE",
"283 686 CURVE SMOOTH",
"60 686 LINE",
"60 0 LINE"
);
},
{
closed = 1;
nodes = (
"271 572 LINE SMOOTH",
"366 572 OFFCURVE",
"426 507 OFFCURVE",
"426 378 CURVE SMOOTH",
"426 328 LINE SMOOTH",
"426 185 OFFCURVE",
"366 114 OFFCURVE",
"271 114 CURVE SMOOTH",
"188 114 LINE",
"188 572 LINE"
);
}
);
width = 592;
}
);
unicode = 0044;
},
{
glyphname = Eth;
lastChange = "2014-07-03 12:03:26 -0700";
layers = (
{
layerId = "D861F68D-CC3D-4754-9BA0-60D90FAB2DB2";
name = Regular;
paths = (
{
closed = 1;
nodes = (
"5 323 LINE",
"70 323 LINE",
"70 0 LINE",
"283 0 LINE SMOOTH",
"445 0 OFFCURVE",
"543 118 OFFCURVE",
"543 353 CURVE SMOOTH",
"543 574 OFFCURVE",
"445 686 OFFCURVE",
"283 686 CURVE SMOOTH",
"70 686 LINE",
"70 387 LINE",
"5 387 LINE"
);
},
{
closed = 1;
nodes = (
"275 606 LINE SMOOTH",
"383 606 OFFCURVE",
"451 531 OFFCURVE",
"451 378 CURVE SMOOTH",
"451 328 LINE SMOOTH",
"451 161 OFFCURVE",
"383 80 OFFCURVE",
"275 80 CURVE SMOOTH",
"158 80 LINE",
"158 323 LINE",
"315 323 LINE",
"315 387 LINE",
"158 387 LINE",
"158 606 LINE"
);
}
);
width = 592;
},
{
layerId = "72E9C866-9899-4CE7-8B77-ABF2E23FF1EF";
name = Bold;
paths = (
{
closed = 1;
nodes = (
"10 312 LINE",
"60 312 LINE",
"60 0 LINE",
"283 0 LINE SMOOTH",
"454 0 OFFCURVE",
"558 118 OFFCURVE",
"558 353 CURVE SMOOTH",
"558 574 OFFCURVE",
"454 686 OFFCURVE",
"283 686 CURVE SMOOTH",
"60 686 LINE",
"60 397 LINE",
"10 397 LINE"
);
},
{
closed = 1;
nodes = (
"271 572 LINE SMOOTH",
"366 572 OFFCURVE",
"426 507 OFFCURVE",
"426 378 CURVE SMOOTH",
"426 328 LINE SMOOTH",
"426 185 OFFCURVE",
"366 114 OFFCURVE",
"271 114 CURVE SMOOTH",
"188 114 LINE",
"188 312 LINE",
"313 312 LINE",
"313 397 LINE",
"188 397 LINE",
"188 572 LINE"
);
}
);
width = 592;
}
);
unicode = 00D0;
},
{
glyphname = Dcaron;
lastChange = "2014-07-03 12:03:26 -0700";
layers = (
{
layerId = "D861F68D-CC3D-4754-9BA0-60D90FAB2DB2";
name = Regular;
paths = (
{
closed = 1;
nodes = (
"421 883 LINE",
"341 883 LINE",
"296 804 LINE",
"251 883 LINE",
"171 883 LINE",
"256 748 LINE",
"334 748 LINE"
);
},
{
closed = 1;
nodes = (
"283 0 LINE SMOOTH",
"445 0 OFFCURVE",
"543 118 OFFCURVE",
"543 353 CURVE SMOOTH",
"543 574 OFFCURVE",
"445 686 OFFCURVE",
"283 686 CURVE SMOOTH",
"70 686 LINE",
"70 0 LINE"
);
},
{
closed = 1;
nodes = (
"275 606 LINE SMOOTH",
"383 606 OFFCURVE",
"451 531 OFFCURVE",
"451 378 CURVE SMOOTH",
"451 328 LINE SMOOTH",
"451 161 OFFCURVE",
"383 80 OFFCURVE",
"275 80 CURVE SMOOTH",
"158 80 LINE",
"158 606 LINE"
);
}
);
width = 592;
},
{
layerId = "72E9C866-9899-4CE7-8B77-ABF2E23FF1EF";
name = Bold;
paths = (
{
closed = 1;
nodes = (
"388 883 LINE",
"298 883 LINE",
"254 814 LINE",
"209 883 LINE",
"119 883 LINE",
"205 748 LINE",
"303 748 LINE"
);
},
{
closed = 1;
nodes = (
"283 0 LINE SMOOTH",
"454 0 OFFCURVE",
"558 118 OFFCURVE",
"558 353 CURVE SMOOTH",
"558 574 OFFCURVE",
"454 686 OFFCURVE",
"283 686 CURVE SMOOTH",
"60 686 LINE",
"60 0 LINE"
);
},
{
closed = 1;
nodes = (
"271 572 LINE SMOOTH",
"366 572 OFFCURVE",
"426 507 OFFCURVE",
"426 378 CURVE SMOOTH",
"426 328 LINE SMOOTH",
"426 185 OFFCURVE",
"366 114 OFFCURVE",
"271 114 CURVE SMOOTH",
"188 114 LINE",
"188 572 LINE"
);
}
);
width = 592;
}
);
unicode = 010E;
},
{
glyphname = Dcroat;
lastChange = "2014-07-03 12:03:26 -0700";
layers = (
{
layerId = "D861F68D-CC3D-4754-9BA0-60D90FAB2DB2";
name = Regular;
paths = (
{
closed = 1;
nodes = (
"5 323 LINE",
"70 323 LINE",
"70 0 LINE",
"283 0 LINE SMOOTH",
"445 0 OFFCURVE",
"543 118 OFFCURVE",
"543 353 CURVE SMOOTH",
"543 574 OFFCURVE",
"445 686 OFFCURVE",
"283 686 CURVE SMOOTH",
"70 686 LINE",
"70 387 LINE",
"5 387 LINE"
);
},
{
closed = 1;
nodes = (
"275 606 LINE SMOOTH",
"383 606 OFFCURVE",
"451 531 OFFCURVE",
"451 378 CURVE SMOOTH",
"451 328 LINE SMOOTH",
"451 161 OFFCURVE",
"383 80 OFFCURVE",
"275 80 CURVE SMOOTH",
"158 80 LINE",
"158 323 LINE",
"315 323 LINE",
"315 387 LINE",
"158 387 LINE",
"158 606 LINE"
);
}
);
width = 592;
},
{
layerId = "72E9C866-9899-4CE7-8B77-ABF2E23FF1EF";
name = Bold;
paths = (
{
closed = 1;
nodes = (
"10 312 LINE",
"60 312 LINE",
"60 0 LINE",
"283 0 LINE SMOOTH",
"454 0 OFFCURVE",
"558 118 OFFCURVE",
"558 353 CURVE SMOOTH",
"558 574 OFFCURVE",
"454 686 OFFCURVE",
"283 686 CURVE SMOOTH",
"60 686 LINE",
"60 397 LINE",
"10 397 LINE"
);
},
{
closed = 1;
nodes = (
"271 572 LINE SMOOTH",
"366 572 OFFCURVE",
"426 507 OFFCURVE",
"426 378 CURVE SMOOTH",
"426 328 LINE SMOOTH",
"426 185 OFFCURVE",
"366 114 OFFCURVE",
"271 114 CURVE SMOOTH",
"188 114 LINE",
"188 312 LINE",
"313 312 LINE",
"313 397 LINE",
"188 397 LINE",
"188 572 LINE"
);
}
);
width = 592;
}
);
unicode = 0110;
},
{
glyphname = E;
lastChange = "2014-07-03 12:03:26 -0700";
layers = (
{
anchors = (
{
name = bottom;
position = "{274, 0}";
},
{
name = ogonek;
position = "{492, 10}";
},
{
name = top;
position = "{274, 686}";
}
);
layerId = "D861F68D-CC3D-4754-9BA0-60D90FAB2DB2";
name = Regular;
paths = (
{
closed = 1;
nodes = (
"499 0 LINE",
"499 80 LINE",
"158 80 LINE",
"158 311 LINE",
"449 311 LINE",
"449 391 LINE",
"158 391 LINE",
"158 606 LINE",
"493 606 LINE",
"493 686 LINE",
"70 686 LINE",
"70 0 LINE"
);
}
);
width = 547;
},
{
anchors = (
{
name = bottom;
position = "{274, 0}";
},
{
name = ogonek;
position = "{492, 10}";
},
{
name = top;
position = "{274, 686}";
}
);
layerId = "72E9C866-9899-4CE7-8B77-ABF2E23FF1EF";
name = Bold;
paths = (
{
closed = 1;
nodes = (
"503 0 LINE",
"503 114 LINE",
"188 114 LINE",
"188 294 LINE",
"453 294 LINE",
"453 408 LINE",
"188 408 LINE",
"188 572 LINE",
"497 572 LINE",
"497 686 LINE",
"60 686 LINE",
"60 0 LINE"
);
}
);
width = 547;
}
);
unicode = 0045;
},
{
glyphname = Eacute;
lastChange = "2014-07-03 12:03:26 -0700";
layers = (
{
layerId = "D861F68D-CC3D-4754-9BA0-60D90FAB2DB2";
name = Regular;
paths = (
{
closed = 1;
nodes = (
"70 686 LINE",
"70 0 LINE",
"499 0 LINE",
"499 80 LINE",
"158 80 LINE",
"158 311 LINE",
"449 311 LINE",
"449 391 LINE",
"158 391 LINE",
"158 606 LINE",
"493 606 LINE",
"493 686 LINE"
);
},
{
closed = 1;
nodes = (
"300 883 LINE",
"214 751 LINE",
"283 751 LINE",
"391 880 LINE",
"390 883 LINE"
);
}
);
width = 547;
},
{
layerId = "72E9C866-9899-4CE7-8B77-ABF2E23FF1EF";
name = Bold;
paths = (
{
closed = 1;
nodes = (
"60 686 LINE",
"60 0 LINE",
"503 0 LINE",
"503 114 LINE",
"188 114 LINE",
"188 294 LINE",
"453 294 LINE",
"453 408 LINE",
"188 408 LINE",
"188 572 LINE",
"497 572 LINE",
"497 686 LINE"
);
},
{
closed = 1;
nodes = (
"291 883 LINE",
"205 751 LINE",
"304 751 LINE",
"412 880 LINE",
"411 883 LINE"
);
}
);
width = 547;
}
);
unicode = 00C9;
},
{
glyphname = Ebreve;
lastChange = "2014-07-03 12:03:26 -0700";
layers = (
{
layerId = "D861F68D-CC3D-4754-9BA0-60D90FAB2DB2";
name = Regular;
paths = (
{
closed = 1;
nodes = (
"333 883 LINE",
"332 869 OFFCURVE",
"307 850 OFFCURVE",
"273 850 CURVE SMOOTH",
"240 850 OFFCURVE",
"217 869 OFFCURVE",
"214 883 CURVE",
"150 883 LINE",
"150 838 OFFCURVE",
"197 786 OFFCURVE",
"273 786 CURVE SMOOTH",
"350 786 OFFCURVE",
"397 838 OFFCURVE",
"397 883 CURVE"
);
},
{
closed = 1;
nodes = (
"499 0 LINE",
"499 80 LINE",
"158 80 LINE",
"158 311 LINE",
"449 311 LINE",
"449 391 LINE",
"158 391 LINE",
"158 606 LINE",
"493 606 LINE",
"493 686 LINE",
"70 686 LINE",
"70 0 LINE"
);
}
);
width = 547;
},
{
layerId = "72E9C866-9899-4CE7-8B77-ABF2E23FF1EF";
name = Bold;
paths = (
{
closed = 1;
nodes = (
"333 883 LINE",
"331 869 OFFCURVE",
"307 850 OFFCURVE",
"273 850 CURVE SMOOTH",
"240 850 OFFCURVE",
"217 869 OFFCURVE",
"214 883 CURVE",
"140 883 LINE",
"140 833 OFFCURVE",
"191 776 OFFCURVE",
"273 776 CURVE SMOOTH",
"356 776 OFFCURVE",
"407 833 OFFCURVE",
"407 883 CURVE"
);
},
{
closed = 1;
nodes = (
"503 0 LINE",
"503 114 LINE",
"188 114 LINE",
"188 294 LINE",
"453 294 LINE",
"453 408 LINE",
"188 408 LINE",
"188 572 LINE",
"497 572 LINE",
"497 686 LINE",
"60 686 LINE",
"60 0 LINE"
);
}
);
width = 547;
}
);
unicode = 0114;
},
{
glyphname = Ecaron;
lastChange = "2014-07-03 12:03:26 -0700";
layers = (
{
layerId = "D861F68D-CC3D-4754-9BA0-60D90FAB2DB2";
name = Regular;
paths = (
{
closed = 1;
nodes = (
"398 883 LINE",
"318 883 LINE",
"273 804 LINE",
"229 883 LINE",
"149 883 LINE",
"234 748 LINE",
"312 748 LINE"
);
},
{
closed = 1;
nodes = (
"499 0 LINE",
"499 80 LINE",
"158 80 LINE",
"158 311 LINE",
"449 311 LINE",
"449 391 LINE",
"158 391 LINE",
"158 606 LINE",
"493 606 LINE",
"493 686 LINE",
"70 686 LINE",
"70 0 LINE"
);
}
);
width = 547;
},
{
layerId = "72E9C866-9899-4CE7-8B77-ABF2E23FF1EF";
name = Bold;
paths = (
{
closed = 1;
nodes = (
"408 883 LINE",
"318 883 LINE",
"274 814 LINE",
"229 883 LINE",
"139 883 LINE",
"225 748 LINE",
"323 748 LINE"
);
},
{
closed = 1;
nodes = (
"503 0 LINE",
"503 114 LINE",
"188 114 LINE",
"188 294 LINE",
"453 294 LINE",
"453 408 LINE",
"188 408 LINE",
"188 572 LINE",
"497 572 LINE",
"497 686 LINE",
"60 686 LINE",
"60 0 LINE"
);
}
);
width = 547;
}
);
unicode = 011A;
},
{
glyphname = Ecircumflex;
lastChange = "2014-07-03 12:03:26 -0700";
layers = (
{
layerId = "D861F68D-CC3D-4754-9BA0-60D90FAB2DB2";
name = Regular;
paths = (
{
closed = 1;
nodes = (
"313 882 LINE",
"235 882 LINE",
"149 747 LINE",
"229 747 LINE",
"274 826 LINE",
"318 747 LINE",
"398 747 LINE"
);
},
{
closed = 1;
nodes = (
"499 0 LINE",
"499 80 LINE",
"158 80 LINE",
"158 311 LINE",
"449 311 LINE",
"449 391 LINE",
"158 391 LINE",
"158 606 LINE",
"493 606 LINE",
"493 686 LINE",
"70 686 LINE",
"70 0 LINE"
);
}
);
width = 547;
},
{
layerId = "72E9C866-9899-4CE7-8B77-ABF2E23FF1EF";
name = Bold;
paths = (
{
closed = 1;
nodes = (
"323 883 LINE",
"225 883 LINE",
"139 748 LINE",
"229 748 LINE",
"274 817 LINE",
"318 748 LINE",
"408 748 LINE"
);
},
{
closed = 1;
nodes = (
"503 0 LINE",
"503 114 LINE",
"188 114 LINE",
"188 294 LINE",
"453 294 LINE",
"453 408 LINE",
"188 408 LINE",
"188 572 LINE",
"497 572 LINE",
"497 686 LINE",
"60 686 LINE",
"60 0 LINE"
);
}
);
width = 547;
}
);
unicode = 00CA;
},
{
glyphname = Edieresis;
lastChange = "2014-07-03 12:03:26 -0700";
layers = (
{
layerId = "D861F68D-CC3D-4754-9BA0-60D90FAB2DB2";
name = Regular;
paths = (
{
closed = 1;
nodes = (
"70 686 LINE",
"70 0 LINE",
"499 0 LINE",
"499 80 LINE",
"158 80 LINE",
"158 311 LINE",
"449 311 LINE",
"449 391 LINE",
"158 391 LINE",
"158 606 LINE",
"493 606 LINE",
"493 686 LINE"
);
},
{
closed = 1;
nodes = (
"155 883 LINE",
"155 788 LINE",
"242 788 LINE",
"242 883 LINE"
);
},
{
closed = 1;
nodes = (
"305 883 LINE",
"305 788 LINE",
"392 788 LINE",
"392 883 LINE"
);
}
);
width = 547;
},
{
layerId = "72E9C866-9899-4CE7-8B77-ABF2E23FF1EF";
name = Bold;
paths = (
{
closed = 1;
nodes = (
"60 686 LINE",
"60 0 LINE",
"503 0 LINE",
"503 114 LINE",
"188 114 LINE",
"188 294 LINE",
"453 294 LINE",
"453 408 LINE",
"188 408 LINE",
"188 572 LINE",
"497 572 LINE",
"497 686 LINE"
);
},
{
closed = 1;
nodes = (
"136 883 LINE",
"136 774 LINE",
"236 774 LINE",
"236 883 LINE"
);
},
{
closed = 1;
nodes = (
"311 883 LINE",
"311 774 LINE",
"411 774 LINE",
"411 883 LINE"
);
}
);
width = 547;
}
);
unicode = 00CB;
},
{
glyphname = Edotaccent;
lastChange = "2014-07-03 12:03:26 -0700";
layers = (
{
layerId = "D861F68D-CC3D-4754-9BA0-60D90FAB2DB2";
name = Regular;
paths = (
{
closed = 1;
nodes = (
"317 883 LINE",
"230 883 LINE",
"230 788 LINE",
"317 788 LINE"
);
},
{
closed = 1;
nodes = (
"499 0 LINE",
"499 80 LINE",
"158 80 LINE",
"158 311 LINE",
"449 311 LINE",
"449 391 LINE",
"158 391 LINE",
"158 606 LINE",
"493 606 LINE",
"493 686 LINE",
"70 686 LINE",
"70 0 LINE"
);
}
);
width = 547;
},
{
layerId = "72E9C866-9899-4CE7-8B77-ABF2E23FF1EF";
name = Bold;
paths = (
{
closed = 1;
nodes = (
"327 883 LINE",
"220 883 LINE",
"220 768 LINE",
"327 768 LINE"
);
},
{
closed = 1;
nodes = (
"503 0 LINE",
"503 114 LINE",
"188 114 LINE",
"188 294 LINE",
"453 294 LINE",
"453 408 LINE",
"188 408 LINE",
"188 572 LINE",
"497 572 LINE",
"497 686 LINE",
"60 686 LINE",
"60 0 LINE"
);
}
);
width = 547;
}
);
unicode = 0116;
},
{
glyphname = Egrave;
lastChange = "2014-07-03 12:03:26 -0700";
layers = (
{
layerId = "D861F68D-CC3D-4754-9BA0-60D90FAB2DB2";
name = Regular;
paths = (
{
closed = 1;
nodes = (
"70 686 LINE",
"70 0 LINE",
"499 0 LINE",
"499 80 LINE",
"158 80 LINE",
"158 311 LINE",
"449 311 LINE",
"449 391 LINE",
"158 391 LINE",
"158 606 LINE",
"493 606 LINE",
"493 686 LINE"
);
},
{
closed = 1;
nodes = (
"157 883 LINE",
"156 880 LINE",
"264 751 LINE",
"333 751 LINE",
"247 883 LINE"
);
}
);
width = 547;
},
{
layerId = "72E9C866-9899-4CE7-8B77-ABF2E23FF1EF";
name = Bold;
paths = (
{
closed = 1;
nodes = (
"60 686 LINE",
"60 0 LINE",
"503 0 LINE",
"503 114 LINE",
"188 114 LINE",
"188 294 LINE",
"453 294 LINE",
"453 408 LINE",
"188 408 LINE",
"188 572 LINE",
"497 572 LINE",
"497 686 LINE"
);
},
{
closed = 1;
nodes = (
"136 883 LINE",
"135 880 LINE",
"243 751 LINE",
"342 751 LINE",
"256 883 LINE"
);
}
);
width = 547;
}
);
unicode = 00C8;
},
{
glyphname = Emacron;
lastChange = "2014-07-03 12:03:26 -0700";
layers = (
{
layerId = "D861F68D-CC3D-4754-9BA0-60D90FAB2DB2";
name = Regular;
paths = (
{
closed = 1;
nodes = (
"399 831 LINE",
"148 831 LINE",
"148 759 LINE",
"399 759 LINE"
);
},
{
closed = 1;
nodes = (
"499 0 LINE",
"499 80 LINE",
"158 80 LINE",
"158 311 LINE",
"449 311 LINE",
"449 391 LINE",
"158 391 LINE",
"158 606 LINE",
"493 606 LINE",
"493 686 LINE",
"70 686 LINE",
"70 0 LINE"
);
}
);
width = 547;
},
{
layerId = "72E9C866-9899-4CE7-8B77-ABF2E23FF1EF";
name = Bold;
paths = (
{
closed = 1;
nodes = (
"401 846 LINE",
"146 846 LINE",
"146 759 LINE",
"401 759 LINE"
);
},
{
closed = 1;
nodes = (
"503 0 LINE",
"503 114 LINE",
"188 114 LINE",
"188 294 LINE",
"453 294 LINE",
"453 408 LINE",
"188 408 LINE",
"188 572 LINE",
"497 572 LINE",
"497 686 LINE",
"60 686 LINE",
"60 0 LINE"
);
}
);
width = 547;
}
);
unicode = 0112;
},
{
glyphname = Eogonek;
lastChange = "2014-07-03 12:03:26 -0700";
layers = (
{
layerId = "D861F68D-CC3D-4754-9BA0-60D90FAB2DB2";
name = Regular;
paths = (
{
closed = 1;
nodes = (
"493 686 LINE",
"70 686 LINE",
"70 0 LINE",
"434 0 LINE",
"413 -23 OFFCURVE",
"397 -50 OFFCURVE",
"397 -92 CURVE SMOOTH",
"397 -161 OFFCURVE",
"448 -182 OFFCURVE",
"491 -182 CURVE SMOOTH",
"511 -182 OFFCURVE",
"531 -177 OFFCURVE",
"552 -168 CURVE",
"552 -117 LINE",
"521 -117 LINE SMOOTH",
"487 -117 OFFCURVE",
"475 -90 OFFCURVE",
"475 -62 CURVE SMOOTH",
"475 -38 OFFCURVE",
"488 -15 OFFCURVE",
"499 0 CURVE",
"499 80 LINE",
"158 80 LINE",
"158 311 LINE",
"449 311 LINE",
"449 391 LINE",
"158 391 LINE",
"158 606 LINE",
"493 606 LINE"
);
}
);
width = 547;
},
{
layerId = "72E9C866-9899-4CE7-8B77-ABF2E23FF1EF";
name = Bold;
paths = (
{
closed = 1;
nodes = (
"497 686 LINE",
"60 686 LINE",
"60 0 LINE",
"419 0 LINE",
"395 -25 OFFCURVE",
"375 -53 OFFCURVE",
"375 -100 CURVE SMOOTH",
"375 -169 OFFCURVE",
"428 -190 OFFCURVE",
"474 -190 CURVE SMOOTH",
"496 -190 OFFCURVE",
"517 -185 OFFCURVE",
"540 -176 CURVE",
"540 -121 LINE",
"518 -121 LINE SMOOTH",
"485 -121 OFFCURVE",
"473 -96 OFFCURVE",
"473 -70 CURVE SMOOTH",
"473 -42 OFFCURVE",
"491 -14 OFFCURVE",
"503 0 CURVE",
"503 114 LINE",
"188 114 LINE",
"188 294 LINE",
"453 294 LINE",
"453 408 LINE",
"188 408 LINE",
"188 572 LINE",
"497 572 LINE"
);
}
);
width = 547;
}
);
unicode = 0118;
},
{
glyphname = F;
lastChange = "2014-07-03 12:03:26 -0700";
layers = (
{
layerId = "D861F68D-CC3D-4754-9BA0-60D90FAB2DB2";
name = Regular;
paths = (
{
closed = 1;
nodes = (
"158 0 LINE",
"158 304 LINE",
"430 304 LINE",
"430 384 LINE",
"158 384 LINE",
"158 606 LINE",
"466 606 LINE",
"466 686 LINE",
"70 686 LINE",
"70 0 LINE"
);
}
);
width = 501;
},
{
layerId = "72E9C866-9899-4CE7-8B77-ABF2E23FF1EF";
name = Bold;
paths = (
{
closed = 1;
nodes = (
"188 0 LINE",
"188 285 LINE",
"423 285 LINE",
"423 399 LINE",
"188 399 LINE",
"188 572 LINE",
"463 572 LINE",
"463 686 LINE",
"60 686 LINE",
"60 0 LINE"
);
}
);
width = 501;
}
);
unicode = 0046;
},
{
glyphname = G;
lastChange = "2014-07-03 12:03:26 -0700";
layers = (
{
anchors = (
{
name = bottom;
position = "{319, 0}";
},
{
name = top;
position = "{319, 686}";
}
);
layerId = "D861F68D-CC3D-4754-9BA0-60D90FAB2DB2";
name = Regular;
paths = (
{
closed = 1;
nodes = (
"153 698 OFFCURVE",
"49 581 OFFCURVE",
"49 343 CURVE SMOOTH",
"49 105 OFFCURVE",
"146 -12 OFFCURVE",
"319 -12 CURVE SMOOTH",
"393 -12 OFFCURVE",
"454 14 OFFCURVE",
"496 76 CURVE",
"515 0 LINE",
"573 0 LINE",
"573 357 LINE",
"305 357 LINE",
"305 280 LINE",
"520 280 LINE",
"483 317 LINE",
"483 264 LINE SMOOTH",
"483 133 OFFCURVE",
"433 69 OFFCURVE",
"319 69 CURVE SMOOTH",
"204 69 OFFCURVE",
"141 151 OFFCURVE",
"141 318 CURVE SMOOTH",
"141 368 LINE SMOOTH",
"141 535 OFFCURVE",
"211 617 OFFCURVE",
"324 617 CURVE SMOOTH",
"418 617 OFFCURVE",
"483 566 OFFCURVE",
"483 452 CURVE",
"573 452 LINE",
"573 618 OFFCURVE",
"467 698 OFFCURVE",
"324 698 CURVE SMOOTH"
);
}
);
width = 638;
},
{
anchors = (
{
name = bottom;
position = "{319, 0}";
},
{
name = top;
position = "{319, 686}";
}
);
layerId = "72E9C866-9899-4CE7-8B77-ABF2E23FF1EF";
name = Bold;
paths = (
{
closed = 1;
nodes = (
"140 698 OFFCURVE",
"34 585 OFFCURVE",
"34 343 CURVE SMOOTH",
"34 99 OFFCURVE",
"131 -12 OFFCURVE",
"299 -12 CURVE SMOOTH",
"371 -12 OFFCURVE",
"438 18 OFFCURVE",
"482 76 CURVE",
"504 0 LINE",
"587 0 LINE",
"587 373 LINE",
"302 373 LINE",
"302 263 LINE",
"510 263 LINE",
"456 311 LINE",
"456 263 LINE",
"456 162 OFFCURVE",
"400 98 OFFCURVE",
"322 98 CURVE SMOOTH",
"215 98 OFFCURVE",
"166 178 OFFCURVE",
"166 318 CURVE SMOOTH",
"166 368 LINE SMOOTH",
"166 505 OFFCURVE",
"214 588 OFFCURVE",
"321 588 CURVE SMOOTH",
"395 588 OFFCURVE",
"456 539 OFFCURVE",
"456 446 CURVE",
"587 446 LINE",
"587 610 OFFCURVE",
"463 698 OFFCURVE",
"325 698 CURVE SMOOTH"
);
}
);
width = 638;
}
);
unicode = 0047;
},
{
glyphname = Gbreve;
lastChange = "2014-07-03 12:03:26 -0700";
layers = (
{
layerId = "D861F68D-CC3D-4754-9BA0-60D90FAB2DB2";
name = Regular;
paths = (
{
closed = 1;
nodes = (
"379 883 LINE",
"377 869 OFFCURVE",
"353 850 OFFCURVE",
"319 850 CURVE SMOOTH",
"286 850 OFFCURVE",
"263 869 OFFCURVE",
"260 883 CURVE",
"196 883 LINE",
"196 838 OFFCURVE",
"243 786 OFFCURVE",
"319 786 CURVE SMOOTH",
"396 786 OFFCURVE",
"443 838 OFFCURVE",
"443 883 CURVE"
);
},
{
closed = 1;
nodes = (
"153 698 OFFCURVE",
"49 581 OFFCURVE",
"49 343 CURVE SMOOTH",
"49 105 OFFCURVE",
"146 -12 OFFCURVE",
"319 -12 CURVE SMOOTH",
"393 -12 OFFCURVE",
"454 14 OFFCURVE",
"496 76 CURVE",
"515 0 LINE",
"573 0 LINE",
"573 357 LINE",
"305 357 LINE",
"305 280 LINE",
"520 280 LINE",
"483 317 LINE",
"483 264 LINE SMOOTH",
"483 133 OFFCURVE",
"433 69 OFFCURVE",
"319 69 CURVE SMOOTH",
"204 69 OFFCURVE",
"141 151 OFFCURVE",
"141 318 CURVE SMOOTH",
"141 368 LINE SMOOTH",
"141 535 OFFCURVE",
"211 617 OFFCURVE",
"324 617 CURVE SMOOTH",
"418 617 OFFCURVE",
"483 566 OFFCURVE",
"483 452 CURVE",
"573 452 LINE",
"573 618 OFFCURVE",
"467 698 OFFCURVE",
"324 698 CURVE SMOOTH"
);
}
);
width = 638;
},
{
layerId = "72E9C866-9899-4CE7-8B77-ABF2E23FF1EF";
name = Bold;
paths = (
{
closed = 1;
nodes = (
"379 883 LINE",
"377 869 OFFCURVE",
"353 850 OFFCURVE",
"319 850 CURVE SMOOTH",
"286 850 OFFCURVE",
"263 869 OFFCURVE",
"260 883 CURVE",
"186 883 LINE",
"186 833 OFFCURVE",
"237 776 OFFCURVE",
"319 776 CURVE SMOOTH",
"402 776 OFFCURVE",
"453 833 OFFCURVE",
"453 883 CURVE"
);
},
{
closed = 1;
nodes = (
"140 698 OFFCURVE",
"34 585 OFFCURVE",
"34 343 CURVE SMOOTH",
"34 99 OFFCURVE",
"131 -12 OFFCURVE",
"299 -12 CURVE SMOOTH",
"371 -12 OFFCURVE",
"438 18 OFFCURVE",
"482 76 CURVE",
"504 0 LINE",
"587 0 LINE",
"587 373 LINE",
"302 373 LINE",
"302 263 LINE",
"510 263 LINE",
"456 311 LINE",
"456 263 LINE",
"456 162 OFFCURVE",
"400 98 OFFCURVE",
"322 98 CURVE SMOOTH",
"215 98 OFFCURVE",
"166 178 OFFCURVE",
"166 318 CURVE SMOOTH",
"166 368 LINE SMOOTH",
"166 505 OFFCURVE",
"214 588 OFFCURVE",
"321 588 CURVE SMOOTH",
"395 588 OFFCURVE",
"456 539 OFFCURVE",
"456 446 CURVE",
"587 446 LINE",
"587 610 OFFCURVE",
"463 698 OFFCURVE",
"325 698 CURVE SMOOTH"
);
}
);
width = 638;
}
);
unicode = 011E;
},
{
glyphname = Gcircumflex;
lastChange = "2014-07-03 12:03:26 -0700";
layers = (
{
layerId = "D861F68D-CC3D-4754-9BA0-60D90FAB2DB2";
name = Regular;
paths = (
{
closed = 1;
nodes = (
"359 882 LINE",
"281 882 LINE",
"195 747 LINE",
"275 747 LINE",
"320 826 LINE",
"364 747 LINE",
"444 747 LINE"
);
},
{
closed = 1;
nodes = (
"153 698 OFFCURVE",
"49 581 OFFCURVE",
"49 343 CURVE SMOOTH",
"49 105 OFFCURVE",
"146 -12 OFFCURVE",
"319 -12 CURVE SMOOTH",
"393 -12 OFFCURVE",
"454 14 OFFCURVE",
"496 76 CURVE",
"515 0 LINE",
"573 0 LINE",
"573 357 LINE",
"305 357 LINE",
"305 280 LINE",
"520 280 LINE",
"483 317 LINE",
"483 264 LINE SMOOTH",
"483 133 OFFCURVE",
"433 69 OFFCURVE",
"319 69 CURVE SMOOTH",
"204 69 OFFCURVE",
"141 151 OFFCURVE",
"141 318 CURVE SMOOTH",
"141 368 LINE SMOOTH",
"141 535 OFFCURVE",
"211 617 OFFCURVE",
"324 617 CURVE SMOOTH",
"418 617 OFFCURVE",
"483 566 OFFCURVE",
"483 452 CURVE",
"573 452 LINE",
"573 618 OFFCURVE",
"467 698 OFFCURVE",
"324 698 CURVE SMOOTH"
);
}
);
width = 638;
},
{
layerId = "72E9C866-9899-4CE7-8B77-ABF2E23FF1EF";
name = Bold;
paths = (
{
closed = 1;
nodes = (
"369 883 LINE",
"271 883 LINE",
"185 748 LINE",
"275 748 LINE",
"320 817 LINE",
"364 748 LINE",
"454 748 LINE"
);
},
{
closed = 1;
nodes = (
"140 698 OFFCURVE",
"34 585 OFFCURVE",
"34 343 CURVE SMOOTH",
"34 99 OFFCURVE",
"131 -12 OFFCURVE",
"299 -12 CURVE SMOOTH",
"371 -12 OFFCURVE",
"438 18 OFFCURVE",
"482 76 CURVE",
"504 0 LINE",
"587 0 LINE",
"587 373 LINE",
"302 373 LINE",
"302 263 LINE",
"510 263 LINE",
"456 311 LINE",
"456 263 LINE",
"456 162 OFFCURVE",
"400 98 OFFCURVE",
"322 98 CURVE SMOOTH",
"215 98 OFFCURVE",
"166 178 OFFCURVE",
"166 318 CURVE SMOOTH",
"166 368 LINE SMOOTH",
"166 505 OFFCURVE",
"214 588 OFFCURVE",
"321 588 CURVE SMOOTH",
"395 588 OFFCURVE",
"456 539 OFFCURVE",
"456 446 CURVE",
"587 446 LINE",
"587 610 OFFCURVE",
"463 698 OFFCURVE",
"325 698 CURVE SMOOTH"
);
}
);
width = 638;
}
);
unicode = 011C;
},
{
glyphname = Gcommaaccent;
lastChange = "2014-07-03 12:03:26 -0700";
layers = (
{
layerId = "D861F68D-CC3D-4754-9BA0-60D90FAB2DB2";
name = Regular;
paths = (
{
closed = 1;
nodes = (
"362 -60 LINE",
"277 -60 LINE",
"277 -151 LINE",
"311 -151 LINE",
"289 -222 LINE",
"333 -222 LINE",
"362 -144 LINE"
);
},
{
closed = 1;
nodes = (
"153 698 OFFCURVE",
"49 581 OFFCURVE",
"49 343 CURVE SMOOTH",
"49 105 OFFCURVE",
"146 -12 OFFCURVE",
"319 -12 CURVE SMOOTH",
"393 -12 OFFCURVE",
"454 14 OFFCURVE",
"496 76 CURVE",
"515 0 LINE",
"573 0 LINE",
"573 357 LINE",
"305 357 LINE",
"305 280 LINE",
"520 280 LINE",
"483 317 LINE",
"483 264 LINE SMOOTH",
"483 133 OFFCURVE",
"433 69 OFFCURVE",
"319 69 CURVE SMOOTH",
"204 69 OFFCURVE",
"141 151 OFFCURVE",
"141 318 CURVE SMOOTH",
"141 368 LINE SMOOTH",
"141 535 OFFCURVE",
"211 617 OFFCURVE",
"324 617 CURVE SMOOTH",
"418 617 OFFCURVE",
"483 566 OFFCURVE",
"483 452 CURVE",
"573 452 LINE",
"573 618 OFFCURVE",
"467 698 OFFCURVE",
"324 698 CURVE SMOOTH"
);
}
);
width = 638;
},
{
layerId = "72E9C866-9899-4CE7-8B77-ABF2E23FF1EF";
name = Bold;
paths = (
{
closed = 1;
nodes = (
"365 -55 LINE",
"242 -55 LINE",
"242 -178 LINE",
"291 -178 LINE",
"255 -263 LINE",
"320 -263 LINE",
"365 -167 LINE"
);
},
{
closed = 1;
nodes = (
"140 698 OFFCURVE",
"34 585 OFFCURVE",
"34 343 CURVE SMOOTH",
"34 99 OFFCURVE",
"131 -12 OFFCURVE",
"299 -12 CURVE SMOOTH",
"371 -12 OFFCURVE",
"438 18 OFFCURVE",
"482 76 CURVE",
"504 0 LINE",
"587 0 LINE",
"587 373 LINE",
"302 373 LINE",
"302 263 LINE",
"510 263 LINE",
"456 311 LINE",
"456 263 LINE",
"456 162 OFFCURVE",
"400 98 OFFCURVE",
"322 98 CURVE SMOOTH",
"215 98 OFFCURVE",
"166 178 OFFCURVE",
"166 318 CURVE SMOOTH",
"166 368 LINE SMOOTH",
"166 505 OFFCURVE",
"214 588 OFFCURVE",
"321 588 CURVE SMOOTH",
"395 588 OFFCURVE",
"456 539 OFFCURVE",
"456 446 CURVE",
"587 446 LINE",
"587 610 OFFCURVE",
"463 698 OFFCURVE",
"325 698 CURVE SMOOTH"
);
}
);
width = 638;
}
);
unicode = 0122;
},
{
glyphname = Gdotaccent;
lastChange = "2014-07-03 12:03:26 -0700";
layers = (
{
layerId = "D861F68D-CC3D-4754-9BA0-60D90FAB2DB2";
name = Regular;
paths = (
{
closed = 1;
nodes = (
"363 883 LINE",
"276 883 LINE",
"276 788 LINE",
"363 788 LINE"
);
},
{
closed = 1;
nodes = (
"153 698 OFFCURVE",
"49 581 OFFCURVE",
"49 343 CURVE SMOOTH",
"49 105 OFFCURVE",
"146 -12 OFFCURVE",
"319 -12 CURVE SMOOTH",
"393 -12 OFFCURVE",
"454 14 OFFCURVE",
"496 76 CURVE",
"515 0 LINE",
"573 0 LINE",
"573 357 LINE",
"305 357 LINE",
"305 280 LINE",
"520 280 LINE",
"483 317 LINE",
"483 264 LINE SMOOTH",
"483 133 OFFCURVE",
"433 69 OFFCURVE",
"319 69 CURVE SMOOTH",
"204 69 OFFCURVE",
"141 151 OFFCURVE",
"141 318 CURVE SMOOTH",
"141 368 LINE SMOOTH",
"141 535 OFFCURVE",
"211 617 OFFCURVE",
"324 617 CURVE SMOOTH",
"418 617 OFFCURVE",
"483 566 OFFCURVE",
"483 452 CURVE",
"573 452 LINE",
"573 618 OFFCURVE",
"467 698 OFFCURVE",
"324 698 CURVE SMOOTH"
);
}
);
width = 638;
},
{
layerId = "72E9C866-9899-4CE7-8B77-ABF2E23FF1EF";
name = Bold;
paths = (
{
closed = 1;
nodes = (
"373 883 LINE",
"266 883 LINE",
"266 768 LINE",
"373 768 LINE"
);
},
{
closed = 1;
nodes = (
"140 698 OFFCURVE",
"34 585 OFFCURVE",
"34 343 CURVE SMOOTH",
"34 99 OFFCURVE",
"131 -12 OFFCURVE",
"299 -12 CURVE SMOOTH",
"371 -12 OFFCURVE",
"438 18 OFFCURVE",
"482 76 CURVE",
"504 0 LINE",
"587 0 LINE",
"587 373 LINE",
"302 373 LINE",
"302 263 LINE",
"510 263 LINE",
"456 311 LINE",
"456 263 LINE",
"456 162 OFFCURVE",
"400 98 OFFCURVE",
"322 98 CURVE SMOOTH",
"215 98 OFFCURVE",
"166 178 OFFCURVE",
"166 318 CURVE SMOOTH",
"166 368 LINE SMOOTH",
"166 505 OFFCURVE",
"214 588 OFFCURVE",
"321 588 CURVE SMOOTH",
"395 588 OFFCURVE",
"456 539 OFFCURVE",
"456 446 CURVE",
"587 446 LINE",
"587 610 OFFCURVE",
"463 698 OFFCURVE",
"325 698 CURVE SMOOTH"
);
}
);
width = 638;
}
);
unicode = 0120;
},
{
glyphname = H;
lastChange = "2014-07-03 12:03:26 -0700";
layers = (
{
anchors = (
{
name = center;
position = "{296, 343}";
},
{
name = top;
position = "{296, 686}";
}
);
layerId = "D861F68D-CC3D-4754-9BA0-60D90FAB2DB2";
name = Regular;
paths = (
{
closed = 1;
nodes = (
"434 686 LINE",
"434 391 LINE",
"158 391 LINE",
"158 686 LINE",
"70 686 LINE",
"70 0 LINE",
"158 0 LINE",
"158 311 LINE",
"434 311 LINE",
"434 0 LINE",
"522 0 LINE",
"522 686 LINE"
);
}
);
width = 592;
},
{
anchors = (
{
name = center;
position = "{296, 343}";
},
{
name = top;
position = "{296, 686}";
}
);
layerId = "72E9C866-9899-4CE7-8B77-ABF2E23FF1EF";
name = Bold;
paths = (
{
closed = 1;
nodes = (
"404 686 LINE",
"404 408 LINE",
"188 408 LINE",
"188 686 LINE",
"60 686 LINE",
"60 0 LINE",
"188 0 LINE",
"188 294 LINE",
"404 294 LINE",
"404 0 LINE",
"532 0 LINE",
"532 686 LINE"
);
}
);
width = 592;
}
);
unicode = 0048;
},
{
glyphname = Hbar;
lastChange = "2014-07-03 12:03:26 -0700";
layers = (
{
layerId = "D861F68D-CC3D-4754-9BA0-60D90FAB2DB2";
name = Regular;
paths = (
{
closed = 1;
nodes = (
"572 562 LINE",
"522 562 LINE",
"522 686 LINE",
"434 686 LINE",
"434 562 LINE",
"158 562 LINE",
"158 686 LINE",
"70 686 LINE",
"70 562 LINE",
"20 562 LINE",
"20 490 LINE",
"70 490 LINE",
"70 0 LINE",
"158 0 LINE",
"158 306 LINE",
"434 306 LINE",
"434 0 LINE",
"522 0 LINE",
"522 490 LINE",
"572 490 LINE"
);
},
{
closed = 1;
nodes = (
"158 386 LINE",
"158 490 LINE",
"434 490 LINE",
"434 386 LINE"
);
}
);
width = 592;
},
{
layerId = "72E9C866-9899-4CE7-8B77-ABF2E23FF1EF";
name = Bold;
paths = (
{
closed = 1;
nodes = (
"582 577 LINE",
"532 577 LINE",
"532 686 LINE",
"404 686 LINE",
"404 577 LINE",
"188 577 LINE",
"188 686 LINE",
"60 686 LINE",
"60 577 LINE",
"10 577 LINE",
"10 490 LINE",
"60 490 LINE",
"60 0 LINE",
"188 0 LINE",
"188 287 LINE",
"404 287 LINE",
"404 0 LINE",
"532 0 LINE",
"532 490 LINE",
"582 490 LINE"
);
},
{
closed = 1;
nodes = (
"188 401 LINE",
"188 490 LINE",
"404 490 LINE",
"404 401 LINE"
);
}
);
width = 592;
}
);
unicode = 0126;
},
{
glyphname = Hcircumflex;
lastChange = "2014-07-03 12:03:26 -0700";
layers = (
{
layerId = "D861F68D-CC3D-4754-9BA0-60D90FAB2DB2";
name = Regular;
paths = (
{
closed = 1;
nodes = (
"434 686 LINE",
"434 391 LINE",
"158 391 LINE",
"158 686 LINE",
"70 686 LINE",
"70 0 LINE",
"158 0 LINE",
"158 311 LINE",
"434 311 LINE",
"434 0 LINE",
"522 0 LINE",
"522 686 LINE"
);
},
{
closed = 1;
nodes = (
"257 882 LINE",
"171 747 LINE",
"251 747 LINE",
"297 826 LINE",
"341 747 LINE",
"421 747 LINE",
"335 882 LINE"
);
}
);
width = 592;
},
{
layerId = "72E9C866-9899-4CE7-8B77-ABF2E23FF1EF";
name = Bold;
paths = (
{
closed = 1;
nodes = (
"404 686 LINE",
"404 408 LINE",
"188 408 LINE",
"188 686 LINE",
"60 686 LINE",
"60 0 LINE",
"188 0 LINE",
"188 294 LINE",
"404 294 LINE",
"404 0 LINE",
"532 0 LINE",
"532 686 LINE"
);
},
{
closed = 1;
nodes = (
"248 883 LINE",
"162 748 LINE",
"251 748 LINE",
"296 817 LINE",
"341 748 LINE",
"431 748 LINE",
"346 883 LINE"
);
}
);
width = 592;
}
);
unicode = 0124;
},
{
glyphname = I;
lastChange = "2014-07-03 12:03:26 -0700";
layers = (
{
anchors = (
{
name = ogonek;
position = "{205, 10}";
},
{
name = top;
position = "{114, 686}";
}
);
layerId = "D861F68D-CC3D-4754-9BA0-60D90FAB2DB2";
name = Regular;
paths = (
{
closed = 1;
nodes = (
"158 686 LINE",
"70 686 LINE",
"70 0 LINE",
"158 0 LINE"
);
}
);
width = 228;
},
{
anchors = (
{
name = ogonek;
position = "{205, 10}";
},
{
name = top;
position = "{114, 686}";
}
);
layerId = "72E9C866-9899-4CE7-8B77-ABF2E23FF1EF";
name = Bold;
paths = (
{
closed = 1;
nodes = (
"178 686 LINE",
"50 686 LINE",
"50 0 LINE",
"178 0 LINE"
);
}
);
width = 228;
}
);
unicode = 0049;
},
{
glyphname = IJ;
lastChange = "2014-07-03 12:03:26 -0700";
layers = (
{
layerId = "D861F68D-CC3D-4754-9BA0-60D90FAB2DB2";
name = Regular;
paths = (
{
closed = 1;
nodes = (
"485 686 LINE",
"485 158 LINE SMOOTH",
"485 100 OFFCURVE",
"457 69 OFFCURVE",
"407 69 CURVE SMOOTH",
"357 69 OFFCURVE",
"329 100 OFFCURVE",
"329 158 CURVE SMOOTH",
"329 208 LINE",
"241 208 LINE",
"241 163 LINE SMOOTH",
"241 49 OFFCURVE",
"302 -12 OFFCURVE",
"407 -12 CURVE SMOOTH",
"512 -12 OFFCURVE",
"573 49 OFFCURVE",
"573 163 CURVE SMOOTH",
"573 686 LINE"
);
},
{
closed = 1;
nodes = (
"70 686 LINE",
"70 0 LINE",
"158 0 LINE",
"158 686 LINE"
);
}
);
width = 638;
},
{
layerId = "72E9C866-9899-4CE7-8B77-ABF2E23FF1EF";
name = Bold;
paths = (
{
closed = 1;
nodes = (
"496 686 LINE",
"496 173 LINE SMOOTH",
"496 125 OFFCURVE",
"474 98 OFFCURVE",
"431 98 CURVE SMOOTH",
"387 98 OFFCURVE",
"364 125 OFFCURVE",
"364 173 CURVE SMOOTH",
"364 216 LINE",
"237 216 LINE",
"237 163 LINE SMOOTH",
"237 49 OFFCURVE",
"307 -12 OFFCURVE",
"431 -12 CURVE SMOOTH",
"555 -12 OFFCURVE",
"624 49 OFFCURVE",
"624 163 CURVE SMOOTH",
"624 686 LINE"
);
},
{
closed = 1;
nodes = (
"50 686 LINE",
"50 0 LINE",
"178 0 LINE",
"178 686 LINE"
);
}
);
width = 684;
}
);
unicode = 0132;
},
{
glyphname = Iacute;
lastChange = "2014-07-03 12:03:26 -0700";
layers = (
{
layerId = "D861F68D-CC3D-4754-9BA0-60D90FAB2DB2";
name = Regular;
paths = (
{
closed = 1;
nodes = (
"70 686 LINE",
"70 0 LINE",
"158 0 LINE",
"158 686 LINE"
);
},
{
closed = 1;
nodes = (
"141 883 LINE",
"55 751 LINE",
"124 751 LINE",
"231 880 LINE",
"230 883 LINE"
);
}
);
width = 228;
},
{
layerId = "72E9C866-9899-4CE7-8B77-ABF2E23FF1EF";
name = Bold;
paths = (
{
closed = 1;
nodes = (
"50 686 LINE",
"50 0 LINE",
"178 0 LINE",
"178 686 LINE"
);
},
{
closed = 1;
nodes = (
"131 883 LINE",
"45 751 LINE",
"145 751 LINE",
"252 880 LINE",
"251 883 LINE"
);
}
);
width = 228;
}
);
unicode = 00CD;
},
{
glyphname = Ibreve;
lastChange = "2014-07-03 12:03:26 -0700";
layers = (
{
layerId = "D861F68D-CC3D-4754-9BA0-60D90FAB2DB2";
name = Regular;
paths = (
{
closed = 1;
nodes = (
"158 686 LINE",
"70 686 LINE",
"70 0 LINE",
"158 0 LINE"
);
},
{
closed = 1;
nodes = (
"174 883 LINE",
"172 869 OFFCURVE",
"148 850 OFFCURVE",
"114 850 CURVE SMOOTH",
"81 850 OFFCURVE",
"58 869 OFFCURVE",
"55 883 CURVE",
"-10 883 LINE",
"-10 838 OFFCURVE",
"38 786 OFFCURVE",
"114 786 CURVE SMOOTH",
"191 786 OFFCURVE",
"238 838 OFFCURVE",
"238 883 CURVE"
);
}
);
width = 228;
},
{
layerId = "72E9C866-9899-4CE7-8B77-ABF2E23FF1EF";
name = Bold;
paths = (
{
closed = 1;
nodes = (
"178 686 LINE",
"50 686 LINE",
"50 0 LINE",
"178 0 LINE"
);
},
{
closed = 1;
nodes = (
"174 883 LINE",
"172 869 OFFCURVE",
"148 850 OFFCURVE",
"114 850 CURVE SMOOTH",
"81 850 OFFCURVE",
"58 869 OFFCURVE",
"55 883 CURVE",
"-20 883 LINE",
"-20 833 OFFCURVE",
"32 776 OFFCURVE",
"114 776 CURVE SMOOTH",
"197 776 OFFCURVE",
"248 833 OFFCURVE",
"248 883 CURVE"
);
}
);
width = 228;
}
);
unicode = 012C;
},
{
glyphname = Icircumflex;
lastChange = "2014-07-03 12:03:26 -0700";
layers = (
{
layerId = "D861F68D-CC3D-4754-9BA0-60D90FAB2DB2";
name = Regular;
paths = (
{
closed = 1;
nodes = (
"158 686 LINE",
"70 686 LINE",
"70 0 LINE",
"158 0 LINE"
);
},
{
closed = 1;
nodes = (
"154 882 LINE",
"76 882 LINE",
"-11 747 LINE",
"70 747 LINE",
"115 826 LINE",
"159 747 LINE",
"239 747 LINE"
);
}
);
width = 228;
},
{
layerId = "72E9C866-9899-4CE7-8B77-ABF2E23FF1EF";
name = Bold;
paths = (
{
closed = 1;
nodes = (
"178 686 LINE",
"50 686 LINE",
"50 0 LINE",
"178 0 LINE"
);
},
{
closed = 1;
nodes = (
"164 883 LINE",
"66 883 LINE",
"-21 748 LINE",
"70 748 LINE",
"115 817 LINE",
"159 748 LINE",
"249 748 LINE"
);
}
);
width = 228;
}
);
unicode = 00CE;
},
{
glyphname = Idieresis;
lastChange = "2014-07-03 12:03:26 -0700";
layers = (
{
layerId = "D861F68D-CC3D-4754-9BA0-60D90FAB2DB2";
name = Regular;
paths = (
{
closed = 1;
nodes = (
"70 686 LINE",
"70 0 LINE",
"158 0 LINE",
"158 686 LINE"
);
},
{
closed = 1;
nodes = (
"-4 883 LINE",
"-4 788 LINE",
"83 788 LINE",
"83 883 LINE"
);
},
{
closed = 1;
nodes = (
"146 883 LINE",
"146 788 LINE",
"233 788 LINE",
"233 883 LINE"
);
}
);
width = 228;
},
{
layerId = "72E9C866-9899-4CE7-8B77-ABF2E23FF1EF";
name = Bold;
paths = (
{
closed = 1;
nodes = (
"50 686 LINE",
"50 0 LINE",
"178 0 LINE",
"178 686 LINE"
);
},
{
closed = 1;
nodes = (
"-23 883 LINE",
"-23 774 LINE",
"77 774 LINE",
"77 883 LINE"
);
},
{
closed = 1;
nodes = (
"152 883 LINE",
"152 774 LINE",
"252 774 LINE",
"252 883 LINE"
);
}
);
width = 228;
}
);
unicode = 00CF;
},
{
glyphname = Idotaccent;
lastChange = "2014-07-03 12:03:26 -0700";
layers = (
{
layerId = "D861F68D-CC3D-4754-9BA0-60D90FAB2DB2";
name = Regular;
paths = (
{
closed = 1;
nodes = (
"158 686 LINE",
"70 686 LINE",
"70 0 LINE",
"158 0 LINE"
);
},
{
closed = 1;
nodes = (
"158 883 LINE",
"71 883 LINE",
"71 788 LINE",
"158 788 LINE"
);
}
);
width = 228;
},
{
layerId = "72E9C866-9899-4CE7-8B77-ABF2E23FF1EF";
name = Bold;
paths = (
{
closed = 1;
nodes = (
"178 686 LINE",
"50 686 LINE",
"50 0 LINE",
"178 0 LINE"
);
},
{
closed = 1;
nodes = (
"168 883 LINE",
"61 883 LINE",
"61 768 LINE",
"168 768 LINE"
);
}
);
width = 228;
}
);
unicode = 0130;
},
{
glyphname = Igrave;
lastChange = "2014-07-03 12:03:26 -0700";
layers = (
{
layerId = "D861F68D-CC3D-4754-9BA0-60D90FAB2DB2";
name = Regular;
paths = (
{
closed = 1;
nodes = (
"70 686 LINE",
"70 0 LINE",
"158 0 LINE",
"158 686 LINE"
);
},
{
closed = 1;
nodes = (
"-2 883 LINE",
"-3 880 LINE",
"105 751 LINE",
"174 751 LINE",
"88 883 LINE"
);
}
);
width = 228;
},
{
layerId = "72E9C866-9899-4CE7-8B77-ABF2E23FF1EF";
name = Bold;
paths = (
{
closed = 1;
nodes = (
"50 686 LINE",
"50 0 LINE",
"178 0 LINE",
"178 686 LINE"
);
},
{
closed = 1;
nodes = (
"-23 883 LINE",
"-24 880 LINE",
"84 751 LINE",
"183 751 LINE",
"97 883 LINE"
);
}
);
width = 228;
}
);
unicode = 00CC;
},
{
glyphname = Imacron;
lastChange = "2014-07-03 12:03:26 -0700";
layers = (
{
layerId = "D861F68D-CC3D-4754-9BA0-60D90FAB2DB2";
name = Regular;
paths = (
{
closed = 1;
nodes = (
"158 686 LINE",
"70 686 LINE",
"70 0 LINE",
"158 0 LINE"
);
},
{
closed = 1;
nodes = (
"240 831 LINE",
"-11 831 LINE",
"-11 759 LINE",
"240 759 LINE"
);
}
);
width = 228;
},
{
layerId = "72E9C866-9899-4CE7-8B77-ABF2E23FF1EF";
name = Bold;
paths = (
{
closed = 1;
nodes = (
"178 686 LINE",
"50 686 LINE",
"50 0 LINE",
"178 0 LINE"
);
},
{
closed = 1;
nodes = (
"242 846 LINE",
"-14 846 LINE",
"-14 759 LINE",
"242 759 LINE"
);
}
);
width = 228;
}
);
unicode = 012A;
},
{
glyphname = Iogonek;
lastChange = "2014-07-03 12:03:26 -0700";
layers = (
{
layerId = "D861F68D-CC3D-4754-9BA0-60D90FAB2DB2";
name = Regular;
paths = (
{
closed = 1;
nodes = (
"70 686 LINE",
"70 0 LINE",
"93.2463 0 LINE",
"72.3619 -23 OFFCURVE",
"55.9999 -49 OFFCURVE",
"55.9999 -92 CURVE SMOOTH",
"55.9999 -161 OFFCURVE",
"108 -182 OFFCURVE",
"151 -182 CURVE SMOOTH",
"171 -182 OFFCURVE",
"191 -177 OFFCURVE",
"212 -168 CURVE",
"212 -117 LINE",
"180 -117 LINE SMOOTH",
"147 -117 OFFCURVE",
"134 -90 OFFCURVE",
"134 -62 CURVE SMOOTH",
"134 -34 OFFCURVE",
"148 -15 OFFCURVE",
"158 0 CURVE",
"158 686 LINE"
);
}
);
width = 228;
},
{
layerId = "72E9C866-9899-4CE7-8B77-ABF2E23FF1EF";
name = Bold;
paths = (
{
closed = 1;
nodes = (
"50 686 LINE",
"50 0 LINE",
"94 0 LINE",
"70 -25 OFFCURVE",
"50 -53 OFFCURVE",
"50 -100 CURVE SMOOTH",
"50 -169 OFFCURVE",
"104 -190 OFFCURVE",
"149 -190 CURVE SMOOTH",
"171 -190 OFFCURVE",
"192 -185 OFFCURVE",
"215 -176 CURVE",
"215 -121 LINE",
"193 -121 LINE SMOOTH",
"160 -121 OFFCURVE",
"148 -96 OFFCURVE",
"148 -70 CURVE SMOOTH",
"148 -42 OFFCURVE",
"167 -14 OFFCURVE",
"178 0 CURVE",
"178 686 LINE"
);
}
);
width = 228;
}
);
unicode = 012E;
},
{
glyphname = Itilde;
lastChange = "2014-07-03 12:03:26 -0700";
layers = (
{
layerId = "D861F68D-CC3D-4754-9BA0-60D90FAB2DB2";
name = Regular;
paths = (
{
closed = 1;
nodes = (
"158 686 LINE",
"70 686 LINE",
"70 0 LINE",
"158 0 LINE"
);
},
{
closed = 1;
nodes = (
"202 883 LINE",
"199 860 OFFCURVE",
"186 853 OFFCURVE",
"168 853 CURVE SMOOTH",
"129 853 OFFCURVE",
"96 883 OFFCURVE",
"53 883 CURVE SMOOTH",
"-7 883 OFFCURVE",
"-32 825 OFFCURVE",
"-32 779 CURVE",
"26 779 LINE",
"29 802 OFFCURVE",
"42 810 OFFCURVE",
"60 810 CURVE SMOOTH",
"99 810 OFFCURVE",
"132 779 OFFCURVE",
"175 779 CURVE SMOOTH",
"235 779 OFFCURVE",
"260 837 OFFCURVE",
"260 883 CURVE"
);
}
);
width = 228;
},
{
layerId = "72E9C866-9899-4CE7-8B77-ABF2E23FF1EF";
name = Bold;
paths = (
{
closed = 1;
nodes = (
"178 686 LINE",
"50 686 LINE",
"50 0 LINE",
"178 0 LINE"
);
},
{
closed = 1;
nodes = (
"216 883 LINE",
"212 855 OFFCURVE",
"199 846 OFFCURVE",
"178 846 CURVE SMOOTH",
"132 846 OFFCURVE",
"94 883 OFFCURVE",
"44 883 CURVE SMOOTH",
"-26 883 OFFCURVE",
"-54 816 OFFCURVE",
"-54 761 CURVE",
"13 761 LINE",
"17 788 OFFCURVE",
"30 798 OFFCURVE",
"52 798 CURVE SMOOTH",
"97 798 OFFCURVE",
"136 761 OFFCURVE",
"184 761 CURVE SMOOTH",
"254 761 OFFCURVE",
"283 828 OFFCURVE",
"283 883 CURVE"
);
}
);
width = 228;
}
);
unicode = 0128;
},
{
glyphname = J;
lastChange = "2014-07-03 12:03:26 -0700";
layers = (
{
anchors = (
{
name = top;
position = "{205, 686}";
}
);
layerId = "D861F68D-CC3D-4754-9BA0-60D90FAB2DB2";
name = Regular;
paths = (
{
closed = 1;
nodes = (
"257 686 LINE",
"257 158 LINE SMOOTH",
"257 100 OFFCURVE",
"229 69 OFFCURVE",
"179 69 CURVE SMOOTH",
"129 69 OFFCURVE",
"101 100 OFFCURVE",
"101 158 CURVE SMOOTH",
"101 208 LINE",
"13 208 LINE",
"13 163 LINE SMOOTH",
"13 49 OFFCURVE",
"74 -12 OFFCURVE",
"179 -12 CURVE SMOOTH",
"284 -12 OFFCURVE",
"345 49 OFFCURVE",
"345 163 CURVE SMOOTH",
"345 686 LINE"
);
}
);
width = 410;
},
{
anchors = (
{
name = top;
position = "{228, 686}";
}
);
layerId = "72E9C866-9899-4CE7-8B77-ABF2E23FF1EF";
name = Bold;
paths = (
{
closed = 1;
nodes = (
"268 686 LINE",
"268 173 LINE SMOOTH",
"268 125 OFFCURVE",
"246 98 OFFCURVE",
"203 98 CURVE SMOOTH",
"159 98 OFFCURVE",
"136 125 OFFCURVE",
"136 173 CURVE SMOOTH",
"136 216 LINE",
"9 216 LINE",
"9 163 LINE SMOOTH",
"9 49 OFFCURVE",
"79 -12 OFFCURVE",
"203 -12 CURVE SMOOTH",
"327 -12 OFFCURVE",
"396 49 OFFCURVE",
"396 163 CURVE SMOOTH",
"396 686 LINE"
);
}
);
width = 456;
}
);
unicode = 004A;
},
{
glyphname = Jcircumflex;
lastChange = "2014-07-03 12:03:26 -0700";
layers = (
{
layerId = "D861F68D-CC3D-4754-9BA0-60D90FAB2DB2";
name = Regular;
paths = (
{
closed = 1;
nodes = (
"257 686 LINE",
"257 158 LINE SMOOTH",
"257 100 OFFCURVE",
"229 69 OFFCURVE",
"179 69 CURVE SMOOTH",
"129 69 OFFCURVE",
"101 100 OFFCURVE",
"101 158 CURVE SMOOTH",
"101 208 LINE",
"13 208 LINE",
"13 163 LINE SMOOTH",
"13 49 OFFCURVE",
"74 -12 OFFCURVE",
"179 -12 CURVE SMOOTH",
"284 -12 OFFCURVE",
"345 49 OFFCURVE",
"345 163 CURVE SMOOTH",
"345 686 LINE"
);
},
{
closed = 1;
nodes = (
"263 882 LINE",
"177 747 LINE",
"257 747 LINE",
"303 826 LINE",
"347 747 LINE",
"427 747 LINE",
"341 882 LINE"
);
}
);
width = 410;
},
{
layerId = "72E9C866-9899-4CE7-8B77-ABF2E23FF1EF";
name = Bold;
paths = (
{
closed = 1;
nodes = (
"268 686 LINE",
"268 173 LINE SMOOTH",
"268 125 OFFCURVE",
"246 98 OFFCURVE",
"203 98 CURVE SMOOTH",
"159 98 OFFCURVE",
"136 125 OFFCURVE",
"136 173 CURVE SMOOTH",
"136 216 LINE",
"9 216 LINE",
"9 163 LINE SMOOTH",
"9 49 OFFCURVE",
"79 -12 OFFCURVE",
"203 -12 CURVE SMOOTH",
"327 -12 OFFCURVE",
"396 49 OFFCURVE",
"396 163 CURVE SMOOTH",
"396 686 LINE"
);
},
{
closed = 1;
nodes = (
"296 883 LINE",
"210 748 LINE",
"300 748 LINE",
"345 817 LINE",
"390 748 LINE",
"479 748 LINE",
"395 883 LINE"
);
}
);
width = 456;
}
);
unicode = 0134;
},
{
glyphname = K;
lastChange = "2014-07-03 12:03:26 -0700";
layers = (
{
anchors = (
{
name = bottom;
position = "{274, 0}";
},
{
name = top;
position = "{274, 686}";
}
);
layerId = "D861F68D-CC3D-4754-9BA0-60D90FAB2DB2";
name = Regular;
paths = (
{
closed = 1;
nodes = (
"158 686 LINE",
"70 686 LINE",
"70 0 LINE",
"158 0 LINE",
"158 213 LINE",
"268 335 LINE",
"435 0 LINE",
"535 0 LINE",
"322 409 LINE",
"528 686 LINE",
"430 686 LINE",
"158 323 LINE"
);
}
);
width = 547;
},
{
anchors = (
{
name = bottom;
position = "{296, 0}";
},
{
name = top;
position = "{296, 686}";
}
);
layerId = "72E9C866-9899-4CE7-8B77-ABF2E23FF1EF";
name = Bold;
paths = (
{
closed = 1;
nodes = (
"189 686 LINE",
"60 686 LINE",
"60 0 LINE",
"189 0 LINE",
"189 175 LINE",
"296 306 LINE",
"445 0 LINE",
"589 0 LINE",
"380 407 LINE",
"583 686 LINE",
"440 686 LINE",
"189 335 LINE"
);
}
);
width = 592;
}
);
unicode = 004B;
},
{
glyphname = Kcommaaccent;
lastChange = "2014-07-03 12:03:26 -0700";
layers = (
{
layerId = "D861F68D-CC3D-4754-9BA0-60D90FAB2DB2";
name = Regular;
paths = (
{
closed = 1;
nodes = (
"316 -60 LINE",
"231 -60 LINE",
"231 -151 LINE",
"265 -151 LINE",
"243 -222 LINE",
"287 -222 LINE",
"316 -144 LINE"
);
},
{
closed = 1;
nodes = (
"158 686 LINE",
"70 686 LINE",
"70 0 LINE",
"158 0 LINE",
"158 213 LINE",
"268 335 LINE",
"435 0 LINE",
"535 0 LINE",
"322 409 LINE",
"528 686 LINE",
"430 686 LINE",
"158 323 LINE"
);
}
);
width = 547;
},
{
layerId = "72E9C866-9899-4CE7-8B77-ABF2E23FF1EF";
name = Bold;
paths = (
{
closed = 1;
nodes = (
"358 -55 LINE",
"234 -55 LINE",
"234 -178 LINE",
"283 -178 LINE",
"248 -263 LINE",
"312 -263 LINE",
"358 -167 LINE"
);
},
{
closed = 1;
nodes = (
"189 686 LINE",
"60 686 LINE",
"60 0 LINE",
"189 0 LINE",
"189 175 LINE",
"296 306 LINE",
"445 0 LINE",
"589 0 LINE",
"380 407 LINE",
"583 686 LINE",
"440 686 LINE",
"189 335 LINE"
);
}
);
width = 592;
}
);
unicode = 0136;
},
{
glyphname = L;
lastChange = "2014-07-03 12:03:26 -0700";
layers = (
{
anchors = (
{
name = bottom;
position = "{228, 0}";
},
{
name = top;
position = "{228, 686}";
}
);
layerId = "D861F68D-CC3D-4754-9BA0-60D90FAB2DB2";
name = Regular;
paths = (
{
closed = 1;
nodes = (
"70 686 LINE",
"70 0 LINE",
"438 0 LINE",
"438 80 LINE",
"158 80 LINE",
"158 686 LINE"
);
}
);
width = 456;
},
{
anchors = (
{
name = bottom;
position = "{251, 0}";
},
{
name = top;
position = "{251, 686}";
}
);
layerId = "72E9C866-9899-4CE7-8B77-ABF2E23FF1EF";
name = Bold;
paths = (
{
closed = 1;
nodes = (
"60 686 LINE",
"60 0 LINE",
"478 0 LINE",
"478 120 LINE",
"188 120 LINE",
"188 686 LINE"
);
}
);
width = 501;
}
);
unicode = 004C;
},
{
glyphname = Lacute;
lastChange = "2014-07-03 12:03:26 -0700";
layers = (
{
layerId = "D861F68D-CC3D-4754-9BA0-60D90FAB2DB2";
name = Regular;
paths = (
{
closed = 1;
nodes = (
"70 686 LINE",
"70 0 LINE",
"438 0 LINE",
"438 80 LINE",
"158 80 LINE",
"158 686 LINE"
);
},
{
closed = 1;
nodes = (
"137 883 LINE",
"51 751 LINE",
"121 751 LINE",
"228 880 LINE",
"227 883 LINE"
);
}
);
width = 456;
},
{
layerId = "72E9C866-9899-4CE7-8B77-ABF2E23FF1EF";
name = Bold;
paths = (
{
closed = 1;
nodes = (
"60 686 LINE",
"60 0 LINE",
"478 0 LINE",
"478 120 LINE",
"188 120 LINE",
"188 686 LINE"
);
},
{
closed = 1;
nodes = (
"144 883 LINE",
"58 751 LINE",
"157 751 LINE",
"265 880 LINE",
"264 883 LINE"
);
}
);
width = 501;
}
);
unicode = 0139;
},
{
glyphname = Lcaron;
lastChange = "2014-07-03 12:03:26 -0700";
layers = (
{
layerId = "D861F68D-CC3D-4754-9BA0-60D90FAB2DB2";
name = Regular;
paths = (
{
closed = 1;
nodes = (
"70 686 LINE",
"70 0 LINE",
"438 0 LINE",
"438 80 LINE",
"158 80 LINE",
"158 686 LINE"
);
},
{
closed = 1;
nodes = (
"319 686 LINE",
"319 578 LINE",
"359 578 LINE",
"319 454 LINE",
"371 454 LINE",
"419 587 LINE",
"419 686 LINE"
);
}
);
width = 456;
},
{
layerId = "72E9C866-9899-4CE7-8B77-ABF2E23FF1EF";
name = Bold;
paths = (
{
closed = 1;
nodes = (
"60 686 LINE",
"60 0 LINE",
"478 0 LINE",
"478 120 LINE",
"188 120 LINE",
"188 686 LINE"
);
},
{
closed = 1;
nodes = (
"340 686 LINE",
"340 549 LINE",
"395 549 LINE",
"340 393 LINE",
"412 393 LINE",
"478 561 LINE",
"478 686 LINE"
);
}
);
width = 501;
}
);
unicode = 013D;
},
{
glyphname = Lcommaaccent;
lastChange = "2014-07-03 12:03:26 -0700";
layers = (
{
layerId = "D861F68D-CC3D-4754-9BA0-60D90FAB2DB2";
name = Regular;
paths = (
{
closed = 1;
nodes = (
"70 686 LINE",
"70 0 LINE",
"438 0 LINE",
"438 80 LINE",
"158 80 LINE",
"158 686 LINE"
);
},
{
closed = 1;
nodes = (
"186 -60 LINE",
"186 -151 LINE",
"220 -151 LINE",
"197 -222 LINE",
"242 -222 LINE",
"271 -144 LINE",
"271 -60 LINE"
);
}
);
width = 456;
},
{
layerId = "72E9C866-9899-4CE7-8B77-ABF2E23FF1EF";
name = Bold;
paths = (
{
closed = 1;
nodes = (
"60 686 LINE",
"60 0 LINE",
"478 0 LINE",
"478 120 LINE",
"188 120 LINE",
"188 686 LINE"
);
},
{
closed = 1;
nodes = (
"189 -55 LINE",
"189 -178 LINE",
"238 -178 LINE",
"202 -263 LINE",
"267 -263 LINE",
"312 -167 LINE",
"312 -55 LINE"
);
}
);
width = 501;
}
);
unicode = 013B;
},
{
glyphname = Ldot;
lastChange = "2014-07-03 12:03:26 -0700";
layers = (
{
layerId = "D861F68D-CC3D-4754-9BA0-60D90FAB2DB2";
name = Regular;
paths = (
{
closed = 1;
nodes = (
"70 686 LINE",
"70 0 LINE",
"438 0 LINE",
"438 80 LINE",
"158 80 LINE",
"158 686 LINE"
);
},
{
closed = 1;
nodes = (
"295 525 LINE",
"295 414 LINE",
"396 414 LINE",
"396 525 LINE"
);
}
);
width = 456;
},
{
layerId = "72E9C866-9899-4CE7-8B77-ABF2E23FF1EF";
name = Bold;
paths = (
{
closed = 1;
nodes = (
"60 686 LINE",
"60 0 LINE",
"478 0 LINE",
"478 120 LINE",
"188 120 LINE",
"188 686 LINE"
);
},
{
closed = 1;
nodes = (
"313 524 LINE",
"313 409 LINE",
"420 409 LINE",
"420 524 LINE"
);
}
);
width = 501;
}
);
unicode = 013F;
},
{
glyphname = Lslash;
lastChange = "2014-07-03 12:03:26 -0700";
layers = (
{
layerId = "D861F68D-CC3D-4754-9BA0-60D90FAB2DB2";
name = Regular;
paths = (
{
closed = 1;
nodes = (
"70 686 LINE",
"70 317 LINE",
"0 255 LINE",
"0 184 LINE",
"70 245 LINE",
"70 0 LINE",
"438 0 LINE",
"438 80 LINE",
"158 80 LINE",
"158 323 LINE",
"295 444 LINE",
"295 517 LINE",
"158 395 LINE",
"158 686 LINE"
);
}
);
width = 456;
},
{
layerId = "72E9C866-9899-4CE7-8B77-ABF2E23FF1EF";
name = Bold;
paths = (
{
closed = 1;
nodes = (
"60 686 LINE",
"60 332 LINE",
"0 279 LINE",
"0 184 LINE",
"60 237 LINE",
"60 0 LINE",
"478 0 LINE",
"478 120 LINE",
"188 120 LINE",
"188 350 LINE",
"304 453 LINE",
"304 550 LINE",
"188 446 LINE",
"188 686 LINE"
);
}
);
width = 501;
}
);
unicode = 0141;
},
{
glyphname = M;
lastChange = "2014-07-03 12:03:26 -0700";
layers = (
{
layerId = "D861F68D-CC3D-4754-9BA0-60D90FAB2DB2";
name = Regular;
paths = (
{
closed = 1;
nodes = (
"488 686 LINE",
"366 236 LINE SMOOTH",
"353 188 OFFCURVE",
"344 82 OFFCURVE",
"344 82 CURVE SMOOTH",
"340 82 LINE SMOOTH",
"340 82 OFFCURVE",
"330 186 OFFCURVE",
"317 236 CURVE SMOOTH",
"196 686 LINE",
"62 686 LINE",
"62 0 LINE",
"141 0 LINE",
"141 498 LINE SMOOTH",
"141 518 OFFCURVE",
"135 604 OFFCURVE",
"135 604 CURVE",
"139 604 LINE",
"146 569 OFFCURVE",
"151 532 OFFCURVE",
"160 498 CURVE SMOOTH",
"297 0 LINE",
"376 0 LINE",
"513 498 LINE SMOOTH",
"523 533 OFFCURVE",
"528 569 OFFCURVE",
"536 604 CURVE",
"540 604 LINE",
"540 604 OFFCURVE",
"533 522 OFFCURVE",
"533 498 CURVE SMOOTH",
"533 0 LINE",
"621 0 LINE",
"621 686 LINE"
);
}
);
width = 683;
},
{
layerId = "72E9C866-9899-4CE7-8B77-ABF2E23FF1EF";
name = Bold;
paths = (
{
closed = 1;
nodes = (
"456 686 LINE",
"372 308 LINE SMOOTH",
"363 268 OFFCURVE",
"349 153 OFFCURVE",
"349 153 CURVE SMOOTH",
"345 153 LINE SMOOTH",
"345 153 OFFCURVE",
"328 263 OFFCURVE",
"318 308 CURVE SMOOTH",
"233 686 LINE",
"53 686 LINE",
"53 0 LINE",
"162 0 LINE",
"162 437 LINE SMOOTH",
"162 464 OFFCURVE",
"157 547 OFFCURVE",
"157 547 CURVE",
"161 547 LINE",
"169 511 OFFCURVE",
"177 476 OFFCURVE",
"185 440 CURVE",
"282 0 LINE",
"393 0 LINE",
"496 470 LINE",
"502 496 OFFCURVE",
"507 521 OFFCURVE",
"513 547 CURVE",
"517 547 LINE",
"517 547 OFFCURVE",
"512 468 OFFCURVE",
"512 437 CURVE SMOOTH",
"512 0 LINE",
"630 0 LINE",
"630 686 LINE"
);
}
);
width = 683;
}
);
unicode = 004D;
},
{
glyphname = N;
lastChange = "2014-07-03 12:03:26 -0700";
layers = (
{
anchors = (
{
name = bottom;
position = "{296, 0}";
},
{
name = top;
position = "{296, 686}";
}
);
layerId = "D861F68D-CC3D-4754-9BA0-60D90FAB2DB2";
name = Regular;
paths = (
{
closed = 1;
nodes = (
"443 686 LINE",
"443 255 LINE SMOOTH",
"443 233 OFFCURVE",
"446 164 OFFCURVE",
"446 164 CURVE",
"443 163 LINE",
"443 163 OFFCURVE",
"416 229 OFFCURVE",
"401 255 CURVE SMOOTH",
"146 686 LINE",
"70 686 LINE",
"70 0 LINE",
"149 0 LINE",
"149 437 LINE SMOOTH",
"149 465 OFFCURVE",
"145 528 OFFCURVE",
"145 528 CURVE",
"148 529 LINE",
"148 529 OFFCURVE",
"175 466 OFFCURVE",
"192 437 CURVE SMOOTH",
"449 0 LINE",
"522 0 LINE",
"522 686 LINE"
);
}
);
width = 592;
},
{
anchors = (
{
name = bottom;
position = "{296, 0}";
},
{
name = top;
position = "{296, 686}";
}
);
layerId = "72E9C866-9899-4CE7-8B77-ABF2E23FF1EF";
name = Bold;
paths = (
{
closed = 1;
nodes = (
"418 686 LINE",
"418 304 LINE SMOOTH",
"418 293 OFFCURVE",
"419 247 OFFCURVE",
"419 247 CURVE",
"416 244 LINE",
"416 244 OFFCURVE",
"396 291 OFFCURVE",
"385 308 CURVE",
"173 686 LINE",
"60 686 LINE",
"60 0 LINE",
"173 0 LINE",
"173 382 LINE SMOOTH",
"173 400 OFFCURVE",
"171 439 OFFCURVE",
"171 439 CURVE",
"175 442 LINE",
"175 442 OFFCURVE",
"198 392 OFFCURVE",
"206 378 CURVE SMOOTH",
"418 0 LINE",
"532 0 LINE",
"532 686 LINE"
);
}
);
width = 592;
}
);
unicode = 004E;
},
{
glyphname = Nacute;
lastChange = "2014-07-03 12:03:26 -0700";
layers = (
{
layerId = "D861F68D-CC3D-4754-9BA0-60D90FAB2DB2";
name = Regular;
paths = (
{
closed = 1;
nodes = (
"443 686 LINE",
"443 255 LINE SMOOTH",
"443 233 OFFCURVE",
"446 164 OFFCURVE",
"446 164 CURVE",
"443 163 LINE",
"443 163 OFFCURVE",
"416 229 OFFCURVE",
"401 255 CURVE SMOOTH",
"146 686 LINE",
"70 686 LINE",
"70 0 LINE",
"149 0 LINE",
"149 437 LINE SMOOTH",
"149 465 OFFCURVE",
"145 528 OFFCURVE",
"145 528 CURVE",
"148 529 LINE",
"148 529 OFFCURVE",
"175 466 OFFCURVE",
"192 437 CURVE SMOOTH",
"449 0 LINE",
"522 0 LINE",
"522 686 LINE"
);
},
{
closed = 1;
nodes = (
"322 883 LINE",
"236 751 LINE",
"306 751 LINE",
"413 880 LINE",
"412 883 LINE"
);
}
);
width = 592;
},
{
layerId = "72E9C866-9899-4CE7-8B77-ABF2E23FF1EF";
name = Bold;
paths = (
{
closed = 1;
nodes = (
"418 686 LINE",
"418 304 LINE SMOOTH",
"418 293 OFFCURVE",
"419 247 OFFCURVE",
"419 247 CURVE",
"416 244 LINE",
"416 244 OFFCURVE",
"396 291 OFFCURVE",
"385 308 CURVE",
"173 686 LINE",
"60 686 LINE",
"60 0 LINE",
"173 0 LINE",
"173 382 LINE SMOOTH",
"173 400 OFFCURVE",
"171 439 OFFCURVE",
"171 439 CURVE",
"175 442 LINE",
"175 442 OFFCURVE",
"198 392 OFFCURVE",
"206 378 CURVE SMOOTH",
"418 0 LINE",
"532 0 LINE",
"532 686 LINE"
);
},
{
closed = 1;
nodes = (
"313 883 LINE",
"227 751 LINE",
"326 751 LINE",
"434 880 LINE",
"433 883 LINE"
);
}
);
width = 592;
}
);
unicode = 0143;
},
{
glyphname = Ncaron;
lastChange = "2014-07-03 12:03:26 -0700";
layers = (
{
layerId = "D861F68D-CC3D-4754-9BA0-60D90FAB2DB2";
name = Regular;
paths = (
{
closed = 1;
nodes = (
"443 686 LINE",
"443 255 LINE SMOOTH",
"443 233 OFFCURVE",
"446 164 OFFCURVE",
"446 164 CURVE",
"443 163 LINE",
"443 163 OFFCURVE",
"416 229 OFFCURVE",
"401 255 CURVE SMOOTH",
"146 686 LINE",
"70 686 LINE",
"70 0 LINE",
"149 0 LINE",
"149 437 LINE SMOOTH",
"149 465 OFFCURVE",
"145 528 OFFCURVE",
"145 528 CURVE",
"148 529 LINE",
"148 529 OFFCURVE",
"175 466 OFFCURVE",
"192 437 CURVE SMOOTH",
"449 0 LINE",
"522 0 LINE",
"522 686 LINE"
);
},
{
closed = 1;
nodes = (
"341 883 LINE",
"296 804 LINE",
"251 883 LINE",
"171 883 LINE",
"256 748 LINE",
"334 748 LINE",
"421 883 LINE"
);
}
);
width = 592;
},
{
layerId = "72E9C866-9899-4CE7-8B77-ABF2E23FF1EF";
name = Bold;
paths = (
{
closed = 1;
nodes = (
"418 686 LINE",
"418 304 LINE SMOOTH",
"418 293 OFFCURVE",
"419 247 OFFCURVE",
"419 247 CURVE",
"416 244 LINE",
"416 244 OFFCURVE",
"396 291 OFFCURVE",
"385 308 CURVE",
"173 686 LINE",
"60 686 LINE",
"60 0 LINE",
"173 0 LINE",
"173 382 LINE SMOOTH",
"173 400 OFFCURVE",
"171 439 OFFCURVE",
"171 439 CURVE",
"175 442 LINE",
"175 442 OFFCURVE",
"198 392 OFFCURVE",
"206 378 CURVE SMOOTH",
"418 0 LINE",
"532 0 LINE",
"532 686 LINE"
);
},
{
closed = 1;
nodes = (
"341 883 LINE",
"296 814 LINE",
"251 883 LINE",
"162 883 LINE",
"248 748 LINE",
"346 748 LINE",
"431 883 LINE"
);
}
);
width = 592;
}
);
unicode = 0147;
},
{
glyphname = Ncommaaccent;
lastChange = "2014-07-03 12:03:26 -0700";
layers = (
{
layerId = "D861F68D-CC3D-4754-9BA0-60D90FAB2DB2";
name = Regular;
paths = (
{
closed = 1;
nodes = (
"443 686 LINE",
"443 255 LINE SMOOTH",
"443 233 OFFCURVE",
"446 164 OFFCURVE",
"446 164 CURVE",
"443 163 LINE",
"443 163 OFFCURVE",
"416 229 OFFCURVE",
"401 255 CURVE SMOOTH",
"146 686 LINE",
"70 686 LINE",
"70 0 LINE",
"149 0 LINE",
"149 437 LINE SMOOTH",
"149 465 OFFCURVE",
"145 528 OFFCURVE",
"145 528 CURVE",
"148 529 LINE",
"148 529 OFFCURVE",
"175 466 OFFCURVE",
"192 437 CURVE SMOOTH",
"449 0 LINE",
"522 0 LINE",
"522 686 LINE"
);
},
{
closed = 1;
nodes = (
"253 -60 LINE",
"253 -151 LINE",
"288 -151 LINE",
"265 -222 LINE",
"310 -222 LINE",
"339 -144 LINE",
"339 -60 LINE"
);
}
);
width = 592;
},
{
layerId = "72E9C866-9899-4CE7-8B77-ABF2E23FF1EF";
name = Bold;
paths = (
{
closed = 1;
nodes = (
"418 686 LINE",
"418 304 LINE SMOOTH",
"418 293 OFFCURVE",
"419 247 OFFCURVE",
"419 247 CURVE",
"416 244 LINE",
"416 244 OFFCURVE",
"396 291 OFFCURVE",
"385 308 CURVE",
"173 686 LINE",
"60 686 LINE",
"60 0 LINE",
"173 0 LINE",
"173 382 LINE SMOOTH",
"173 400 OFFCURVE",
"171 439 OFFCURVE",
"171 439 CURVE",
"175 442 LINE",
"175 442 OFFCURVE",
"198 392 OFFCURVE",
"206 378 CURVE SMOOTH",
"418 0 LINE",
"532 0 LINE",
"532 686 LINE"
);
},
{
closed = 1;
nodes = (
"234 -55 LINE",
"234 -178 LINE",
"283 -178 LINE",
"248 -263 LINE",
"312 -263 LINE",
"358 -167 LINE",
"358 -55 LINE"
);
}
);
width = 592;
}
);
unicode = 0145;
},
{
glyphname = Eng;
lastChange = "2014-07-03 12:03:26 -0700";
layers = (
{
layerId = "D861F68D-CC3D-4754-9BA0-60D90FAB2DB2";
name = Regular;
paths = (
{
closed = 1;
nodes = (
"440 686 LINE",
"443 255 LINE SMOOTH",
"443 233 OFFCURVE",
"446 164 OFFCURVE",
"446 164 CURVE",
"443 163 LINE",
"443 163 OFFCURVE",
"416 229 OFFCURVE",
"401 255 CURVE SMOOTH",
"146 686 LINE",
"70 686 LINE",
"70 0 LINE",
"149 0 LINE",
"149 437 LINE SMOOTH",
"149 465 OFFCURVE",
"145 528 OFFCURVE",
"145 528 CURVE",
"148 529 LINE",
"148 529 OFFCURVE",
"175 466 OFFCURVE",
"192 437 CURVE SMOOTH",
"440 15 LINE",
"440 -65 LINE SMOOTH",
"440 -96 OFFCURVE",
"424 -113 OFFCURVE",
"393 -113 CURVE SMOOTH",
"349 -113 LINE",
"349 -170 LINE",
"366 -176 OFFCURVE",
"394 -182 OFFCURVE",
"418 -182 CURVE SMOOTH",
"498 -182 OFFCURVE",
"522 -121 OFFCURVE",
"522 -61 CURVE SMOOTH",
"522 686 LINE"
);
}
);
width = 592;
},
{
layerId = "72E9C866-9899-4CE7-8B77-ABF2E23FF1EF";
name = Bold;
paths = (
{
closed = 1;
nodes = (
"418 686 LINE",
"418 304 LINE SMOOTH",
"418 293 OFFCURVE",
"419 247 OFFCURVE",
"419 247 CURVE",
"416 244 LINE",
"416 244 OFFCURVE",
"396 291 OFFCURVE",
"385 308 CURVE",
"173 686 LINE",
"60 686 LINE",
"60 0 LINE",
"173 0 LINE",
"173 382 LINE SMOOTH",
"173 400 OFFCURVE",
"171 439 OFFCURVE",
"171 439 CURVE",
"175 442 LINE",
"175 442 OFFCURVE",
"198 392 OFFCURVE",
"206 378 CURVE SMOOTH",
"415 0 LINE",
"415 -33 LINE SMOOTH",
"415 -64 OFFCURVE",
"399 -81 OFFCURVE",
"368 -81 CURVE SMOOTH",
"323 -81 LINE",
"323 -170 LINE",
"344 -176 OFFCURVE",
"380 -182 OFFCURVE",
"410 -182 CURVE SMOOTH",
"506 -182 OFFCURVE",
"532 -111 OFFCURVE",
"532 -41 CURVE SMOOTH",
"532 686 LINE"
);
}
);
width = 593;
}
);
unicode = 014A;
},
{
glyphname = Ntilde;
lastChange = "2014-07-03 12:03:26 -0700";
layers = (
{
layerId = "D861F68D-CC3D-4754-9BA0-60D90FAB2DB2";
name = Regular;
paths = (
{
closed = 1;
nodes = (
"443 686 LINE",
"443 255 LINE SMOOTH",
"443 233 OFFCURVE",
"446 164 OFFCURVE",
"446 164 CURVE",
"443 163 LINE",
"443 163 OFFCURVE",
"416 229 OFFCURVE",
"401 255 CURVE SMOOTH",
"146 686 LINE",
"70 686 LINE",
"70 0 LINE",
"149 0 LINE",
"149 437 LINE SMOOTH",
"149 465 OFFCURVE",
"145 528 OFFCURVE",
"145 528 CURVE",
"148 529 LINE",
"148 529 OFFCURVE",
"175 466 OFFCURVE",
"192 437 CURVE SMOOTH",
"449 0 LINE",
"522 0 LINE",
"522 686 LINE"
);
},
{
closed = 1;
nodes = (
"384 883 LINE",
"381 860 OFFCURVE",
"368 853 OFFCURVE",
"350 853 CURVE SMOOTH",
"311 853 OFFCURVE",
"278 883 OFFCURVE",
"235 883 CURVE SMOOTH",
"175 883 OFFCURVE",
"150 825 OFFCURVE",
"150 779 CURVE",
"208 779 LINE",
"211 802 OFFCURVE",
"224 810 OFFCURVE",
"242 810 CURVE SMOOTH",
"281 810 OFFCURVE",
"313 779 OFFCURVE",
"357 779 CURVE SMOOTH",
"417 779 OFFCURVE",
"442 837 OFFCURVE",
"442 883 CURVE"
);
}
);
width = 592;
},
{
layerId = "72E9C866-9899-4CE7-8B77-ABF2E23FF1EF";
name = Bold;
paths = (
{
closed = 1;
nodes = (
"418 686 LINE",
"418 304 LINE SMOOTH",
"418 293 OFFCURVE",
"419 247 OFFCURVE",
"419 247 CURVE",
"416 244 LINE",
"416 244 OFFCURVE",
"396 291 OFFCURVE",
"385 308 CURVE",
"173 686 LINE",
"60 686 LINE",
"60 0 LINE",
"173 0 LINE",
"173 382 LINE SMOOTH",
"173 400 OFFCURVE",
"171 439 OFFCURVE",
"171 439 CURVE",
"175 442 LINE",
"175 442 OFFCURVE",
"198 392 OFFCURVE",
"206 378 CURVE SMOOTH",
"418 0 LINE",
"532 0 LINE",
"532 686 LINE"
);
},
{
closed = 1;
nodes = (
"398 883 LINE",
"394 855 OFFCURVE",
"380 846 OFFCURVE",
"359 846 CURVE SMOOTH",
"314 846 OFFCURVE",
"275 883 OFFCURVE",
"226 883 CURVE SMOOTH",
"156 883 OFFCURVE",
"128 816 OFFCURVE",
"128 761 CURVE",
"194 761 LINE",
"198 788 OFFCURVE",
"212 798 OFFCURVE",
"233 798 CURVE SMOOTH",
"278 798 OFFCURVE",
"317 761 OFFCURVE",
"365 761 CURVE SMOOTH",
"436 761 OFFCURVE",
"464 828 OFFCURVE",
"464 883 CURVE"
);
}
);
width = 592;
}
);
unicode = 00D1;
},
{
glyphname = O;
lastChange = "2014-07-03 12:03:26 -0700";
layers = (
{
anchors = (
{
name = top;
position = "{319, 686}";
}
);
layerId = "D861F68D-CC3D-4754-9BA0-60D90FAB2DB2";
name = Regular;
paths = (
{
closed = 1;
nodes = (
"151 698 OFFCURVE",
"49 581 OFFCURVE",
"49 343 CURVE SMOOTH",
"49 105 OFFCURVE",
"151 -12 OFFCURVE",
"319 -12 CURVE SMOOTH",
"487 -12 OFFCURVE",
"589 105 OFFCURVE",
"589 343 CURVE SMOOTH",
"589 581 OFFCURVE",
"487 698 OFFCURVE",
"319 698 CURVE SMOOTH"
);
},
{
closed = 1;
nodes = (
"429 617 OFFCURVE",
"497 535 OFFCURVE",
"497 368 CURVE SMOOTH",
"497 318 LINE SMOOTH",
"497 151 OFFCURVE",
"429 69 OFFCURVE",
"319 69 CURVE SMOOTH",
"209 69 OFFCURVE",
"141 151 OFFCURVE",
"141 318 CURVE SMOOTH",
"141 368 LINE SMOOTH",
"141 535 OFFCURVE",
"209 617 OFFCURVE",
"319 617 CURVE SMOOTH"
);
}
);
width = 638;
},
{
anchors = (
{
name = top;
position = "{319, 686}";
}
);
layerId = "72E9C866-9899-4CE7-8B77-ABF2E23FF1EF";
name = Bold;
paths = (
{
closed = 1;
nodes = (
"142 698 OFFCURVE",
"34 585 OFFCURVE",
"34 343 CURVE SMOOTH",
"34 101 OFFCURVE",
"142 -12 OFFCURVE",
"319 -12 CURVE SMOOTH",
"496 -12 OFFCURVE",
"604 101 OFFCURVE",
"604 343 CURVE SMOOTH",
"604 585 OFFCURVE",
"496 698 OFFCURVE",
"319 698 CURVE SMOOTH"
);
},
{
closed = 1;
nodes = (
"421 588 OFFCURVE",
"472 505 OFFCURVE",
"472 368 CURVE SMOOTH",
"472 318 LINE SMOOTH",
"472 181 OFFCURVE",
"421 98 OFFCURVE",
"319 98 CURVE SMOOTH",
"217 98 OFFCURVE",
"166 181 OFFCURVE",
"166 318 CURVE SMOOTH",
"166 368 LINE SMOOTH",
"166 505 OFFCURVE",
"217 588 OFFCURVE",
"319 588 CURVE SMOOTH"
);
}
);
width = 638;
}
);
unicode = 004F;
},
{
glyphname = Oacute;
lastChange = "2014-07-03 12:03:26 -0700";
layers = (
{
layerId = "D861F68D-CC3D-4754-9BA0-60D90FAB2DB2";
name = Regular;
paths = (
{
closed = 1;
nodes = (
"151 698 OFFCURVE",
"49 581 OFFCURVE",
"49 343 CURVE SMOOTH",
"49 105 OFFCURVE",
"151 -12 OFFCURVE",
"319 -12 CURVE SMOOTH",
"487 -12 OFFCURVE",
"589 105 OFFCURVE",
"589 343 CURVE SMOOTH",
"589 581 OFFCURVE",
"487 698 OFFCURVE",
"319 698 CURVE SMOOTH"
);
},
{
closed = 1;
nodes = (
"429 617 OFFCURVE",
"497 535 OFFCURVE",
"497 368 CURVE SMOOTH",
"497 318 LINE SMOOTH",
"497 151 OFFCURVE",
"429 69 OFFCURVE",
"319 69 CURVE SMOOTH",
"209 69 OFFCURVE",
"141 151 OFFCURVE",
"141 318 CURVE SMOOTH",
"141 368 LINE SMOOTH",
"141 535 OFFCURVE",
"209 617 OFFCURVE",
"319 617 CURVE SMOOTH"
);
},
{
closed = 1;
nodes = (
"346 883 LINE",
"260 751 LINE",
"329 751 LINE",
"437 880 LINE",
"436 883 LINE"
);
}
);
width = 638;
},
{
layerId = "72E9C866-9899-4CE7-8B77-ABF2E23FF1EF";
name = Bold;
paths = (
{
closed = 1;
nodes = (
"142 698 OFFCURVE",
"34 585 OFFCURVE",
"34 343 CURVE SMOOTH",
"34 101 OFFCURVE",
"142 -12 OFFCURVE",
"319 -12 CURVE SMOOTH",
"496 -12 OFFCURVE",
"604 101 OFFCURVE",
"604 343 CURVE SMOOTH",
"604 585 OFFCURVE",
"496 698 OFFCURVE",
"319 698 CURVE SMOOTH"
);
},
{
closed = 1;
nodes = (
"421 588 OFFCURVE",
"472 505 OFFCURVE",
"472 368 CURVE SMOOTH",
"472 318 LINE SMOOTH",
"472 181 OFFCURVE",
"421 98 OFFCURVE",
"319 98 CURVE SMOOTH",
"217 98 OFFCURVE",
"166 181 OFFCURVE",
"166 318 CURVE SMOOTH",
"166 368 LINE SMOOTH",
"166 505 OFFCURVE",
"217 588 OFFCURVE",
"319 588 CURVE SMOOTH"
);
},
{
closed = 1;
nodes = (
"336 883 LINE",
"250 751 LINE",
"350 751 LINE",
"458 880 LINE",
"457 883 LINE"
);
}
);
width = 638;
}
);
unicode = 00D3;
},
{
glyphname = Obreve;
lastChange = "2014-07-03 12:03:26 -0700";
layers = (
{
layerId = "D861F68D-CC3D-4754-9BA0-60D90FAB2DB2";
name = Regular;
paths = (
{
closed = 1;
nodes = (
"151 698 OFFCURVE",
"49 581 OFFCURVE",
"49 343 CURVE SMOOTH",
"49 105 OFFCURVE",
"151 -12 OFFCURVE",
"319 -12 CURVE SMOOTH",
"487 -12 OFFCURVE",
"589 105 OFFCURVE",
"589 343 CURVE SMOOTH",
"589 581 OFFCURVE",
"487 698 OFFCURVE",
"319 698 CURVE SMOOTH"
);
},
{
closed = 1;
nodes = (
"429 617 OFFCURVE",
"497 535 OFFCURVE",
"497 368 CURVE SMOOTH",
"497 318 LINE SMOOTH",
"497 151 OFFCURVE",
"429 69 OFFCURVE",
"319 69 CURVE SMOOTH",
"209 69 OFFCURVE",
"141 151 OFFCURVE",
"141 318 CURVE SMOOTH",
"141 368 LINE SMOOTH",
"141 535 OFFCURVE",
"209 617 OFFCURVE",
"319 617 CURVE SMOOTH"
);
},
{
closed = 1;
nodes = (
"379 883 LINE",
"377 869 OFFCURVE",
"353 850 OFFCURVE",
"319 850 CURVE SMOOTH",
"286 850 OFFCURVE",
"263 869 OFFCURVE",
"260 883 CURVE",
"196 883 LINE",
"196 838 OFFCURVE",
"243 786 OFFCURVE",
"319 786 CURVE SMOOTH",
"396 786 OFFCURVE",
"443 838 OFFCURVE",
"443 883 CURVE"
);
}
);
width = 638;
},
{
layerId = "72E9C866-9899-4CE7-8B77-ABF2E23FF1EF";
name = Bold;
paths = (
{
closed = 1;
nodes = (
"142 698 OFFCURVE",
"34 585 OFFCURVE",
"34 343 CURVE SMOOTH",
"34 101 OFFCURVE",
"142 -12 OFFCURVE",
"319 -12 CURVE SMOOTH",
"496 -12 OFFCURVE",
"604 101 OFFCURVE",
"604 343 CURVE SMOOTH",
"604 585 OFFCURVE",
"496 698 OFFCURVE",
"319 698 CURVE SMOOTH"
);
},
{
closed = 1;
nodes = (
"421 588 OFFCURVE",
"472 505 OFFCURVE",
"472 368 CURVE SMOOTH",
"472 318 LINE SMOOTH",
"472 181 OFFCURVE",
"421 98 OFFCURVE",
"319 98 CURVE SMOOTH",
"217 98 OFFCURVE",
"166 181 OFFCURVE",
"166 318 CURVE SMOOTH",
"166 368 LINE SMOOTH",
"166 505 OFFCURVE",
"217 588 OFFCURVE",
"319 588 CURVE SMOOTH"
);
},
{
closed = 1;
nodes = (
"379 883 LINE",
"377 869 OFFCURVE",
"353 850 OFFCURVE",
"319 850 CURVE SMOOTH",
"286 850 OFFCURVE",
"263 869 OFFCURVE",
"260 883 CURVE",
"186 883 LINE",
"186 833 OFFCURVE",
"237 776 OFFCURVE",
"319 776 CURVE SMOOTH",
"402 776 OFFCURVE",
"453 833 OFFCURVE",
"453 883 CURVE"
);
}
);
width = 638;
}
);
unicode = 014E;
},
{
glyphname = Ocircumflex;
lastChange = "2014-07-03 12:03:26 -0700";
layers = (
{
layerId = "D861F68D-CC3D-4754-9BA0-60D90FAB2DB2";
name = Regular;
paths = (
{
closed = 1;
nodes = (
"151 698 OFFCURVE",
"49 581 OFFCURVE",
"49 343 CURVE SMOOTH",
"49 105 OFFCURVE",
"151 -12 OFFCURVE",
"319 -12 CURVE SMOOTH",
"487 -12 OFFCURVE",
"589 105 OFFCURVE",
"589 343 CURVE SMOOTH",
"589 581 OFFCURVE",
"487 698 OFFCURVE",
"319 698 CURVE SMOOTH"
);
},
{
closed = 1;
nodes = (
"429 617 OFFCURVE",
"497 535 OFFCURVE",
"497 368 CURVE SMOOTH",
"497 318 LINE SMOOTH",
"497 151 OFFCURVE",
"429 69 OFFCURVE",
"319 69 CURVE SMOOTH",
"209 69 OFFCURVE",
"141 151 OFFCURVE",
"141 318 CURVE SMOOTH",
"141 368 LINE SMOOTH",
"141 535 OFFCURVE",
"209 617 OFFCURVE",
"319 617 CURVE SMOOTH"
);
},
{
closed = 1;
nodes = (
"359 882 LINE",
"281 882 LINE",
"195 747 LINE",
"275 747 LINE",
"320 826 LINE",
"364 747 LINE",
"444 747 LINE"
);
}
);
width = 638;
},
{
layerId = "72E9C866-9899-4CE7-8B77-ABF2E23FF1EF";
name = Bold;
paths = (
{
closed = 1;
nodes = (
"142 698 OFFCURVE",
"34 585 OFFCURVE",
"34 343 CURVE SMOOTH",
"34 101 OFFCURVE",
"142 -12 OFFCURVE",
"319 -12 CURVE SMOOTH",
"496 -12 OFFCURVE",
"604 101 OFFCURVE",
"604 343 CURVE SMOOTH",
"604 585 OFFCURVE",
"496 698 OFFCURVE",
"319 698 CURVE SMOOTH"
);
},
{
closed = 1;
nodes = (
"421 588 OFFCURVE",
"472 505 OFFCURVE",
"472 368 CURVE SMOOTH",
"472 318 LINE SMOOTH",
"472 181 OFFCURVE",
"421 98 OFFCURVE",
"319 98 CURVE SMOOTH",
"217 98 OFFCURVE",
"166 181 OFFCURVE",
"166 318 CURVE SMOOTH",
"166 368 LINE SMOOTH",
"166 505 OFFCURVE",
"217 588 OFFCURVE",
"319 588 CURVE SMOOTH"
);
},
{
closed = 1;
nodes = (
"369 883 LINE",
"271 883 LINE",
"185 748 LINE",
"275 748 LINE",
"320 817 LINE",
"364 748 LINE",
"454 748 LINE"
);
}
);
width = 638;
}
);
unicode = 00D4;
},
{
glyphname = Odieresis;
lastChange = "2014-07-03 12:03:26 -0700";
layers = (
{
layerId = "D861F68D-CC3D-4754-9BA0-60D90FAB2DB2";
name = Regular;
paths = (
{
closed = 1;
nodes = (
"151 698 OFFCURVE",
"49 581 OFFCURVE",
"49 343 CURVE SMOOTH",
"49 105 OFFCURVE",
"151 -12 OFFCURVE",
"319 -12 CURVE SMOOTH",
"487 -12 OFFCURVE",
"589 105 OFFCURVE",
"589 343 CURVE SMOOTH",
"589 581 OFFCURVE",
"487 698 OFFCURVE",
"319 698 CURVE SMOOTH"
);
},
{
closed = 1;
nodes = (
"429 617 OFFCURVE",
"497 535 OFFCURVE",
"497 368 CURVE SMOOTH",
"497 318 LINE SMOOTH",
"497 151 OFFCURVE",
"429 69 OFFCURVE",
"319 69 CURVE SMOOTH",
"209 69 OFFCURVE",
"141 151 OFFCURVE",
"141 318 CURVE SMOOTH",
"141 368 LINE SMOOTH",
"141 535 OFFCURVE",
"209 617 OFFCURVE",
"319 617 CURVE SMOOTH"
);
},
{
closed = 1;
nodes = (
"201 883 LINE",
"201 788 LINE",
"288 788 LINE",
"288 883 LINE"
);
},
{
closed = 1;
nodes = (
"351 883 LINE",
"351 788 LINE",
"438 788 LINE",
"438 883 LINE"
);
}
);
width = 638;
},
{
layerId = "72E9C866-9899-4CE7-8B77-ABF2E23FF1EF";
name = Bold;
paths = (
{
closed = 1;
nodes = (
"142 698 OFFCURVE",
"34 585 OFFCURVE",
"34 343 CURVE SMOOTH",
"34 101 OFFCURVE",
"142 -12 OFFCURVE",
"319 -12 CURVE SMOOTH",
"496 -12 OFFCURVE",
"604 101 OFFCURVE",
"604 343 CURVE SMOOTH",
"604 585 OFFCURVE",
"496 698 OFFCURVE",
"319 698 CURVE SMOOTH"
);
},
{
closed = 1;
nodes = (
"421 588 OFFCURVE",
"472 505 OFFCURVE",
"472 368 CURVE SMOOTH",
"472 318 LINE SMOOTH",
"472 181 OFFCURVE",
"421 98 OFFCURVE",
"319 98 CURVE SMOOTH",
"217 98 OFFCURVE",
"166 181 OFFCURVE",
"166 318 CURVE SMOOTH",
"166 368 LINE SMOOTH",
"166 505 OFFCURVE",
"217 588 OFFCURVE",
"319 588 CURVE SMOOTH"
);
},
{
closed = 1;
nodes = (
"182 883 LINE",
"182 774 LINE",
"282 774 LINE",
"282 883 LINE"
);
},
{
closed = 1;
nodes = (
"357 883 LINE",
"357 774 LINE",
"457 774 LINE",
"457 883 LINE"
);
}
);
width = 638;
}
);
unicode = 00D6;
},
{
glyphname = Ograve;
lastChange = "2014-07-03 12:03:26 -0700";
layers = (
{
layerId = "D861F68D-CC3D-4754-9BA0-60D90FAB2DB2";
name = Regular;
paths = (
{
closed = 1;
nodes = (
"151 698 OFFCURVE",
"49 581 OFFCURVE",
"49 343 CURVE SMOOTH",
"49 105 OFFCURVE",
"151 -12 OFFCURVE",
"319 -12 CURVE SMOOTH",
"487 -12 OFFCURVE",
"589 105 OFFCURVE",
"589 343 CURVE SMOOTH",
"589 581 OFFCURVE",
"487 698 OFFCURVE",
"319 698 CURVE SMOOTH"
);
},
{
closed = 1;
nodes = (
"429 617 OFFCURVE",
"497 535 OFFCURVE",
"497 368 CURVE SMOOTH",
"497 318 LINE SMOOTH",
"497 151 OFFCURVE",
"429 69 OFFCURVE",
"319 69 CURVE SMOOTH",
"209 69 OFFCURVE",
"141 151 OFFCURVE",
"141 318 CURVE SMOOTH",
"141 368 LINE SMOOTH",
"141 535 OFFCURVE",
"209 617 OFFCURVE",
"319 617 CURVE SMOOTH"
);
},
{
closed = 1;
nodes = (
"203 883 LINE",
"202 880 LINE",
"310 751 LINE",
"379 751 LINE",
"293 883 LINE"
);
}
);
width = 638;
},
{
layerId = "72E9C866-9899-4CE7-8B77-ABF2E23FF1EF";
name = Bold;
paths = (
{
closed = 1;
nodes = (
"142 698 OFFCURVE",
"34 585 OFFCURVE",
"34 343 CURVE SMOOTH",
"34 101 OFFCURVE",
"142 -12 OFFCURVE",
"319 -12 CURVE SMOOTH",
"496 -12 OFFCURVE",
"604 101 OFFCURVE",
"604 343 CURVE SMOOTH",
"604 585 OFFCURVE",
"496 698 OFFCURVE",
"319 698 CURVE SMOOTH"
);
},
{
closed = 1;
nodes = (
"421 588 OFFCURVE",
"472 505 OFFCURVE",
"472 368 CURVE SMOOTH",
"472 318 LINE SMOOTH",
"472 181 OFFCURVE",
"421 98 OFFCURVE",
"319 98 CURVE SMOOTH",
"217 98 OFFCURVE",
"166 181 OFFCURVE",
"166 318 CURVE SMOOTH",
"166 368 LINE SMOOTH",
"166 505 OFFCURVE",
"217 588 OFFCURVE",
"319 588 CURVE SMOOTH"
);
},
{
closed = 1;
nodes = (
"182 883 LINE",
"181 880 LINE",
"289 751 LINE",
"388 751 LINE",
"302 883 LINE"
);
}
);
width = 638;
}
);
unicode = 00D2;
},
{
glyphname = Ohungarumlaut;
lastChange = "2014-07-03 12:03:26 -0700";
layers = (
{
layerId = "D861F68D-CC3D-4754-9BA0-60D90FAB2DB2";
name = Regular;
paths = (
{
closed = 1;
nodes = (
"151 698 OFFCURVE",
"49 581 OFFCURVE",
"49 343 CURVE SMOOTH",
"49 105 OFFCURVE",
"151 -12 OFFCURVE",
"319 -12 CURVE SMOOTH",
"487 -12 OFFCURVE",
"589 105 OFFCURVE",
"589 343 CURVE SMOOTH",
"589 581 OFFCURVE",
"487 698 OFFCURVE",
"319 698 CURVE SMOOTH"
);
},
{
closed = 1;
nodes = (
"429 617 OFFCURVE",
"497 535 OFFCURVE",
"497 368 CURVE SMOOTH",
"497 318 LINE SMOOTH",
"497 151 OFFCURVE",
"429 69 OFFCURVE",
"319 69 CURVE SMOOTH",
"209 69 OFFCURVE",
"141 151 OFFCURVE",
"141 318 CURVE SMOOTH",
"141 368 LINE SMOOTH",
"141 535 OFFCURVE",
"209 617 OFFCURVE",
"319 617 CURVE SMOOTH"
);
},
{
closed = 1;
nodes = (
"286 883 LINE",
"224 751 LINE",
"292 751 LINE",
"376 880 LINE",
"375 883 LINE"
);
},
{
closed = 1;
nodes = (
"416 883 LINE",
"354 751 LINE",
"423 751 LINE",
"507 880 LINE",
"506 883 LINE"
);
}
);
width = 638;
},
{
layerId = "72E9C866-9899-4CE7-8B77-ABF2E23FF1EF";
name = Bold;
paths = (
{
closed = 1;
nodes = (
"142 698 OFFCURVE",
"34 585 OFFCURVE",
"34 343 CURVE SMOOTH",
"34 101 OFFCURVE",
"142 -12 OFFCURVE",
"319 -12 CURVE SMOOTH",
"496 -12 OFFCURVE",
"604 101 OFFCURVE",
"604 343 CURVE SMOOTH",
"604 585 OFFCURVE",
"496 698 OFFCURVE",
"319 698 CURVE SMOOTH"
);
},
{
closed = 1;
nodes = (
"421 588 OFFCURVE",
"472 505 OFFCURVE",
"472 368 CURVE SMOOTH",
"472 318 LINE SMOOTH",
"472 181 OFFCURVE",
"421 98 OFFCURVE",
"319 98 CURVE SMOOTH",
"217 98 OFFCURVE",
"166 181 OFFCURVE",
"166 318 CURVE SMOOTH",
"166 368 LINE SMOOTH",
"166 505 OFFCURVE",
"217 588 OFFCURVE",
"319 588 CURVE SMOOTH"
);
},
{
closed = 1;
nodes = (
"269 883 LINE",
"207 751 LINE",
"286 751 LINE",
"370 880 LINE",
"369 883 LINE"
);
},
{
closed = 1;
nodes = (
"409 883 LINE",
"347 751 LINE",
"426 751 LINE",
"510 880 LINE",
"509 883 LINE"
);
}
);
width = 638;
}
);
unicode = 0150;
},
{
glyphname = Omacron;
lastChange = "2014-07-03 12:03:26 -0700";
layers = (
{
layerId = "D861F68D-CC3D-4754-9BA0-60D90FAB2DB2";
name = Regular;
paths = (
{
closed = 1;
nodes = (
"151 698 OFFCURVE",
"49 581 OFFCURVE",
"49 343 CURVE SMOOTH",
"49 105 OFFCURVE",
"151 -12 OFFCURVE",
"319 -12 CURVE SMOOTH",
"487 -12 OFFCURVE",
"589 105 OFFCURVE",
"589 343 CURVE SMOOTH",
"589 581 OFFCURVE",
"487 698 OFFCURVE",
"319 698 CURVE SMOOTH"
);
},
{
closed = 1;
nodes = (
"429 617 OFFCURVE",
"497 535 OFFCURVE",
"497 368 CURVE SMOOTH",
"497 318 LINE SMOOTH",
"497 151 OFFCURVE",
"429 69 OFFCURVE",
"319 69 CURVE SMOOTH",
"209 69 OFFCURVE",
"141 151 OFFCURVE",
"141 318 CURVE SMOOTH",
"141 368 LINE SMOOTH",
"141 535 OFFCURVE",
"209 617 OFFCURVE",
"319 617 CURVE SMOOTH"
);
},
{
closed = 1;
nodes = (
"445 831 LINE",
"194 831 LINE",
"194 759 LINE",
"445 759 LINE"
);
}
);
width = 638;
},
{
layerId = "72E9C866-9899-4CE7-8B77-ABF2E23FF1EF";
name = Bold;
paths = (
{
closed = 1;
nodes = (
"142 698 OFFCURVE",
"34 585 OFFCURVE",
"34 343 CURVE SMOOTH",
"34 101 OFFCURVE",
"142 -12 OFFCURVE",
"319 -12 CURVE SMOOTH",
"496 -12 OFFCURVE",
"604 101 OFFCURVE",
"604 343 CURVE SMOOTH",
"604 585 OFFCURVE",
"496 698 OFFCURVE",
"319 698 CURVE SMOOTH"
);
},
{
closed = 1;
nodes = (
"421 588 OFFCURVE",
"472 505 OFFCURVE",
"472 368 CURVE SMOOTH",
"472 318 LINE SMOOTH",
"472 181 OFFCURVE",
"421 98 OFFCURVE",
"319 98 CURVE SMOOTH",
"217 98 OFFCURVE",
"166 181 OFFCURVE",
"166 318 CURVE SMOOTH",
"166 368 LINE SMOOTH",
"166 505 OFFCURVE",
"217 588 OFFCURVE",
"319 588 CURVE SMOOTH"
);
},
{
closed = 1;
nodes = (
"447 846 LINE",
"192 846 LINE",
"192 759 LINE",
"447 759 LINE"
);
}
);
width = 638;
}
);
unicode = 014C;
},
{
glyphname = Oslash;
lastChange = "2014-07-03 12:03:26 -0700";
layers = (
{
anchors = (
{
name = top;
position = "{319, 686}";
}
);
layerId = "D861F68D-CC3D-4754-9BA0-60D90FAB2DB2";
name = Regular;
paths = (
{
closed = 1;
nodes = (
"589 723 LINE",
"525 723 LINE",
"478 648 LINE",
"436 681 OFFCURVE",
"382 698 OFFCURVE",
"319 698 CURVE SMOOTH",
"151 698 OFFCURVE",
"49 581 OFFCURVE",
"49 343 CURVE SMOOTH",
"49 224 OFFCURVE",
"74 135 OFFCURVE",
"121 76 CURVE",
"50 -37 LINE",
"114 -37 LINE",
"160 37 LINE",
"202 4 OFFCURVE",
"256 -12 OFFCURVE",
"319 -12 CURVE SMOOTH",
"487 -12 OFFCURVE",
"589 105 OFFCURVE",
"589 343 CURVE SMOOTH",
"589 461 OFFCURVE",
"563 550 OFFCURVE",
"517 609 CURVE"
);
},
{
closed = 1;
nodes = (
"466 527 LINE",
"486 487 OFFCURVE",
"497 434 OFFCURVE",
"497 368 CURVE SMOOTH",
"497 318 LINE SMOOTH",
"497 151 OFFCURVE",
"429 69 OFFCURVE",
"319 69 CURVE SMOOTH",
"273 69 OFFCURVE",
"235 83 OFFCURVE",
"206 111 CURVE"
);
},
{
closed = 1;
nodes = (
"364 617 OFFCURVE",
"402 603 OFFCURVE",
"432 574 CURVE",
"172 158 LINE",
"152 198 OFFCURVE",
"141 251 OFFCURVE",
"141 318 CURVE SMOOTH",
"141 368 LINE SMOOTH",
"141 535 OFFCURVE",
"209 617 OFFCURVE",
"319 617 CURVE SMOOTH"
);
}
);
width = 638;
},
{
anchors = (
{
name = top;
position = "{319, 686}";
}
);
layerId = "72E9C866-9899-4CE7-8B77-ABF2E23FF1EF";
name = Bold;
paths = (
{
closed = 1;
nodes = (
"599 723 LINE",
"515 723 LINE",
"474 658 LINE",
"431 685 OFFCURVE",
"379 698 OFFCURVE",
"319 698 CURVE SMOOTH",
"142 698 OFFCURVE",
"34 585 OFFCURVE",
"34 343 CURVE SMOOTH",
"34 222 OFFCURVE",
"61 133 OFFCURVE",
"110 75 CURVE",
"40 -37 LINE",
"124 -37 LINE",
"164 27 LINE",
"207 1 OFFCURVE",
"259 -12 OFFCURVE",
"319 -12 CURVE SMOOTH",
"496 -12 OFFCURVE",
"604 101 OFFCURVE",
"604 343 CURVE SMOOTH",
"604 463 OFFCURVE",
"577 552 OFFCURVE",
"528 610 CURVE"
);
},
{
closed = 1;
nodes = (
"453 490 LINE",
"466 457 OFFCURVE",
"472 415 OFFCURVE",
"472 368 CURVE SMOOTH",
"472 318 LINE SMOOTH",
"472 181 OFFCURVE",
"421 98 OFFCURVE",
"319 98 CURVE SMOOTH",
"282 98 OFFCURVE",
"251 109 OFFCURVE",
"228 129 CURVE"
);
},
{
closed = 1;
nodes = (
"356 588 OFFCURVE",
"387 577 OFFCURVE",
"410 556 CURVE",
"184 194 LINE",
"172 228 OFFCURVE",
"166 270 OFFCURVE",
"166 318 CURVE SMOOTH",
"166 368 LINE SMOOTH",
"166 505 OFFCURVE",
"217 588 OFFCURVE",
"319 588 CURVE SMOOTH"
);
}
);
width = 638;
}
);
unicode = 00D8;
},
{
glyphname = Oslashacute;
lastChange = "2014-07-03 12:03:26 -0700";
layers = (
{
layerId = "D861F68D-CC3D-4754-9BA0-60D90FAB2DB2";
name = Regular;
paths = (
{
closed = 1;
nodes = (
"525 723 LINE",
"478 648 LINE",
"436 681 OFFCURVE",
"382 698 OFFCURVE",
"319 698 CURVE SMOOTH",
"151 698 OFFCURVE",
"49 581 OFFCURVE",
"49 343 CURVE SMOOTH",
"49 224 OFFCURVE",
"74 135 OFFCURVE",
"121 76 CURVE",
"50 -37 LINE",
"114 -37 LINE",
"160 37 LINE",
"202 4 OFFCURVE",
"256 -12 OFFCURVE",
"319 -12 CURVE SMOOTH",
"487 -12 OFFCURVE",
"589 105 OFFCURVE",
"589 343 CURVE SMOOTH",
"589 461 OFFCURVE",
"563 550 OFFCURVE",
"517 609 CURVE",
"589 723 LINE"
);
},
{
closed = 1;
nodes = (
"486 487 OFFCURVE",
"497 434 OFFCURVE",
"497 368 CURVE SMOOTH",
"497 318 LINE SMOOTH",
"497 151 OFFCURVE",
"429 69 OFFCURVE",
"319 69 CURVE SMOOTH",
"273 69 OFFCURVE",
"235 83 OFFCURVE",
"206 111 CURVE",
"466 527 LINE"
);
},
{
closed = 1;
nodes = (
"364 617 OFFCURVE",
"402 603 OFFCURVE",
"432 574 CURVE",
"172 158 LINE",
"152 198 OFFCURVE",
"141 251 OFFCURVE",
"141 318 CURVE SMOOTH",
"141 368 LINE SMOOTH",
"141 535 OFFCURVE",
"209 617 OFFCURVE",
"319 617 CURVE SMOOTH"
);
},
{
closed = 1;
nodes = (
"346 883 LINE",
"260 751 LINE",
"329 751 LINE",
"437 880 LINE",
"436 883 LINE"
);
}
);
width = 638;
},
{
layerId = "72E9C866-9899-4CE7-8B77-ABF2E23FF1EF";
name = Bold;
paths = (
{
closed = 1;
nodes = (
"515 723 LINE",
"474 658 LINE",
"431 685 OFFCURVE",
"379 698 OFFCURVE",
"319 698 CURVE SMOOTH",
"142 698 OFFCURVE",
"34 585 OFFCURVE",
"34 343 CURVE SMOOTH",
"34 222 OFFCURVE",
"61 133 OFFCURVE",
"110 75 CURVE",
"40 -37 LINE",
"124 -37 LINE",
"164 27 LINE",
"207 1 OFFCURVE",
"259 -12 OFFCURVE",
"319 -12 CURVE SMOOTH",
"496 -12 OFFCURVE",
"604 101 OFFCURVE",
"604 343 CURVE SMOOTH",
"604 463 OFFCURVE",
"577 552 OFFCURVE",
"528 610 CURVE",
"599 723 LINE"
);
},
{
closed = 1;
nodes = (
"466 457 OFFCURVE",
"472 415 OFFCURVE",
"472 368 CURVE SMOOTH",
"472 318 LINE SMOOTH",
"472 181 OFFCURVE",
"421 98 OFFCURVE",
"319 98 CURVE SMOOTH",
"282 98 OFFCURVE",
"251 109 OFFCURVE",
"228 129 CURVE",
"453 490 LINE"
);
},
{
closed = 1;
nodes = (
"356 588 OFFCURVE",
"387 577 OFFCURVE",
"410 556 CURVE",
"184 194 LINE",
"172 228 OFFCURVE",
"166 270 OFFCURVE",
"166 318 CURVE SMOOTH",
"166 368 LINE SMOOTH",
"166 505 OFFCURVE",
"217 588 OFFCURVE",
"319 588 CURVE SMOOTH"
);
},
{
closed = 1;
nodes = (
"336 883 LINE",
"250 751 LINE",
"350 751 LINE",
"458 880 LINE",
"457 883 LINE"
);
}
);
width = 638;
}
);
unicode = 01FE;
},
{
glyphname = Otilde;
lastChange = "2014-07-03 12:03:26 -0700";
layers = (
{
layerId = "D861F68D-CC3D-4754-9BA0-60D90FAB2DB2";
name = Regular;
paths = (
{
closed = 1;
nodes = (
"151 698 OFFCURVE",
"49 581 OFFCURVE",
"49 343 CURVE SMOOTH",
"49 105 OFFCURVE",
"151 -12 OFFCURVE",
"319 -12 CURVE SMOOTH",
"487 -12 OFFCURVE",
"589 105 OFFCURVE",
"589 343 CURVE SMOOTH",
"589 581 OFFCURVE",
"487 698 OFFCURVE",
"319 698 CURVE SMOOTH"
);
},
{
closed = 1;
nodes = (
"429 617 OFFCURVE",
"497 535 OFFCURVE",
"497 368 CURVE SMOOTH",
"497 318 LINE SMOOTH",
"497 151 OFFCURVE",
"429 69 OFFCURVE",
"319 69 CURVE SMOOTH",
"209 69 OFFCURVE",
"141 151 OFFCURVE",
"141 318 CURVE SMOOTH",
"141 368 LINE SMOOTH",
"141 535 OFFCURVE",
"209 617 OFFCURVE",
"319 617 CURVE SMOOTH"
);
},
{
closed = 1;
nodes = (
"407 883 LINE",
"404 860 OFFCURVE",
"391 853 OFFCURVE",
"373 853 CURVE SMOOTH",
"334 853 OFFCURVE",
"301 883 OFFCURVE",
"258 883 CURVE SMOOTH",
"198 883 OFFCURVE",
"173 825 OFFCURVE",
"173 779 CURVE",
"231 779 LINE",
"234 802 OFFCURVE",
"247 810 OFFCURVE",
"265 810 CURVE SMOOTH",
"304 810 OFFCURVE",
"337 779 OFFCURVE",
"380 779 CURVE SMOOTH",
"440 779 OFFCURVE",
"465 837 OFFCURVE",
"465 883 CURVE"
);
}
);
width = 638;
},
{
layerId = "72E9C866-9899-4CE7-8B77-ABF2E23FF1EF";
name = Bold;
paths = (
{
closed = 1;
nodes = (
"142 698 OFFCURVE",
"34 585 OFFCURVE",
"34 343 CURVE SMOOTH",
"34 101 OFFCURVE",
"142 -12 OFFCURVE",
"319 -12 CURVE SMOOTH",
"496 -12 OFFCURVE",
"604 101 OFFCURVE",
"604 343 CURVE SMOOTH",
"604 585 OFFCURVE",
"496 698 OFFCURVE",
"319 698 CURVE SMOOTH"
);
},
{
closed = 1;
nodes = (
"421 588 OFFCURVE",
"472 505 OFFCURVE",
"472 368 CURVE SMOOTH",
"472 318 LINE SMOOTH",
"472 181 OFFCURVE",
"421 98 OFFCURVE",
"319 98 CURVE SMOOTH",
"217 98 OFFCURVE",
"166 181 OFFCURVE",
"166 318 CURVE SMOOTH",
"166 368 LINE SMOOTH",
"166 505 OFFCURVE",
"217 588 OFFCURVE",
"319 588 CURVE SMOOTH"
);
},
{
closed = 1;
nodes = (
"421 883 LINE",
"417 855 OFFCURVE",
"404 846 OFFCURVE",
"383 846 CURVE SMOOTH",
"337 846 OFFCURVE",
"299 883 OFFCURVE",
"250 883 CURVE SMOOTH",
"180 883 OFFCURVE",
"151 816 OFFCURVE",
"151 761 CURVE",
"218 761 LINE",
"222 788 OFFCURVE",
"235 798 OFFCURVE",
"257 798 CURVE SMOOTH",
"302 798 OFFCURVE",
"341 761 OFFCURVE",
"389 761 CURVE SMOOTH",
"459 761 OFFCURVE",
"488 828 OFFCURVE",
"488 883 CURVE"
);
}
);
width = 638;
}
);
unicode = 00D5;
},
{
glyphname = OE;
lastChange = "2014-07-03 12:03:26 -0700";
layers = (
{
anchors = (
{
name = top;
position = "{410, 686}";
}
);
layerId = "D861F68D-CC3D-4754-9BA0-60D90FAB2DB2";
name = Regular;
paths = (
{
closed = 1;
nodes = (
"132 698 OFFCURVE",
"49 581 OFFCURVE",
"49 343 CURVE SMOOTH",
"49 105 OFFCURVE",
"132 -12 OFFCURVE",
"273 -12 CURVE SMOOTH",
"337 -12 OFFCURVE",
"388 14 OFFCURVE",
"425 68 CURVE",
"425 0 LINE",
"784 0 LINE",
"784 80 LINE",
"513 80 LINE",
"513 311 LINE",
"733 311 LINE",
"733 391 LINE",
"513 391 LINE",
"513 606 LINE",
"778 606 LINE",
"778 686 LINE",
"425 686 LINE",
"425 618 LINE",
"388 671 OFFCURVE",
"337 698 OFFCURVE",
"273 698 CURVE SMOOTH"
);
},
{
closed = 1;
nodes = (
"371 617 OFFCURVE",
"425 535 OFFCURVE",
"425 368 CURVE SMOOTH",
"425 318 LINE SMOOTH",
"425 151 OFFCURVE",
"371 69 OFFCURVE",
"283 69 CURVE SMOOTH",
"195 69 OFFCURVE",
"141 151 OFFCURVE",
"141 318 CURVE SMOOTH",
"141 368 LINE SMOOTH",
"141 535 OFFCURVE",
"195 617 OFFCURVE",
"283 617 CURVE SMOOTH"
);
}
);
width = 820;
},
{
anchors = (
{
name = top;
position = "{410, 686}";
}
);
layerId = "72E9C866-9899-4CE7-8B77-ABF2E23FF1EF";
name = Bold;
paths = (
{
closed = 1;
nodes = (
"117 698 OFFCURVE",
"30 585 OFFCURVE",
"30 343 CURVE SMOOTH",
"30 101 OFFCURVE",
"117 -12 OFFCURVE",
"258 -12 CURVE SMOOTH",
"319 -12 OFFCURVE",
"370 11 OFFCURVE",
"408 61 CURVE",
"408 0 LINE",
"792 0 LINE",
"792 114 LINE",
"536 114 LINE",
"536 294 LINE",
"742 294 LINE",
"742 408 LINE",
"536 408 LINE",
"536 572 LINE",
"785 572 LINE",
"785 686 LINE",
"408 686 LINE",
"408 624 LINE",
"370 674 OFFCURVE",
"319 698 OFFCURVE",
"258 698 CURVE SMOOTH"
);
},
{
closed = 1;
nodes = (
"366 588 OFFCURVE",
"407 525 OFFCURVE",
"407 368 CURVE SMOOTH",
"407 318 LINE SMOOTH",
"407 161 OFFCURVE",
"366 98 OFFCURVE",
"284 98 CURVE SMOOTH",
"203 98 OFFCURVE",
"162 161 OFFCURVE",
"162 318 CURVE SMOOTH",
"162 368 LINE SMOOTH",
"162 525 OFFCURVE",
"203 588 OFFCURVE",
"284 588 CURVE SMOOTH"
);
}
);
width = 820;
}
);
unicode = 0152;
},
{
glyphname = P;
lastChange = "2014-07-03 12:03:26 -0700";
layers = (
{
layerId = "D861F68D-CC3D-4754-9BA0-60D90FAB2DB2";
name = Regular;
paths = (
{
closed = 1;
nodes = (
"315 283 LINE SMOOTH",
"442 283 OFFCURVE",
"520 365 OFFCURVE",
"520 486 CURVE SMOOTH",
"520 605 OFFCURVE",
"450 686 OFFCURVE",
"315 686 CURVE SMOOTH",
"70 686 LINE",
"70 0 LINE",
"158 0 LINE",
"158 283 LINE"
);
},
{
closed = 1;
nodes = (
"312 606 LINE SMOOTH",
"387 606 OFFCURVE",
"428 560 OFFCURVE",
"428 486 CURVE SMOOTH",
"428 412 OFFCURVE",
"382 363 OFFCURVE",
"312 363 CURVE SMOOTH",
"158 363 LINE",
"158 606 LINE"
);
}
);
width = 547;
},
{
layerId = "72E9C866-9899-4CE7-8B77-ABF2E23FF1EF";
name = Bold;
paths = (
{
closed = 1;
nodes = (
"305 266 LINE SMOOTH",
"434 266 OFFCURVE",
"520 351 OFFCURVE",
"520 480 CURVE SMOOTH",
"520 599 OFFCURVE",
"447 686 OFFCURVE",
"305 686 CURVE SMOOTH",
"60 686 LINE",
"60 0 LINE",
"188 0 LINE",
"188 266 LINE"
);
},
{
closed = 1;
nodes = (
"292 572 LINE SMOOTH",
"353 572 OFFCURVE",
"388 536 OFFCURVE",
"388 480 CURVE SMOOTH",
"388 417 OFFCURVE",
"354 379 OFFCURVE",
"292 379 CURVE SMOOTH",
"188 379 LINE",
"188 572 LINE"
);
}
);
width = 547;
}
);
unicode = 0050;
},
{
glyphname = Thorn;
lastChange = "2014-07-03 12:03:26 -0700";
layers = (
{
layerId = "D861F68D-CC3D-4754-9BA0-60D90FAB2DB2";
name = Regular;
paths = (
{
closed = 1;
nodes = (
"70 686 LINE",
"70 0 LINE",
"158 0 LINE",
"158 147 LINE",
"315 147 LINE SMOOTH",
"442 147 OFFCURVE",
"520 229 OFFCURVE",
"520 350 CURVE SMOOTH",
"520 469 OFFCURVE",
"450 550 OFFCURVE",
"315 550 CURVE SMOOTH",
"158 550 LINE",
"158 686 LINE"
);
},
{
closed = 1;
nodes = (
"387 470 OFFCURVE",
"428 424 OFFCURVE",
"428 350 CURVE SMOOTH",
"428 276 OFFCURVE",
"382 227 OFFCURVE",
"312 227 CURVE SMOOTH",
"158 227 LINE",
"158 470 LINE",
"312 470 LINE SMOOTH"
);
}
);
width = 547;
},
{
layerId = "72E9C866-9899-4CE7-8B77-ABF2E23FF1EF";
name = Bold;
paths = (
{
closed = 1;
nodes = (
"60 686 LINE",
"60 0 LINE",
"188 0 LINE",
"188 144 LINE",
"305 144 LINE SMOOTH",
"434 144 OFFCURVE",
"520 229 OFFCURVE",
"520 358 CURVE SMOOTH",
"520 477 OFFCURVE",
"447 564 OFFCURVE",
"305 564 CURVE SMOOTH",
"188 564 LINE",
"188 686 LINE"
);
},
{
closed = 1;
nodes = (
"353 450 OFFCURVE",
"388 414 OFFCURVE",
"388 358 CURVE SMOOTH",
"388 295 OFFCURVE",
"354 257 OFFCURVE",
"292 257 CURVE SMOOTH",
"188 257 LINE",
"188 450 LINE",
"292 450 LINE SMOOTH"
);
}
);
width = 547;
}
);
unicode = 00DE;
},
{
glyphname = Q;
lastChange = "2014-07-03 12:03:26 -0700";
layers = (
{
layerId = "D861F68D-CC3D-4754-9BA0-60D90FAB2DB2";
name = Regular;
paths = (
{
closed = 1;
nodes = (
"49 105 OFFCURVE",
"151 -12 OFFCURVE",
"319 -12 CURVE SMOOTH",
"331 -12 LINE",
"450 -124 LINE",
"568 -124 LINE",
"426 7 LINE",
"529 49 OFFCURVE",
"589 161 OFFCURVE",
"589 343 CURVE SMOOTH",
"589 581 OFFCURVE",
"487 698 OFFCURVE",
"319 698 CURVE SMOOTH",
"151 698 OFFCURVE",
"49 581 OFFCURVE",
"49 343 CURVE SMOOTH"
);
},
{
closed = 1;
nodes = (
"141 368 LINE SMOOTH",
"141 535 OFFCURVE",
"209 617 OFFCURVE",
"319 617 CURVE SMOOTH",
"429 617 OFFCURVE",
"497 535 OFFCURVE",
"497 368 CURVE SMOOTH",
"497 318 LINE SMOOTH",
"497 151 OFFCURVE",
"429 69 OFFCURVE",
"319 69 CURVE SMOOTH",
"209 69 OFFCURVE",
"141 151 OFFCURVE",
"141 318 CURVE SMOOTH"
);
}
);
width = 638;
},
{
layerId = "72E9C866-9899-4CE7-8B77-ABF2E23FF1EF";
name = Bold;
paths = (
{
closed = 1;
nodes = (
"34 101 OFFCURVE",
"142 -12 OFFCURVE",
"319 -12 CURVE SMOOTH",
"331 -12 LINE",
"430 -124 LINE",
"587 -124 LINE",
"455 17 LINE",
"549 65 OFFCURVE",
"604 171 OFFCURVE",
"604 343 CURVE SMOOTH",
"604 585 OFFCURVE",
"496 698 OFFCURVE",
"319 698 CURVE SMOOTH",
"142 698 OFFCURVE",
"34 585 OFFCURVE",
"34 343 CURVE SMOOTH"
);
},
{
closed = 1;
nodes = (
"166 368 LINE SMOOTH",
"166 505 OFFCURVE",
"217 588 OFFCURVE",
"319 588 CURVE SMOOTH",
"421 588 OFFCURVE",
"472 505 OFFCURVE",
"472 368 CURVE SMOOTH",
"472 318 LINE SMOOTH",
"472 181 OFFCURVE",
"421 98 OFFCURVE",
"319 98 CURVE SMOOTH",
"217 98 OFFCURVE",
"166 181 OFFCURVE",
"166 318 CURVE SMOOTH"
);
}
);
width = 638;
}
);
unicode = 0051;
},
{
glyphname = R;
lastChange = "2014-07-03 12:03:26 -0700";
layers = (
{
anchors = (
{
name = bottom;
position = "{296, 0}";
},
{
name = top;
position = "{296, 686}";
}
);
layerId = "D861F68D-CC3D-4754-9BA0-60D90FAB2DB2";
name = Regular;
paths = (
{
closed = 1;
nodes = (
"70 686 LINE",
"70 0 LINE",
"158 0 LINE",
"158 303 LINE",
"342 303 LINE",
"469 0 LINE",
"567 0 LINE",
"429 319 LINE",
"506 345 OFFCURVE",
"551 411 OFFCURVE",
"551 496 CURVE SMOOTH",
"551 609 OFFCURVE",
"481 686 OFFCURVE",
"346 686 CURVE SMOOTH"
);
},
{
closed = 1;
nodes = (
"418 606 OFFCURVE",
"459 564 OFFCURVE",
"459 496 CURVE SMOOTH",
"459 428 OFFCURVE",
"413 383 OFFCURVE",
"343 383 CURVE SMOOTH",
"158 383 LINE",
"158 606 LINE",
"343 606 LINE SMOOTH"
);
}
);
width = 592;
},
{
anchors = (
{
name = bottom;
position = "{296, 0}";
},
{
name = top;
position = "{296, 686}";
}
);
layerId = "72E9C866-9899-4CE7-8B77-ABF2E23FF1EF";
name = Bold;
paths = (
{
closed = 1;
nodes = (
"60 686 LINE",
"60 0 LINE",
"188 0 LINE",
"188 286 LINE",
"321 286 LINE",
"435 0 LINE",
"574 0 LINE",
"442 314 LINE",
"513 343 OFFCURVE",
"557 407 OFFCURVE",
"557 490 CURVE SMOOTH",
"557 603 OFFCURVE",
"486 686 OFFCURVE",
"347 686 CURVE SMOOTH"
);
},
{
closed = 1;
nodes = (
"393 572 OFFCURVE",
"419 540 OFFCURVE",
"419 490 CURVE SMOOTH",
"419 433 OFFCURVE",
"391 399 OFFCURVE",
"329 399 CURVE SMOOTH",
"188 399 LINE",
"188 572 LINE",
"334 572 LINE SMOOTH"
);
}
);
width = 592;
}
);
unicode = 0052;
},
{
glyphname = Racute;
lastChange = "2014-07-03 12:03:26 -0700";
layers = (
{
layerId = "D861F68D-CC3D-4754-9BA0-60D90FAB2DB2";
name = Regular;
paths = (
{
closed = 1;
nodes = (
"70 686 LINE",
"70 0 LINE",
"158 0 LINE",
"158 303 LINE",
"342 303 LINE",
"469 0 LINE",
"567 0 LINE",
"429 319 LINE",
"506 345 OFFCURVE",
"551 411 OFFCURVE",
"551 496 CURVE SMOOTH",
"551 609 OFFCURVE",
"481 686 OFFCURVE",
"346 686 CURVE SMOOTH"
);
},
{
closed = 1;
nodes = (
"418 606 OFFCURVE",
"459 564 OFFCURVE",
"459 496 CURVE SMOOTH",
"459 428 OFFCURVE",
"413 383 OFFCURVE",
"343 383 CURVE SMOOTH",
"158 383 LINE",
"158 606 LINE",
"343 606 LINE SMOOTH"
);
},
{
closed = 1;
nodes = (
"300 883 LINE",
"214 751 LINE",
"284 751 LINE",
"391 880 LINE",
"390 883 LINE"
);
}
);
width = 592;
},
{
layerId = "72E9C866-9899-4CE7-8B77-ABF2E23FF1EF";
name = Bold;
paths = (
{
closed = 1;
nodes = (
"60 686 LINE",
"60 0 LINE",
"188 0 LINE",
"188 286 LINE",
"321 286 LINE",
"435 0 LINE",
"574 0 LINE",
"442 314 LINE",
"513 343 OFFCURVE",
"557 407 OFFCURVE",
"557 490 CURVE SMOOTH",
"557 603 OFFCURVE",
"486 686 OFFCURVE",
"347 686 CURVE SMOOTH"
);
},
{
closed = 1;
nodes = (
"393 572 OFFCURVE",
"419 540 OFFCURVE",
"419 490 CURVE SMOOTH",
"419 433 OFFCURVE",
"391 399 OFFCURVE",
"329 399 CURVE SMOOTH",
"188 399 LINE",
"188 572 LINE",
"334 572 LINE SMOOTH"
);
},
{
closed = 1;
nodes = (
"313 883 LINE",
"227 751 LINE",
"326 751 LINE",
"434 880 LINE",
"433 883 LINE"
);
}
);
width = 592;
}
);
unicode = 0154;
},
{
glyphname = Rcaron;
lastChange = "2014-07-03 12:03:26 -0700";
layers = (
{
layerId = "D861F68D-CC3D-4754-9BA0-60D90FAB2DB2";
name = Regular;
paths = (
{
closed = 1;
nodes = (
"70 686 LINE",
"70 0 LINE",
"158 0 LINE",
"158 303 LINE",
"342 303 LINE",
"469 0 LINE",
"567 0 LINE",
"429 319 LINE",
"506 345 OFFCURVE",
"551 411 OFFCURVE",
"551 496 CURVE SMOOTH",
"551 609 OFFCURVE",
"481 686 OFFCURVE",
"346 686 CURVE SMOOTH"
);
},
{
closed = 1;
nodes = (
"418 606 OFFCURVE",
"459 564 OFFCURVE",
"459 496 CURVE SMOOTH",
"459 428 OFFCURVE",
"413 383 OFFCURVE",
"343 383 CURVE SMOOTH",
"158 383 LINE",
"158 606 LINE",
"343 606 LINE SMOOTH"
);
},
{
closed = 1;
nodes = (
"341 883 LINE",
"296 804 LINE",
"251 883 LINE",
"171 883 LINE",
"256 748 LINE",
"334 748 LINE",
"421 883 LINE"
);
}
);
width = 592;
},
{
layerId = "72E9C866-9899-4CE7-8B77-ABF2E23FF1EF";
name = Bold;
paths = (
{
closed = 1;
nodes = (
"60 686 LINE",
"60 0 LINE",
"188 0 LINE",
"188 286 LINE",
"321 286 LINE",
"435 0 LINE",
"574 0 LINE",
"442 314 LINE",
"513 343 OFFCURVE",
"557 407 OFFCURVE",
"557 490 CURVE SMOOTH",
"557 603 OFFCURVE",
"486 686 OFFCURVE",
"347 686 CURVE SMOOTH"
);
},
{
closed = 1;
nodes = (
"393 572 OFFCURVE",
"419 540 OFFCURVE",
"419 490 CURVE SMOOTH",
"419 433 OFFCURVE",
"391 399 OFFCURVE",
"329 399 CURVE SMOOTH",
"188 399 LINE",
"188 572 LINE",
"334 572 LINE SMOOTH"
);
},
{
closed = 1;
nodes = (
"341 883 LINE",
"296 814 LINE",
"251 883 LINE",
"162 883 LINE",
"248 748 LINE",
"346 748 LINE",
"431 883 LINE"
);
}
);
width = 592;
}
);
unicode = 0158;
},
{
glyphname = Rcommaaccent;
lastChange = "2014-07-03 12:03:26 -0700";
layers = (
{
layerId = "D861F68D-CC3D-4754-9BA0-60D90FAB2DB2";
name = Regular;
paths = (
{
closed = 1;
nodes = (
"70 686 LINE",
"70 0 LINE",
"158 0 LINE",
"158 303 LINE",
"342 303 LINE",
"469 0 LINE",
"567 0 LINE",
"429 319 LINE",
"506 345 OFFCURVE",
"551 411 OFFCURVE",
"551 496 CURVE SMOOTH",
"551 609 OFFCURVE",
"481 686 OFFCURVE",
"346 686 CURVE SMOOTH"
);
},
{
closed = 1;
nodes = (
"253 -60 LINE",
"253 -151 LINE",
"288 -151 LINE",
"265 -222 LINE",
"310 -222 LINE",
"339 -144 LINE",
"339 -60 LINE"
);
},
{
closed = 1;
nodes = (
"418 606 OFFCURVE",
"459 564 OFFCURVE",
"459 496 CURVE SMOOTH",
"459 428 OFFCURVE",
"413 383 OFFCURVE",
"343 383 CURVE SMOOTH",
"158 383 LINE",
"158 606 LINE",
"343 606 LINE SMOOTH"
);
}
);
width = 592;
},
{
layerId = "72E9C866-9899-4CE7-8B77-ABF2E23FF1EF";
name = Bold;
paths = (
{
closed = 1;
nodes = (
"60 686 LINE",
"60 0 LINE",
"188 0 LINE",
"188 286 LINE",
"321 286 LINE",
"435 0 LINE",
"574 0 LINE",
"442 314 LINE",
"513 343 OFFCURVE",
"557 407 OFFCURVE",
"557 490 CURVE SMOOTH",
"557 603 OFFCURVE",
"486 686 OFFCURVE",
"347 686 CURVE SMOOTH"
);
},
{
closed = 1;
nodes = (
"234 -55 LINE",
"234 -178 LINE",
"283 -178 LINE",
"248 -263 LINE",
"312 -263 LINE",
"358 -167 LINE",
"358 -55 LINE"
);
},
{
closed = 1;
nodes = (
"393 572 OFFCURVE",
"419 540 OFFCURVE",
"419 490 CURVE SMOOTH",
"419 433 OFFCURVE",
"391 399 OFFCURVE",
"329 399 CURVE SMOOTH",
"188 399 LINE",
"188 572 LINE",
"334 572 LINE SMOOTH"
);
}
);
width = 592;
}
);
unicode = 0156;
},
{
glyphname = S;
lastChange = "2014-07-03 12:03:26 -0700";
layers = (
{
anchors = (
{
name = bottom;
position = "{274, 0}";
},
{
name = top;
position = "{274, 686}";
}
);
layerId = "D861F68D-CC3D-4754-9BA0-60D90FAB2DB2";
name = Regular;
paths = (
{
closed = 1;
nodes = (
"153 698 OFFCURVE",
"55 640 OFFCURVE",
"55 514 CURVE SMOOTH",
"55 266 OFFCURVE",
"412 356 OFFCURVE",
"412 183 CURVE SMOOTH",
"412 109 OFFCURVE",
"360 69 OFFCURVE",
"268 69 CURVE SMOOTH",
"190 69 OFFCURVE",
"132 109 OFFCURVE",
"132 193 CURVE SMOOTH",
"132 199 OFFCURVE",
"133 213 OFFCURVE",
"133 214 CURVE",
"42 214 LINE",
"42 211 OFFCURVE",
"41 201 OFFCURVE",
"41 194 CURVE SMOOTH",
"41 43 OFFCURVE",
"147 -12 OFFCURVE",
"272 -12 CURVE SMOOTH",
"405 -12 OFFCURVE",
"504 44 OFFCURVE",
"504 198 CURVE SMOOTH",
"504 439 OFFCURVE",
"148 357 OFFCURVE",
"148 521 CURVE SMOOTH",
"148 587 OFFCURVE",
"203 617 OFFCURVE",
"275 617 CURVE SMOOTH",
"344 617 OFFCURVE",
"397 578 OFFCURVE",
"397 508 CURVE SMOOTH",
"397 493 LINE",
"488 493 LINE",
"488 505 LINE SMOOTH",
"488 642 OFFCURVE",
"392 698 OFFCURVE",
"273 698 CURVE SMOOTH"
);
}
);
width = 547;
},
{
anchors = (
{
name = bottom;
position = "{274, 0}";
},
{
name = top;
position = "{274, 686}";
}
);
layerId = "72E9C866-9899-4CE7-8B77-ABF2E23FF1EF";
name = Bold;
paths = (
{
closed = 1;
nodes = (
"152 698 OFFCURVE",
"44 636 OFFCURVE",
"44 506 CURVE SMOOTH",
"44 245 OFFCURVE",
"377 342 OFFCURVE",
"377 179 CURVE SMOOTH",
"377 139 OFFCURVE",
"350 98 OFFCURVE",
"273 98 CURVE SMOOTH",
"203 98 OFFCURVE",
"163 142 OFFCURVE",
"163 207 CURVE SMOOTH",
"163 212 OFFCURVE",
"164 221 OFFCURVE",
"164 223 CURVE",
"31 223 LINE",
"31 218 OFFCURVE",
"30 209 OFFCURVE",
"30 201 CURVE SMOOTH",
"30 60 OFFCURVE",
"141 -12 OFFCURVE",
"267 -12 CURVE SMOOTH",
"409 -12 OFFCURVE",
"509 49 OFFCURVE",
"509 206 CURVE SMOOTH",
"509 458 OFFCURVE",
"176 376 OFFCURVE",
"176 515 CURVE SMOOTH",
"176 557 OFFCURVE",
"210 588 OFFCURVE",
"272 588 CURVE SMOOTH",
"330 588 OFFCURVE",
"365 551 OFFCURVE",
"365 493 CURVE SMOOTH",
"365 484 LINE",
"496 484 LINE",
"496 496 LINE SMOOTH",
"496 637 OFFCURVE",
"395 698 OFFCURVE",
"273 698 CURVE SMOOTH"
);
}
);
width = 547;
}
);
unicode = 0053;
},
{
glyphname = Sacute;
lastChange = "2014-07-03 12:03:26 -0700";
layers = (
{
layerId = "D861F68D-CC3D-4754-9BA0-60D90FAB2DB2";
name = Regular;
paths = (
{
closed = 1;
nodes = (
"153 698 OFFCURVE",
"55 640 OFFCURVE",
"55 514 CURVE SMOOTH",
"55 266 OFFCURVE",
"412 356 OFFCURVE",
"412 183 CURVE SMOOTH",
"412 109 OFFCURVE",
"360 69 OFFCURVE",
"268 69 CURVE SMOOTH",
"190 69 OFFCURVE",
"132 109 OFFCURVE",
"132 193 CURVE SMOOTH",
"132 199 OFFCURVE",
"133 213 OFFCURVE",
"133 214 CURVE",
"42 214 LINE",
"42 211 OFFCURVE",
"41 201 OFFCURVE",
"41 194 CURVE SMOOTH",
"41 43 OFFCURVE",
"147 -12 OFFCURVE",
"272 -12 CURVE SMOOTH",
"405 -12 OFFCURVE",
"504 44 OFFCURVE",
"504 198 CURVE SMOOTH",
"504 439 OFFCURVE",
"148 357 OFFCURVE",
"148 521 CURVE SMOOTH",
"148 587 OFFCURVE",
"203 617 OFFCURVE",
"275 617 CURVE SMOOTH",
"344 617 OFFCURVE",
"397 578 OFFCURVE",
"397 508 CURVE SMOOTH",
"397 493 LINE",
"488 493 LINE",
"488 505 LINE SMOOTH",
"488 642 OFFCURVE",
"392 698 OFFCURVE",
"273 698 CURVE SMOOTH"
);
},
{
closed = 1;
nodes = (
"300 883 LINE",
"214 751 LINE",
"283 751 LINE",
"391 880 LINE",
"390 883 LINE"
);
}
);
width = 547;
},
{
layerId = "72E9C866-9899-4CE7-8B77-ABF2E23FF1EF";
name = Bold;
paths = (
{
closed = 1;
nodes = (
"152 698 OFFCURVE",
"44 636 OFFCURVE",
"44 506 CURVE SMOOTH",
"44 245 OFFCURVE",
"377 342 OFFCURVE",
"377 179 CURVE SMOOTH",
"377 139 OFFCURVE",
"350 98 OFFCURVE",
"273 98 CURVE SMOOTH",
"203 98 OFFCURVE",
"163 142 OFFCURVE",
"163 207 CURVE SMOOTH",
"163 212 OFFCURVE",
"164 221 OFFCURVE",
"164 223 CURVE",
"31 223 LINE",
"31 218 OFFCURVE",
"30 209 OFFCURVE",
"30 201 CURVE SMOOTH",
"30 60 OFFCURVE",
"141 -12 OFFCURVE",
"267 -12 CURVE SMOOTH",
"409 -12 OFFCURVE",
"509 49 OFFCURVE",
"509 206 CURVE SMOOTH",
"509 458 OFFCURVE",
"176 376 OFFCURVE",
"176 515 CURVE SMOOTH",
"176 557 OFFCURVE",
"210 588 OFFCURVE",
"272 588 CURVE SMOOTH",
"330 588 OFFCURVE",
"365 551 OFFCURVE",
"365 493 CURVE SMOOTH",
"365 484 LINE",
"496 484 LINE",
"496 496 LINE SMOOTH",
"496 637 OFFCURVE",
"395 698 OFFCURVE",
"273 698 CURVE SMOOTH"
);
},
{
closed = 1;
nodes = (
"291 883 LINE",
"205 751 LINE",
"304 751 LINE",
"412 880 LINE",
"411 883 LINE"
);
}
);
width = 547;
}
);
unicode = 015A;
},
{
glyphname = Scaron;
lastChange = "2014-07-03 12:03:26 -0700";
layers = (
{
layerId = "D861F68D-CC3D-4754-9BA0-60D90FAB2DB2";
name = Regular;
paths = (
{
closed = 1;
nodes = (
"153 698 OFFCURVE",
"55 640 OFFCURVE",
"55 514 CURVE SMOOTH",
"55 266 OFFCURVE",
"412 356 OFFCURVE",
"412 183 CURVE SMOOTH",
"412 109 OFFCURVE",
"360 69 OFFCURVE",
"268 69 CURVE SMOOTH",
"190 69 OFFCURVE",
"132 109 OFFCURVE",
"132 193 CURVE SMOOTH",
"132 199 OFFCURVE",
"133 213 OFFCURVE",
"133 214 CURVE",
"42 214 LINE",
"42 211 OFFCURVE",
"41 201 OFFCURVE",
"41 194 CURVE SMOOTH",
"41 43 OFFCURVE",
"147 -12 OFFCURVE",
"272 -12 CURVE SMOOTH",
"405 -12 OFFCURVE",
"504 44 OFFCURVE",
"504 198 CURVE SMOOTH",
"504 439 OFFCURVE",
"148 357 OFFCURVE",
"148 521 CURVE SMOOTH",
"148 587 OFFCURVE",
"203 617 OFFCURVE",
"275 617 CURVE SMOOTH",
"344 617 OFFCURVE",
"397 578 OFFCURVE",
"397 508 CURVE SMOOTH",
"397 493 LINE",
"488 493 LINE",
"488 505 LINE SMOOTH",
"488 642 OFFCURVE",
"392 698 OFFCURVE",
"273 698 CURVE SMOOTH"
);
},
{
closed = 1;
nodes = (
"398 883 LINE",
"318 883 LINE",
"273 804 LINE",
"229 883 LINE",
"149 883 LINE",
"234 748 LINE",
"312 748 LINE"
);
}
);
width = 547;
},
{
layerId = "72E9C866-9899-4CE7-8B77-ABF2E23FF1EF";
name = Bold;
paths = (
{
closed = 1;
nodes = (
"152 698 OFFCURVE",
"44 636 OFFCURVE",
"44 506 CURVE SMOOTH",
"44 245 OFFCURVE",
"377 342 OFFCURVE",
"377 179 CURVE SMOOTH",
"377 139 OFFCURVE",
"350 98 OFFCURVE",
"273 98 CURVE SMOOTH",
"203 98 OFFCURVE",
"163 142 OFFCURVE",
"163 207 CURVE SMOOTH",
"163 212 OFFCURVE",
"164 221 OFFCURVE",
"164 223 CURVE",
"31 223 LINE",
"31 218 OFFCURVE",
"30 209 OFFCURVE",
"30 201 CURVE SMOOTH",
"30 60 OFFCURVE",
"141 -12 OFFCURVE",
"267 -12 CURVE SMOOTH",
"409 -12 OFFCURVE",
"509 49 OFFCURVE",
"509 206 CURVE SMOOTH",
"509 458 OFFCURVE",
"176 376 OFFCURVE",
"176 515 CURVE SMOOTH",
"176 557 OFFCURVE",
"210 588 OFFCURVE",
"272 588 CURVE SMOOTH",
"330 588 OFFCURVE",
"365 551 OFFCURVE",
"365 493 CURVE SMOOTH",
"365 484 LINE",
"496 484 LINE",
"496 496 LINE SMOOTH",
"496 637 OFFCURVE",
"395 698 OFFCURVE",
"273 698 CURVE SMOOTH"
);
},
{
closed = 1;
nodes = (
"408 883 LINE",
"318 883 LINE",
"274 814 LINE",
"229 883 LINE",
"139 883 LINE",
"225 748 LINE",
"323 748 LINE"
);
}
);
width = 547;
}
);
unicode = 0160;
},
{
glyphname = Scedilla;
lastChange = "2014-07-03 12:03:26 -0700";
layers = (
{
layerId = "D861F68D-CC3D-4754-9BA0-60D90FAB2DB2";
name = Regular;
paths = (
{
closed = 1;
nodes = (
"153 698 OFFCURVE",
"55 640 OFFCURVE",
"55 514 CURVE SMOOTH",
"55 266 OFFCURVE",
"412 356 OFFCURVE",
"412 183 CURVE SMOOTH",
"412 109 OFFCURVE",
"360 69 OFFCURVE",
"268 69 CURVE SMOOTH",
"190 69 OFFCURVE",
"132 109 OFFCURVE",
"132 193 CURVE SMOOTH",
"132 199 OFFCURVE",
"133 213 OFFCURVE",
"133 214 CURVE",
"42 214 LINE",
"42 211 OFFCURVE",
"41 201 OFFCURVE",
"41 194 CURVE SMOOTH",
"41 58 OFFCURVE",
"126 0 OFFCURVE",
"235 -10 CURVE",
"225 -77 LINE",
"258 -77 LINE SMOOTH",
"284 -77 OFFCURVE",
"292 -85 OFFCURVE",
"292 -101 CURVE SMOOTH",
"292 -120 OFFCURVE",
"278 -125 OFFCURVE",
"256 -125 CURVE SMOOTH",
"180 -125 LINE",
"180 -174 LINE",
"204 -179 OFFCURVE",
"235 -182 OFFCURVE",
"264 -182 CURVE SMOOTH",
"304 -182 OFFCURVE",
"368 -168 OFFCURVE",
"368 -101 CURVE SMOOTH",
"368 -55 OFFCURVE",
"330 -39 OFFCURVE",
"287 -36 CURVE",
"290 -11 LINE",
"414 -6 OFFCURVE",
"504 51 OFFCURVE",
"504 198 CURVE SMOOTH",
"504 439 OFFCURVE",
"148 357 OFFCURVE",
"148 521 CURVE SMOOTH",
"148 587 OFFCURVE",
"203 617 OFFCURVE",
"275 617 CURVE SMOOTH",
"344 617 OFFCURVE",
"397 578 OFFCURVE",
"397 508 CURVE SMOOTH",
"397 493 LINE",
"488 493 LINE",
"488 505 LINE SMOOTH",
"488 642 OFFCURVE",
"392 698 OFFCURVE",
"273 698 CURVE SMOOTH"
);
}
);
width = 547;
},
{
layerId = "72E9C866-9899-4CE7-8B77-ABF2E23FF1EF";
name = Bold;
paths = (
{
closed = 1;
nodes = (
"152 698 OFFCURVE",
"44 636 OFFCURVE",
"44 506 CURVE SMOOTH",
"44 245 OFFCURVE",
"377 342 OFFCURVE",
"377 179 CURVE SMOOTH",
"377 139 OFFCURVE",
"350 98 OFFCURVE",
"273 98 CURVE SMOOTH",
"203 98 OFFCURVE",
"163 142 OFFCURVE",
"163 207 CURVE SMOOTH",
"163 212 OFFCURVE",
"164 221 OFFCURVE",
"164 223 CURVE",
"31 223 LINE",
"31 218 OFFCURVE",
"30 209 OFFCURVE",
"30 201 CURVE SMOOTH",
"30 75 OFFCURVE",
"117 4 OFFCURVE",
"225 -9 CURVE",
"217 -77 LINE",
"250 -77 LINE SMOOTH",
"276 -77 OFFCURVE",
"284 -85 OFFCURVE",
"284 -101 CURVE SMOOTH",
"284 -120 OFFCURVE",
"270 -125 OFFCURVE",
"248 -125 CURVE SMOOTH",
"177 -125 LINE",
"177 -174 LINE",
"201 -179 OFFCURVE",
"233 -182 OFFCURVE",
"261 -182 CURVE SMOOTH",
"304 -182 OFFCURVE",
"370 -168 OFFCURVE",
"370 -101 CURVE SMOOTH",
"370 -55 OFFCURVE",
"334 -36 OFFCURVE",
"291 -33 CURVE",
"293 -11 LINE",
"421 -3 OFFCURVE",
"509 59 OFFCURVE",
"509 206 CURVE SMOOTH",
"509 458 OFFCURVE",
"176 376 OFFCURVE",
"176 515 CURVE SMOOTH",
"176 557 OFFCURVE",
"210 588 OFFCURVE",
"272 588 CURVE SMOOTH",
"330 588 OFFCURVE",
"365 551 OFFCURVE",
"365 493 CURVE SMOOTH",
"365 484 LINE",
"496 484 LINE",
"496 496 LINE SMOOTH",
"496 637 OFFCURVE",
"395 698 OFFCURVE",
"273 698 CURVE SMOOTH"
);
}
);
width = 547;
}
);
unicode = 015E;
},
{
glyphname = Scircumflex;
lastChange = "2014-07-03 12:03:26 -0700";
layers = (
{
layerId = "D861F68D-CC3D-4754-9BA0-60D90FAB2DB2";
name = Regular;
paths = (
{
closed = 1;
nodes = (
"153 698 OFFCURVE",
"55 640 OFFCURVE",
"55 514 CURVE SMOOTH",
"55 266 OFFCURVE",
"412 356 OFFCURVE",
"412 183 CURVE SMOOTH",
"412 109 OFFCURVE",
"360 69 OFFCURVE",
"268 69 CURVE SMOOTH",
"190 69 OFFCURVE",
"132 109 OFFCURVE",
"132 193 CURVE SMOOTH",
"132 199 OFFCURVE",
"133 213 OFFCURVE",
"133 214 CURVE",
"42 214 LINE",
"42 211 OFFCURVE",
"41 201 OFFCURVE",
"41 194 CURVE SMOOTH",
"41 43 OFFCURVE",
"147 -12 OFFCURVE",
"272 -12 CURVE SMOOTH",
"405 -12 OFFCURVE",
"504 44 OFFCURVE",
"504 198 CURVE SMOOTH",
"504 439 OFFCURVE",
"148 357 OFFCURVE",
"148 521 CURVE SMOOTH",
"148 587 OFFCURVE",
"203 617 OFFCURVE",
"275 617 CURVE SMOOTH",
"344 617 OFFCURVE",
"397 578 OFFCURVE",
"397 508 CURVE SMOOTH",
"397 493 LINE",
"488 493 LINE",
"488 505 LINE SMOOTH",
"488 642 OFFCURVE",
"392 698 OFFCURVE",
"273 698 CURVE SMOOTH"
);
},
{
closed = 1;
nodes = (
"313 882 LINE",
"235 882 LINE",
"149 747 LINE",
"229 747 LINE",
"274 826 LINE",
"318 747 LINE",
"398 747 LINE"
);
}
);
width = 547;
},
{
layerId = "72E9C866-9899-4CE7-8B77-ABF2E23FF1EF";
name = Bold;
paths = (
{
closed = 1;
nodes = (
"152 698 OFFCURVE",
"44 636 OFFCURVE",
"44 506 CURVE SMOOTH",
"44 245 OFFCURVE",
"377 342 OFFCURVE",
"377 179 CURVE SMOOTH",
"377 139 OFFCURVE",
"350 98 OFFCURVE",
"273 98 CURVE SMOOTH",
"203 98 OFFCURVE",
"163 142 OFFCURVE",
"163 207 CURVE SMOOTH",
"163 212 OFFCURVE",
"164 221 OFFCURVE",
"164 223 CURVE",
"31 223 LINE",
"31 218 OFFCURVE",
"30 209 OFFCURVE",
"30 201 CURVE SMOOTH",
"30 60 OFFCURVE",
"141 -12 OFFCURVE",
"267 -12 CURVE SMOOTH",
"409 -12 OFFCURVE",
"509 49 OFFCURVE",
"509 206 CURVE SMOOTH",
"509 458 OFFCURVE",
"176 376 OFFCURVE",
"176 515 CURVE SMOOTH",
"176 557 OFFCURVE",
"210 588 OFFCURVE",
"272 588 CURVE SMOOTH",
"330 588 OFFCURVE",
"365 551 OFFCURVE",
"365 493 CURVE SMOOTH",
"365 484 LINE",
"496 484 LINE",
"496 496 LINE SMOOTH",
"496 637 OFFCURVE",
"395 698 OFFCURVE",
"273 698 CURVE SMOOTH"
);
},
{
closed = 1;
nodes = (
"323 883 LINE",
"225 883 LINE",
"139 748 LINE",
"229 748 LINE",
"274 817 LINE",
"318 748 LINE",
"408 748 LINE"
);
}
);
width = 547;
}
);
unicode = 015C;
},
{
glyphname = T;
lastChange = "2014-07-03 12:03:26 -0700";
layers = (
{
anchors = (
{
name = bottom;
position = "{251, 0}";
},
{
name = center;
position = "{251, 343}";
},
{
name = top;
position = "{251, 686}";
}
);
layerId = "D861F68D-CC3D-4754-9BA0-60D90FAB2DB2";
name = Regular;
paths = (
{
closed = 1;
nodes = (
"19 686 LINE",
"19 606 LINE",
"206 606 LINE",
"206 0 LINE",
"294 0 LINE",
"294 606 LINE",
"481 606 LINE",
"481 686 LINE"
);
}
);
width = 501;
},
{
anchors = (
{
name = bottom;
position = "{251, 0}";
},
{
name = center;
position = "{251, 343}";
},
{
name = top;
position = "{251, 686}";
}
);
layerId = "72E9C866-9899-4CE7-8B77-ABF2E23FF1EF";
name = Bold;
paths = (
{
closed = 1;
nodes = (
"17 686 LINE",
"17 572 LINE",
"187 572 LINE",
"187 0 LINE",
"315 0 LINE",
"315 572 LINE",
"485 572 LINE",
"485 686 LINE"
);
}
);
width = 501;
}
);
unicode = 0054;
},
{
glyphname = Tbar;
lastChange = "2014-07-03 12:03:26 -0700";
layers = (
{
layerId = "D861F68D-CC3D-4754-9BA0-60D90FAB2DB2";
name = Regular;
paths = (
{
closed = 1;
nodes = (
"19 686 LINE",
"19 606 LINE",
"206 606 LINE",
"206 393 LINE",
"77 393 LINE",
"77 320 LINE",
"206 320 LINE",
"206 0 LINE",
"294 0 LINE",
"294 320 LINE",
"425 320 LINE",
"425 393 LINE",
"294 393 LINE",
"294 606 LINE",
"481 606 LINE",
"481 686 LINE"
);
}
);
width = 501;
},
{
layerId = "72E9C866-9899-4CE7-8B77-ABF2E23FF1EF";
name = Bold;
paths = (
{
closed = 1;
nodes = (
"17 686 LINE",
"17 572 LINE",
"187 572 LINE",
"187 393 LINE",
"74 393 LINE",
"74 306 LINE",
"187 306 LINE",
"187 0 LINE",
"315 0 LINE",
"315 306 LINE",
"427 306 LINE",
"427 393 LINE",
"315 393 LINE",
"315 572 LINE",
"485 572 LINE",
"485 686 LINE"
);
}
);
width = 501;
}
);
unicode = 0166;
},
{
glyphname = Tcaron;
lastChange = "2014-07-03 12:03:26 -0700";
layers = (
{
layerId = "D861F68D-CC3D-4754-9BA0-60D90FAB2DB2";
name = Regular;
paths = (
{
closed = 1;
nodes = (
"19 686 LINE",
"19 606 LINE",
"206 606 LINE",
"206 0 LINE",
"294 0 LINE",
"294 606 LINE",
"481 606 LINE",
"481 686 LINE"
);
},
{
closed = 1;
nodes = (
"295 883 LINE",
"250 804 LINE",
"206 883 LINE",
"126 883 LINE",
"211 748 LINE",
"289 748 LINE",
"375 883 LINE"
);
}
);
width = 501;
},
{
layerId = "72E9C866-9899-4CE7-8B77-ABF2E23FF1EF";
name = Bold;
paths = (
{
closed = 1;
nodes = (
"17 686 LINE",
"17 572 LINE",
"187 572 LINE",
"187 0 LINE",
"315 0 LINE",
"315 572 LINE",
"485 572 LINE",
"485 686 LINE"
);
},
{
closed = 1;
nodes = (
"295 883 LINE",
"251 814 LINE",
"206 883 LINE",
"116 883 LINE",
"202 748 LINE",
"300 748 LINE",
"385 883 LINE"
);
}
);
width = 501;
}
);
unicode = 0164;
},
{
glyphname = Tcommaaccent;
lastChange = "2014-07-03 12:03:26 -0700";
layers = (
{
layerId = "D861F68D-CC3D-4754-9BA0-60D90FAB2DB2";
name = Regular;
paths = (
{
closed = 1;
nodes = (
"19 686 LINE",
"19 606 LINE",
"206 606 LINE",
"206 0 LINE",
"294 0 LINE",
"294 606 LINE",
"481 606 LINE",
"481 686 LINE"
);
},
{
closed = 1;
nodes = (
"208 -60 LINE",
"208 -151 LINE",
"242 -151 LINE",
"220 -222 LINE",
"264 -222 LINE",
"293 -144 LINE",
"293 -60 LINE"
);
}
);
width = 501;
},
{
layerId = "72E9C866-9899-4CE7-8B77-ABF2E23FF1EF";
name = Bold;
paths = (
{
closed = 1;
nodes = (
"17 686 LINE",
"17 572 LINE",
"187 572 LINE",
"187 0 LINE",
"315 0 LINE",
"315 572 LINE",
"485 572 LINE",
"485 686 LINE"
);
},
{
closed = 1;
nodes = (
"189 -55 LINE",
"189 -178 LINE",
"238 -178 LINE",
"202 -263 LINE",
"267 -263 LINE",
"312 -167 LINE",
"312 -55 LINE"
);
}
);
width = 501;
}
);
unicode = 021A;
},
{
glyphname = U;
lastChange = "2014-07-03 12:03:26 -0700";
layers = (
{
anchors = (
{
name = ogonek;
position = "{533, 10}";
},
{
name = top;
position = "{296, 686}";
}
);
layerId = "D861F68D-CC3D-4754-9BA0-60D90FAB2DB2";
name = Regular;
paths = (
{
closed = 1;
nodes = (
"434 686 LINE",
"434 218 LINE SMOOTH",
"434 121 OFFCURVE",
"382 69 OFFCURVE",
"296 69 CURVE SMOOTH",
"210 69 OFFCURVE",
"158 121 OFFCURVE",
"158 218 CURVE SMOOTH",
"158 686 LINE",
"70 686 LINE",
"70 223 LINE SMOOTH",
"70 69 OFFCURVE",
"155 -12 OFFCURVE",
"296 -12 CURVE SMOOTH",
"437 -12 OFFCURVE",
"522 69 OFFCURVE",
"522 223 CURVE SMOOTH",
"522 686 LINE"
);
}
);
width = 592;
},
{
anchors = (
{
name = ogonek;
position = "{533, 10}";
},
{
name = top;
position = "{296, 686}";
}
);
layerId = "72E9C866-9899-4CE7-8B77-ABF2E23FF1EF";
name = Bold;
paths = (
{
closed = 1;
nodes = (
"404 686 LINE",
"404 219 LINE SMOOTH",
"404 140 OFFCURVE",
"364 98 OFFCURVE",
"296 98 CURVE SMOOTH",
"228 98 OFFCURVE",
"189 140 OFFCURVE",
"189 219 CURVE SMOOTH",
"189 686 LINE",
"61 686 LINE",
"61 215 LINE SMOOTH",
"61 66 OFFCURVE",
"149 -12 OFFCURVE",
"296 -12 CURVE SMOOTH",
"443 -12 OFFCURVE",
"532 66 OFFCURVE",
"532 215 CURVE SMOOTH",
"532 686 LINE"
);
}
);
width = 592;
}
);
unicode = 0055;
},
{
glyphname = Uacute;
lastChange = "2014-07-03 12:03:26 -0700";
layers = (
{
layerId = "D861F68D-CC3D-4754-9BA0-60D90FAB2DB2";
name = Regular;
paths = (
{
closed = 1;
nodes = (
"434 686 LINE",
"434 218 LINE SMOOTH",
"434 121 OFFCURVE",
"382 69 OFFCURVE",
"296 69 CURVE SMOOTH",
"210 69 OFFCURVE",
"158 121 OFFCURVE",
"158 218 CURVE SMOOTH",
"158 686 LINE",
"70 686 LINE",
"70 223 LINE SMOOTH",
"70 69 OFFCURVE",
"155 -12 OFFCURVE",
"296 -12 CURVE SMOOTH",
"437 -12 OFFCURVE",
"522 69 OFFCURVE",
"522 223 CURVE SMOOTH",
"522 686 LINE"
);
},
{
closed = 1;
nodes = (
"322 883 LINE",
"236 751 LINE",
"306 751 LINE",
"413 880 LINE",
"412 883 LINE"
);
}
);
width = 592;
},
{
layerId = "72E9C866-9899-4CE7-8B77-ABF2E23FF1EF";
name = Bold;
paths = (
{
closed = 1;
nodes = (
"404 686 LINE",
"404 219 LINE SMOOTH",
"404 140 OFFCURVE",
"364 98 OFFCURVE",
"296 98 CURVE SMOOTH",
"228 98 OFFCURVE",
"189 140 OFFCURVE",
"189 219 CURVE SMOOTH",
"189 686 LINE",
"61 686 LINE",
"61 215 LINE SMOOTH",
"61 66 OFFCURVE",
"149 -12 OFFCURVE",
"296 -12 CURVE SMOOTH",
"443 -12 OFFCURVE",
"532 66 OFFCURVE",
"532 215 CURVE SMOOTH",
"532 686 LINE"
);
},
{
closed = 1;
nodes = (
"313 883 LINE",
"227 751 LINE",
"326 751 LINE",
"434 880 LINE",
"433 883 LINE"
);
}
);
width = 592;
}
);
unicode = 00DA;
},
{
glyphname = Ubreve;
lastChange = "2014-07-03 12:03:26 -0700";
layers = (
{
layerId = "D861F68D-CC3D-4754-9BA0-60D90FAB2DB2";
name = Regular;
paths = (
{
closed = 1;
nodes = (
"434 686 LINE",
"434 218 LINE SMOOTH",
"434 121 OFFCURVE",
"382 69 OFFCURVE",
"296 69 CURVE SMOOTH",
"210 69 OFFCURVE",
"158 121 OFFCURVE",
"158 218 CURVE SMOOTH",
"158 686 LINE",
"70 686 LINE",
"70 223 LINE SMOOTH",
"70 69 OFFCURVE",
"155 -12 OFFCURVE",
"296 -12 CURVE SMOOTH",
"437 -12 OFFCURVE",
"522 69 OFFCURVE",
"522 223 CURVE SMOOTH",
"522 686 LINE"
);
},
{
closed = 1;
nodes = (
"356 883 LINE",
"354 869 OFFCURVE",
"330 850 OFFCURVE",
"296 850 CURVE SMOOTH",
"262 850 OFFCURVE",
"240 869 OFFCURVE",
"237 883 CURVE",
"172 883 LINE",
"172 838 OFFCURVE",
"220 786 OFFCURVE",
"296 786 CURVE SMOOTH",
"373 786 OFFCURVE",
"420 838 OFFCURVE",
"420 883 CURVE"
);
}
);
width = 592;
},
{
layerId = "72E9C866-9899-4CE7-8B77-ABF2E23FF1EF";
name = Bold;
paths = (
{
closed = 1;
nodes = (
"404 686 LINE",
"404 219 LINE SMOOTH",
"404 140 OFFCURVE",
"364 98 OFFCURVE",
"296 98 CURVE SMOOTH",
"228 98 OFFCURVE",
"189 140 OFFCURVE",
"189 219 CURVE SMOOTH",
"189 686 LINE",
"61 686 LINE",
"61 215 LINE SMOOTH",
"61 66 OFFCURVE",
"149 -12 OFFCURVE",
"296 -12 CURVE SMOOTH",
"443 -12 OFFCURVE",
"532 66 OFFCURVE",
"532 215 CURVE SMOOTH",
"532 686 LINE"
);
},
{
closed = 1;
nodes = (
"355 883 LINE",
"354 869 OFFCURVE",
"330 850 OFFCURVE",
"295 850 CURVE SMOOTH",
"263 850 OFFCURVE",
"240 869 OFFCURVE",
"237 883 CURVE",
"163 883 LINE",
"163 833 OFFCURVE",
"213 776 OFFCURVE",
"295 776 CURVE SMOOTH",
"378 776 OFFCURVE",
"430 833 OFFCURVE",
"430 883 CURVE"
);
}
);
width = 592;
}
);
unicode = 016C;
},
{
glyphname = Ucircumflex;
lastChange = "2014-07-03 12:03:26 -0700";
layers = (
{
layerId = "D861F68D-CC3D-4754-9BA0-60D90FAB2DB2";
name = Regular;
paths = (
{
closed = 1;
nodes = (
"434 686 LINE",
"434 218 LINE SMOOTH",
"434 121 OFFCURVE",
"382 69 OFFCURVE",
"296 69 CURVE SMOOTH",
"210 69 OFFCURVE",
"158 121 OFFCURVE",
"158 218 CURVE SMOOTH",
"158 686 LINE",
"70 686 LINE",
"70 223 LINE SMOOTH",
"70 69 OFFCURVE",
"155 -12 OFFCURVE",
"296 -12 CURVE SMOOTH",
"437 -12 OFFCURVE",
"522 69 OFFCURVE",
"522 223 CURVE SMOOTH",
"522 686 LINE"
);
},
{
closed = 1;
nodes = (
"257 882 LINE",
"171 747 LINE",
"251 747 LINE",
"297 826 LINE",
"341 747 LINE",
"421 747 LINE",
"335 882 LINE"
);
}
);
width = 592;
},
{
layerId = "72E9C866-9899-4CE7-8B77-ABF2E23FF1EF";
name = Bold;
paths = (
{
closed = 1;
nodes = (
"404 686 LINE",
"404 219 LINE SMOOTH",
"404 140 OFFCURVE",
"364 98 OFFCURVE",
"296 98 CURVE SMOOTH",
"228 98 OFFCURVE",
"189 140 OFFCURVE",
"189 219 CURVE SMOOTH",
"189 686 LINE",
"61 686 LINE",
"61 215 LINE SMOOTH",
"61 66 OFFCURVE",
"149 -12 OFFCURVE",
"296 -12 CURVE SMOOTH",
"443 -12 OFFCURVE",
"532 66 OFFCURVE",
"532 215 CURVE SMOOTH",
"532 686 LINE"
);
},
{
closed = 1;
nodes = (
"248 883 LINE",
"162 748 LINE",
"251 748 LINE",
"296 817 LINE",
"341 748 LINE",
"431 748 LINE",
"346 883 LINE"
);
}
);
width = 592;
}
);
unicode = 00DB;
},
{
glyphname = Udieresis;
lastChange = "2014-07-03 12:03:26 -0700";
layers = (
{
layerId = "D861F68D-CC3D-4754-9BA0-60D90FAB2DB2";
name = Regular;
paths = (
{
closed = 1;
nodes = (
"434 686 LINE",
"434 218 LINE SMOOTH",
"434 121 OFFCURVE",
"382 69 OFFCURVE",
"296 69 CURVE SMOOTH",
"210 69 OFFCURVE",
"158 121 OFFCURVE",
"158 218 CURVE SMOOTH",
"158 686 LINE",
"70 686 LINE",
"70 223 LINE SMOOTH",
"70 69 OFFCURVE",
"155 -12 OFFCURVE",
"296 -12 CURVE SMOOTH",
"437 -12 OFFCURVE",
"522 69 OFFCURVE",
"522 223 CURVE SMOOTH",
"522 686 LINE"
);
},
{
closed = 1;
nodes = (
"177 883 LINE",
"177 788 LINE",
"264 788 LINE",
"264 883 LINE"
);
},
{
closed = 1;
nodes = (
"327 883 LINE",
"327 788 LINE",
"415 788 LINE",
"415 883 LINE"
);
}
);
width = 592;
},
{
layerId = "72E9C866-9899-4CE7-8B77-ABF2E23FF1EF";
name = Bold;
paths = (
{
closed = 1;
nodes = (
"404 686 LINE",
"404 219 LINE SMOOTH",
"404 140 OFFCURVE",
"364 98 OFFCURVE",
"296 98 CURVE SMOOTH",
"228 98 OFFCURVE",
"189 140 OFFCURVE",
"189 219 CURVE SMOOTH",
"189 686 LINE",
"61 686 LINE",
"61 215 LINE SMOOTH",
"61 66 OFFCURVE",
"149 -12 OFFCURVE",
"296 -12 CURVE SMOOTH",
"443 -12 OFFCURVE",
"532 66 OFFCURVE",
"532 215 CURVE SMOOTH",
"532 686 LINE"
);
},
{
closed = 1;
nodes = (
"159 883 LINE",
"159 774 LINE",
"259 774 LINE",
"259 883 LINE"
);
},
{
closed = 1;
nodes = (
"333 883 LINE",
"333 774 LINE",
"434 774 LINE",
"434 883 LINE"
);
}
);
width = 592;
}
);
unicode = 00DC;
},
{
glyphname = Ugrave;
lastChange = "2014-07-03 12:03:26 -0700";
layers = (
{
layerId = "D861F68D-CC3D-4754-9BA0-60D90FAB2DB2";
name = Regular;
paths = (
{
closed = 1;
nodes = (
"434 686 LINE",
"434 218 LINE SMOOTH",
"434 121 OFFCURVE",
"382 69 OFFCURVE",
"296 69 CURVE SMOOTH",
"210 69 OFFCURVE",
"158 121 OFFCURVE",
"158 218 CURVE SMOOTH",
"158 686 LINE",
"70 686 LINE",
"70 223 LINE SMOOTH",
"70 69 OFFCURVE",
"155 -12 OFFCURVE",
"296 -12 CURVE SMOOTH",
"437 -12 OFFCURVE",
"522 69 OFFCURVE",
"522 223 CURVE SMOOTH",
"522 686 LINE"
);
},
{
closed = 1;
nodes = (
"179 883 LINE",
"178 880 LINE",
"287 751 LINE",
"355 751 LINE",
"270 883 LINE"
);
}
);
width = 592;
},
{
layerId = "72E9C866-9899-4CE7-8B77-ABF2E23FF1EF";
name = Bold;
paths = (
{
closed = 1;
nodes = (
"404 686 LINE",
"404 219 LINE SMOOTH",
"404 140 OFFCURVE",
"364 98 OFFCURVE",
"296 98 CURVE SMOOTH",
"228 98 OFFCURVE",
"189 140 OFFCURVE",
"189 219 CURVE SMOOTH",
"189 686 LINE",
"61 686 LINE",
"61 215 LINE SMOOTH",
"61 66 OFFCURVE",
"149 -12 OFFCURVE",
"296 -12 CURVE SMOOTH",
"443 -12 OFFCURVE",
"532 66 OFFCURVE",
"532 215 CURVE SMOOTH",
"532 686 LINE"
);
},
{
closed = 1;
nodes = (
"159 883 LINE",
"158 880 LINE",
"266 751 LINE",
"365 751 LINE",
"279 883 LINE"
);
}
);
width = 592;
}
);
unicode = 00D9;
},
{
glyphname = Uhungarumlaut;
lastChange = "2014-07-03 12:03:26 -0700";
layers = (
{
layerId = "D861F68D-CC3D-4754-9BA0-60D90FAB2DB2";
name = Regular;
paths = (
{
closed = 1;
nodes = (
"434 686 LINE",
"434 218 LINE SMOOTH",
"434 121 OFFCURVE",
"382 69 OFFCURVE",
"296 69 CURVE SMOOTH",
"210 69 OFFCURVE",
"158 121 OFFCURVE",
"158 218 CURVE SMOOTH",
"158 686 LINE",
"70 686 LINE",
"70 223 LINE SMOOTH",
"70 69 OFFCURVE",
"155 -12 OFFCURVE",
"296 -12 CURVE SMOOTH",
"437 -12 OFFCURVE",
"522 69 OFFCURVE",
"522 223 CURVE SMOOTH",
"522 686 LINE"
);
},
{
closed = 1;
nodes = (
"262 883 LINE",
"200 751 LINE",
"269 751 LINE",
"353 880 LINE",
"352 883 LINE"
);
},
{
closed = 1;
nodes = (
"393 883 LINE",
"331 751 LINE",
"399 751 LINE",
"483 880 LINE",
"482 883 LINE"
);
}
);
width = 592;
},
{
layerId = "72E9C866-9899-4CE7-8B77-ABF2E23FF1EF";
name = Bold;
paths = (
{
closed = 1;
nodes = (
"404 686 LINE",
"404 219 LINE SMOOTH",
"404 140 OFFCURVE",
"364 98 OFFCURVE",
"296 98 CURVE SMOOTH",
"228 98 OFFCURVE",
"189 140 OFFCURVE",
"189 219 CURVE SMOOTH",
"189 686 LINE",
"61 686 LINE",
"61 215 LINE SMOOTH",
"61 66 OFFCURVE",
"149 -12 OFFCURVE",
"296 -12 CURVE SMOOTH",
"443 -12 OFFCURVE",
"532 66 OFFCURVE",
"532 215 CURVE SMOOTH",
"532 686 LINE"
);
},
{
closed = 1;
nodes = (
"245 883 LINE",
"183 751 LINE",
"262 751 LINE",
"346 880 LINE",
"345 883 LINE"
);
},
{
closed = 1;
nodes = (
"385 883 LINE",
"323 751 LINE",
"402 751 LINE",
"486 880 LINE",
"485 883 LINE"
);
}
);
width = 592;
}
);
unicode = 0170;
},
{
glyphname = Umacron;
lastChange = "2014-07-03 12:03:26 -0700";
layers = (
{
layerId = "D861F68D-CC3D-4754-9BA0-60D90FAB2DB2";
name = Regular;
paths = (
{
closed = 1;
nodes = (
"434 686 LINE",
"434 218 LINE SMOOTH",
"434 121 OFFCURVE",
"382 69 OFFCURVE",
"296 69 CURVE SMOOTH",
"210 69 OFFCURVE",
"158 121 OFFCURVE",
"158 218 CURVE SMOOTH",
"158 686 LINE",
"70 686 LINE",
"70 223 LINE SMOOTH",
"70 69 OFFCURVE",
"155 -12 OFFCURVE",
"296 -12 CURVE SMOOTH",
"437 -12 OFFCURVE",
"522 69 OFFCURVE",
"522 223 CURVE SMOOTH",
"522 686 LINE"
);
},
{
closed = 1;
nodes = (
"171 831 LINE",
"171 759 LINE",
"421 759 LINE",
"421 831 LINE"
);
}
);
width = 592;
},
{
layerId = "72E9C866-9899-4CE7-8B77-ABF2E23FF1EF";
name = Bold;
paths = (
{
closed = 1;
nodes = (
"404 686 LINE",
"404 219 LINE SMOOTH",
"404 140 OFFCURVE",
"364 98 OFFCURVE",
"296 98 CURVE SMOOTH",
"228 98 OFFCURVE",
"189 140 OFFCURVE",
"189 219 CURVE SMOOTH",
"189 686 LINE",
"61 686 LINE",
"61 215 LINE SMOOTH",
"61 66 OFFCURVE",
"149 -12 OFFCURVE",
"296 -12 CURVE SMOOTH",
"443 -12 OFFCURVE",
"532 66 OFFCURVE",
"532 215 CURVE SMOOTH",
"532 686 LINE"
);
},
{
closed = 1;
nodes = (
"168 846 LINE",
"168 759 LINE",
"424 759 LINE",
"424 846 LINE"
);
}
);
width = 592;
}
);
unicode = 016A;
},
{
glyphname = Uogonek;
lastChange = "2014-07-03 12:03:26 -0700";
layers = (
{
layerId = "D861F68D-CC3D-4754-9BA0-60D90FAB2DB2";
name = Regular;
paths = (
{
closed = 1;
nodes = (
"434 686 LINE",
"434 218 LINE SMOOTH",
"434 121 OFFCURVE",
"382 69 OFFCURVE",
"296 69 CURVE SMOOTH",
"210 69 OFFCURVE",
"158 121 OFFCURVE",
"158 218 CURVE SMOOTH",
"158 686 LINE",
"70 686 LINE",
"70 223 LINE SMOOTH",
"70 69 OFFCURVE",
"155 -12 OFFCURVE",
"296 -12 CURVE SMOOTH",
"313 -12 OFFCURVE",
"325 -11 OFFCURVE",
"337 -8 CURVE",
"334 6 LINE",
"310 -19 OFFCURVE",
"292 -47 OFFCURVE",
"292 -92 CURVE SMOOTH",
"292 -161 OFFCURVE",
"343 -182 OFFCURVE",
"386 -182 CURVE SMOOTH",
"406 -182 OFFCURVE",
"426 -177 OFFCURVE",
"447 -168 CURVE",
"447 -117 LINE",
"416 -117 LINE SMOOTH",
"382 -117 OFFCURVE",
"370 -90 OFFCURVE",
"370 -62 CURVE SMOOTH",
"370 -35 OFFCURVE",
"385 -9 OFFCURVE",
"397 5 CURVE",
"476 37 OFFCURVE",
"522 110 OFFCURVE",
"522 223 CURVE SMOOTH",
"522 686 LINE"
);
}
);
width = 592;
},
{
layerId = "72E9C866-9899-4CE7-8B77-ABF2E23FF1EF";
name = Bold;
paths = (
{
closed = 1;
nodes = (
"404 686 LINE",
"404 227 LINE SMOOTH",
"404 143 OFFCURVE",
"364 98 OFFCURVE",
"296 98 CURVE SMOOTH",
"228 98 OFFCURVE",
"189 143 OFFCURVE",
"189 227 CURVE SMOOTH",
"189 686 LINE",
"61 686 LINE",
"61 223 LINE SMOOTH",
"61 69 OFFCURVE",
"149 -12 OFFCURVE",
"296 -12 CURVE SMOOTH",
"317 -12 OFFCURVE",
"336 -12 OFFCURVE",
"357 -8 CURVE",
"328 11 LINE",
"301 -14 OFFCURVE",
"277 -45 OFFCURVE",
"277 -95 CURVE SMOOTH",
"277 -164 OFFCURVE",
"330 -185 OFFCURVE",
"376 -185 CURVE SMOOTH",
"398 -185 OFFCURVE",
"419 -180 OFFCURVE",
"442 -171 CURVE",
"442 -116 LINE",
"420 -116 LINE SMOOTH",
"387 -116 OFFCURVE",
"375 -91 OFFCURVE",
"375 -65 CURVE SMOOTH",
"375 -37 OFFCURVE",
"393 -9 OFFCURVE",
"405 5 CURVE",
"486 36 OFFCURVE",
"532 110 OFFCURVE",
"532 223 CURVE SMOOTH",
"532 686 LINE"
);
}
);
width = 592;
}
);
unicode = 0172;
},
{
glyphname = Uring;
lastChange = "2014-07-03 12:03:26 -0700";
layers = (
{
layerId = "D861F68D-CC3D-4754-9BA0-60D90FAB2DB2";
name = Regular;
paths = (
{
closed = 1;
nodes = (
"434 686 LINE",
"434 218 LINE SMOOTH",
"434 121 OFFCURVE",
"382 69 OFFCURVE",
"296 69 CURVE SMOOTH",
"210 69 OFFCURVE",
"158 121 OFFCURVE",
"158 218 CURVE SMOOTH",
"158 686 LINE",
"70 686 LINE",
"70 223 LINE SMOOTH",
"70 69 OFFCURVE",
"155 -12 OFFCURVE",
"296 -12 CURVE SMOOTH",
"437 -12 OFFCURVE",
"522 69 OFFCURVE",
"522 223 CURVE SMOOTH",
"522 686 LINE"
);
},
{
closed = 1;
nodes = (
"243 915 OFFCURVE",
"200 872 OFFCURVE",
"200 819 CURVE SMOOTH",
"200 765 OFFCURVE",
"244 723 OFFCURVE",
"296 723 CURVE SMOOTH",
"349 723 OFFCURVE",
"392 766 OFFCURVE",
"392 819 CURVE SMOOTH",
"392 871 OFFCURVE",
"350 915 OFFCURVE",
"296 915 CURVE SMOOTH"
);
},
{
closed = 1;
nodes = (
"323 870 OFFCURVE",
"347 847 OFFCURVE",
"347 819 CURVE SMOOTH",
"347 791 OFFCURVE",
"323 768 OFFCURVE",
"296 768 CURVE SMOOTH",
"268 768 OFFCURVE",
"245 791 OFFCURVE",
"245 819 CURVE SMOOTH",
"245 847 OFFCURVE",
"268 870 OFFCURVE",
"296 870 CURVE SMOOTH"
);
}
);
width = 592;
},
{
layerId = "72E9C866-9899-4CE7-8B77-ABF2E23FF1EF";
name = Bold;
paths = (
{
closed = 1;
nodes = (
"404 686 LINE",
"404 219 LINE SMOOTH",
"404 140 OFFCURVE",
"364 98 OFFCURVE",
"296 98 CURVE SMOOTH",
"228 98 OFFCURVE",
"189 140 OFFCURVE",
"189 219 CURVE SMOOTH",
"189 686 LINE",
"61 686 LINE",
"61 215 LINE SMOOTH",
"61 66 OFFCURVE",
"149 -12 OFFCURVE",
"296 -12 CURVE SMOOTH",
"443 -12 OFFCURVE",
"532 66 OFFCURVE",
"532 215 CURVE SMOOTH",
"532 686 LINE"
);
},
{
closed = 1;
nodes = (
"243 913 OFFCURVE",
"200 870 OFFCURVE",
"200 817 CURVE SMOOTH",
"200 763 OFFCURVE",
"244 721 OFFCURVE",
"296 721 CURVE SMOOTH",
"349 721 OFFCURVE",
"392 764 OFFCURVE",
"392 817 CURVE SMOOTH",
"392 869 OFFCURVE",
"350 913 OFFCURVE",
"296 913 CURVE SMOOTH"
);
},
{
closed = 1;
nodes = (
"321 863 OFFCURVE",
"342 843 OFFCURVE",
"342 817 CURVE SMOOTH",
"342 791 OFFCURVE",
"321 771 OFFCURVE",
"296 771 CURVE SMOOTH",
"270 771 OFFCURVE",
"250 791 OFFCURVE",
"250 817 CURVE SMOOTH",
"250 843 OFFCURVE",
"270 863 OFFCURVE",
"296 863 CURVE SMOOTH"
);
}
);
width = 592;
}
);
unicode = 016E;
},
{
glyphname = Utilde;
lastChange = "2014-07-03 12:03:26 -0700";
layers = (
{
layerId = "D861F68D-CC3D-4754-9BA0-60D90FAB2DB2";
name = Regular;
paths = (
{
closed = 1;
nodes = (
"434 686 LINE",
"434 218 LINE SMOOTH",
"434 121 OFFCURVE",
"382 69 OFFCURVE",
"296 69 CURVE SMOOTH",
"210 69 OFFCURVE",
"158 121 OFFCURVE",
"158 218 CURVE SMOOTH",
"158 686 LINE",
"70 686 LINE",
"70 223 LINE SMOOTH",
"70 69 OFFCURVE",
"155 -12 OFFCURVE",
"296 -12 CURVE SMOOTH",
"437 -12 OFFCURVE",
"522 69 OFFCURVE",
"522 223 CURVE SMOOTH",
"522 686 LINE"
);
},
{
closed = 1;
nodes = (
"384 883 LINE",
"381 860 OFFCURVE",
"368 853 OFFCURVE",
"350 853 CURVE SMOOTH",
"311 853 OFFCURVE",
"278 883 OFFCURVE",
"235 883 CURVE SMOOTH",
"175 883 OFFCURVE",
"150 825 OFFCURVE",
"150 779 CURVE",
"208 779 LINE",
"211 802 OFFCURVE",
"224 810 OFFCURVE",
"242 810 CURVE SMOOTH",
"281 810 OFFCURVE",
"313 779 OFFCURVE",
"357 779 CURVE SMOOTH",
"417 779 OFFCURVE",
"442 837 OFFCURVE",
"442 883 CURVE"
);
}
);
width = 592;
},
{
layerId = "72E9C866-9899-4CE7-8B77-ABF2E23FF1EF";
name = Bold;
paths = (
{
closed = 1;
nodes = (
"404 686 LINE",
"404 219 LINE SMOOTH",
"404 140 OFFCURVE",
"364 98 OFFCURVE",
"296 98 CURVE SMOOTH",
"228 98 OFFCURVE",
"189 140 OFFCURVE",
"189 219 CURVE SMOOTH",
"189 686 LINE",
"61 686 LINE",
"61 215 LINE SMOOTH",
"61 66 OFFCURVE",
"149 -12 OFFCURVE",
"296 -12 CURVE SMOOTH",
"443 -12 OFFCURVE",
"532 66 OFFCURVE",
"532 215 CURVE SMOOTH",
"532 686 LINE"
);
},
{
closed = 1;
nodes = (
"398 883 LINE",
"394 855 OFFCURVE",
"380 846 OFFCURVE",
"359 846 CURVE SMOOTH",
"314 846 OFFCURVE",
"275 883 OFFCURVE",
"226 883 CURVE SMOOTH",
"156 883 OFFCURVE",
"128 816 OFFCURVE",
"128 761 CURVE",
"194 761 LINE",
"198 788 OFFCURVE",
"212 798 OFFCURVE",
"233 798 CURVE SMOOTH",
"278 798 OFFCURVE",
"317 761 OFFCURVE",
"365 761 CURVE SMOOTH",
"436 761 OFFCURVE",
"464 828 OFFCURVE",
"464 883 CURVE"
);
}
);
width = 592;
}
);
unicode = 0168;
},
{
glyphname = V;
lastChange = "2014-07-03 12:03:26 -0700";
layers = (
{
layerId = "D861F68D-CC3D-4754-9BA0-60D90FAB2DB2";
name = Regular;
paths = (
{
closed = 1;
nodes = (
"539 686 LINE",
"454 686 LINE",
"279 97 LINE",
"275 97 LINE",
"105 686 LINE",
"8 686 LINE",
"217 0 LINE",
"330 0 LINE"
);
}
);
width = 547;
},
{
layerId = "72E9C866-9899-4CE7-8B77-ABF2E23FF1EF";
name = Bold;
paths = (
{
closed = 1;
nodes = (
"547 686 LINE",
"422 686 LINE",
"280 195 LINE",
"276 195 LINE",
"132 686 LINE",
"0 686 LINE",
"209 0 LINE",
"338 0 LINE"
);
}
);
width = 547;
}
);
unicode = 0056;
},
{
glyphname = W;
lastChange = "2014-07-03 12:03:26 -0700";
layers = (
{
anchors = (
{
name = top;
position = "{387, 686}";
}
);
layerId = "D861F68D-CC3D-4754-9BA0-60D90FAB2DB2";
name = Regular;
paths = (
{
closed = 1;
nodes = (
"764 686 LINE",
"684 686 LINE",
"579 212 LINE SMOOTH",
"569 167 OFFCURVE",
"558 90 OFFCURVE",
"558 90 CURVE SMOOTH",
"554 90 LINE SMOOTH",
"554 90 OFFCURVE",
"545 162 OFFCURVE",
"536 212 CURVE SMOOTH",
"451 686 LINE",
"329 686 LINE",
"250 212 LINE SMOOTH",
"240 152 OFFCURVE",
"233 90 OFFCURVE",
"233 90 CURVE SMOOTH",
"229 90 LINE SMOOTH",
"229 90 OFFCURVE",
"217 172 OFFCURVE",
"208 212 CURVE SMOOTH",
"103 686 LINE",
"10 686 LINE",
"169 0 LINE",
"283 0 LINE",
"365 465 LINE SMOOTH",
"373 511 OFFCURVE",
"384 603 OFFCURVE",
"384 603 CURVE",
"388 603 LINE",
"388 603 OFFCURVE",
"399 511 OFFCURVE",
"407 465 CURVE SMOOTH",
"491 0 LINE",
"605 0 LINE"
);
}
);
width = 774;
},
{
anchors = (
{
name = top;
position = "{387, 686}";
}
);
layerId = "72E9C866-9899-4CE7-8B77-ABF2E23FF1EF";
name = Bold;
paths = (
{
closed = 1;
nodes = (
"773 686 LINE",
"663 686 LINE",
"579 264 LINE SMOOTH",
"572 230 OFFCURVE",
"566 168 OFFCURVE",
"566 168 CURVE SMOOTH",
"562 168 LINE SMOOTH",
"562 168 OFFCURVE",
"554 237 OFFCURVE",
"549 264 CURVE SMOOTH",
"467 686 LINE",
"322 686 LINE",
"239 264 LINE SMOOTH",
"233 235 OFFCURVE",
"226 168 OFFCURVE",
"226 168 CURVE SMOOTH",
"222 168 LINE SMOOTH",
"222 168 OFFCURVE",
"215 234 OFFCURVE",
"209 264 CURVE SMOOTH",
"127 686 LINE",
"0 686 LINE",
"149 0 LINE",
"278 0 LINE",
"370 437 LINE SMOOTH",
"376 466 OFFCURVE",
"384 534 OFFCURVE",
"384 534 CURVE",
"388 534 LINE",
"388 534 OFFCURVE",
"394 472 OFFCURVE",
"402 437 CURVE SMOOTH",
"495 0 LINE",
"624 0 LINE"
);
}
);
width = 774;
}
);
unicode = 0057;
},
{
glyphname = Wacute;
lastChange = "2014-07-03 12:03:26 -0700";
layers = (
{
layerId = "D861F68D-CC3D-4754-9BA0-60D90FAB2DB2";
name = Regular;
paths = (
{
closed = 1;
nodes = (
"684 686 LINE",
"579 212 LINE SMOOTH",
"569 167 OFFCURVE",
"558 90 OFFCURVE",
"558 90 CURVE SMOOTH",
"554 90 LINE SMOOTH",
"554 90 OFFCURVE",
"545 162 OFFCURVE",
"536 212 CURVE SMOOTH",
"451 686 LINE",
"329 686 LINE",
"250 212 LINE SMOOTH",
"240 152 OFFCURVE",
"233 90 OFFCURVE",
"233 90 CURVE SMOOTH",
"229 90 LINE SMOOTH",
"229 90 OFFCURVE",
"217 172 OFFCURVE",
"208 212 CURVE SMOOTH",
"103 686 LINE",
"10 686 LINE",
"169 0 LINE",
"283 0 LINE",
"365 465 LINE SMOOTH",
"373 511 OFFCURVE",
"384 603 OFFCURVE",
"384 603 CURVE",
"388 603 LINE",
"388 603 OFFCURVE",
"399 511 OFFCURVE",
"407 465 CURVE SMOOTH",
"491 0 LINE",
"605 0 LINE",
"764 686 LINE"
);
},
{
closed = 1;
nodes = (
"414 883 LINE",
"328 751 LINE",
"397 751 LINE",
"504 880 LINE",
"503 883 LINE"
);
}
);
width = 774;
},
{
layerId = "72E9C866-9899-4CE7-8B77-ABF2E23FF1EF";
name = Bold;
paths = (
{
closed = 1;
nodes = (
"663 686 LINE",
"579 264 LINE SMOOTH",
"572 230 OFFCURVE",
"566 168 OFFCURVE",
"566 168 CURVE SMOOTH",
"562 168 LINE SMOOTH",
"562 168 OFFCURVE",
"554 237 OFFCURVE",
"549 264 CURVE SMOOTH",
"467 686 LINE",
"322 686 LINE",
"239 264 LINE SMOOTH",
"233 235 OFFCURVE",
"226 168 OFFCURVE",
"226 168 CURVE SMOOTH",
"222 168 LINE SMOOTH",
"222 168 OFFCURVE",
"215 234 OFFCURVE",
"209 264 CURVE SMOOTH",
"127 686 LINE",
"0 686 LINE",
"149 0 LINE",
"278 0 LINE",
"370 437 LINE SMOOTH",
"376 466 OFFCURVE",
"384 534 OFFCURVE",
"384 534 CURVE",
"388 534 LINE",
"388 534 OFFCURVE",
"394 472 OFFCURVE",
"402 437 CURVE SMOOTH",
"495 0 LINE",
"624 0 LINE",
"773 686 LINE"
);
},
{
closed = 1;
nodes = (
"404 883 LINE",
"318 751 LINE",
"417 751 LINE",
"525 880 LINE",
"524 883 LINE"
);
}
);
width = 774;
}
);
unicode = 1E82;
},
{
glyphname = Wcircumflex;
lastChange = "2014-07-03 12:03:26 -0700";
layers = (
{
layerId = "D861F68D-CC3D-4754-9BA0-60D90FAB2DB2";
name = Regular;
paths = (
{
closed = 1;
nodes = (
"764 686 LINE",
"684 686 LINE",
"579 212 LINE SMOOTH",
"569 167 OFFCURVE",
"558 90 OFFCURVE",
"558 90 CURVE SMOOTH",
"554 90 LINE SMOOTH",
"554 90 OFFCURVE",
"545 162 OFFCURVE",
"536 212 CURVE SMOOTH",
"451 686 LINE",
"329 686 LINE",
"250 212 LINE SMOOTH",
"240 152 OFFCURVE",
"233 90 OFFCURVE",
"233 90 CURVE SMOOTH",
"229 90 LINE SMOOTH",
"229 90 OFFCURVE",
"217 172 OFFCURVE",
"208 212 CURVE SMOOTH",
"103 686 LINE",
"10 686 LINE",
"169 0 LINE",
"283 0 LINE",
"365 465 LINE SMOOTH",
"373 511 OFFCURVE",
"384 603 OFFCURVE",
"384 603 CURVE",
"388 603 LINE",
"388 603 OFFCURVE",
"399 511 OFFCURVE",
"407 465 CURVE SMOOTH",
"491 0 LINE",
"605 0 LINE"
);
},
{
closed = 1;
nodes = (
"427 882 LINE",
"349 882 LINE",
"263 747 LINE",
"343 747 LINE",
"388 826 LINE",
"432 747 LINE",
"512 747 LINE"
);
}
);
width = 774;
},
{
layerId = "72E9C866-9899-4CE7-8B77-ABF2E23FF1EF";
name = Bold;
paths = (
{
closed = 1;
nodes = (
"773 686 LINE",
"663 686 LINE",
"579 264 LINE SMOOTH",
"572 230 OFFCURVE",
"566 168 OFFCURVE",
"566 168 CURVE SMOOTH",
"562 168 LINE SMOOTH",
"562 168 OFFCURVE",
"554 237 OFFCURVE",
"549 264 CURVE SMOOTH",
"467 686 LINE",
"322 686 LINE",
"239 264 LINE SMOOTH",
"233 235 OFFCURVE",
"226 168 OFFCURVE",
"226 168 CURVE SMOOTH",
"222 168 LINE SMOOTH",
"222 168 OFFCURVE",
"215 234 OFFCURVE",
"209 264 CURVE SMOOTH",
"127 686 LINE",
"0 686 LINE",
"149 0 LINE",
"278 0 LINE",
"370 437 LINE SMOOTH",
"376 466 OFFCURVE",
"384 534 OFFCURVE",
"384 534 CURVE",
"388 534 LINE",
"388 534 OFFCURVE",
"394 472 OFFCURVE",
"402 437 CURVE SMOOTH",
"495 0 LINE",
"624 0 LINE"
);
},
{
closed = 1;
nodes = (
"437 883 LINE",
"339 883 LINE",
"253 748 LINE",
"343 748 LINE",
"388 817 LINE",
"432 748 LINE",
"522 748 LINE"
);
}
);
width = 774;
}
);
unicode = 0174;
},
{
glyphname = Wdieresis;
lastChange = "2014-07-03 12:03:26 -0700";
layers = (
{
layerId = "D861F68D-CC3D-4754-9BA0-60D90FAB2DB2";
name = Regular;
paths = (
{
closed = 1;
nodes = (
"684 686 LINE",
"579 212 LINE SMOOTH",
"569 167 OFFCURVE",
"558 90 OFFCURVE",
"558 90 CURVE SMOOTH",
"554 90 LINE SMOOTH",
"554 90 OFFCURVE",
"545 162 OFFCURVE",
"536 212 CURVE SMOOTH",
"451 686 LINE",
"329 686 LINE",
"250 212 LINE SMOOTH",
"240 152 OFFCURVE",
"233 90 OFFCURVE",
"233 90 CURVE SMOOTH",
"229 90 LINE SMOOTH",
"229 90 OFFCURVE",
"217 172 OFFCURVE",
"208 212 CURVE SMOOTH",
"103 686 LINE",
"10 686 LINE",
"169 0 LINE",
"283 0 LINE",
"365 465 LINE SMOOTH",
"373 511 OFFCURVE",
"384 603 OFFCURVE",
"384 603 CURVE",
"388 603 LINE",
"388 603 OFFCURVE",
"399 511 OFFCURVE",
"407 465 CURVE SMOOTH",
"491 0 LINE",
"605 0 LINE",
"764 686 LINE"
);
},
{
closed = 1;
nodes = (
"269 883 LINE",
"269 788 LINE",
"355 788 LINE",
"355 883 LINE"
);
},
{
closed = 1;
nodes = (
"418 883 LINE",
"418 788 LINE",
"506 788 LINE",
"506 883 LINE"
);
}
);
width = 774;
},
{
layerId = "72E9C866-9899-4CE7-8B77-ABF2E23FF1EF";
name = Bold;
paths = (
{
closed = 1;
nodes = (
"663 686 LINE",
"579 264 LINE SMOOTH",
"572 230 OFFCURVE",
"566 168 OFFCURVE",
"566 168 CURVE SMOOTH",
"562 168 LINE SMOOTH",
"562 168 OFFCURVE",
"554 237 OFFCURVE",
"549 264 CURVE SMOOTH",
"467 686 LINE",
"322 686 LINE",
"239 264 LINE SMOOTH",
"233 235 OFFCURVE",
"226 168 OFFCURVE",
"226 168 CURVE SMOOTH",
"222 168 LINE SMOOTH",
"222 168 OFFCURVE",
"215 234 OFFCURVE",
"209 264 CURVE SMOOTH",
"127 686 LINE",
"0 686 LINE",
"149 0 LINE",
"278 0 LINE",
"370 437 LINE SMOOTH",
"376 466 OFFCURVE",
"384 534 OFFCURVE",
"384 534 CURVE",
"388 534 LINE",
"388 534 OFFCURVE",
"394 472 OFFCURVE",
"402 437 CURVE SMOOTH",
"495 0 LINE",
"624 0 LINE",
"773 686 LINE"
);
},
{
closed = 1;
nodes = (
"250 883 LINE",
"250 774 LINE",
"350 774 LINE",
"350 883 LINE"
);
},
{
closed = 1;
nodes = (
"425 883 LINE",
"425 774 LINE",
"525 774 LINE",
"525 883 LINE"
);
}
);
width = 774;
}
);
unicode = 1E84;
},
{
glyphname = Wgrave;
lastChange = "2014-07-03 12:03:26 -0700";
layers = (
{
layerId = "D861F68D-CC3D-4754-9BA0-60D90FAB2DB2";
name = Regular;
paths = (
{
closed = 1;
nodes = (
"684 686 LINE",
"579 212 LINE SMOOTH",
"569 167 OFFCURVE",
"558 90 OFFCURVE",
"558 90 CURVE SMOOTH",
"554 90 LINE SMOOTH",
"554 90 OFFCURVE",
"545 162 OFFCURVE",
"536 212 CURVE SMOOTH",
"451 686 LINE",
"329 686 LINE",
"250 212 LINE SMOOTH",
"240 152 OFFCURVE",
"233 90 OFFCURVE",
"233 90 CURVE SMOOTH",
"229 90 LINE SMOOTH",
"229 90 OFFCURVE",
"217 172 OFFCURVE",
"208 212 CURVE SMOOTH",
"103 686 LINE",
"10 686 LINE",
"169 0 LINE",
"283 0 LINE",
"365 465 LINE SMOOTH",
"373 511 OFFCURVE",
"384 603 OFFCURVE",
"384 603 CURVE",
"388 603 LINE",
"388 603 OFFCURVE",
"399 511 OFFCURVE",
"407 465 CURVE SMOOTH",
"491 0 LINE",
"605 0 LINE",
"764 686 LINE"
);
},
{
closed = 1;
nodes = (
"271 883 LINE",
"270 880 LINE",
"378 751 LINE",
"447 751 LINE",
"361 883 LINE"
);
}
);
width = 774;
},
{
layerId = "72E9C866-9899-4CE7-8B77-ABF2E23FF1EF";
name = Bold;
paths = (
{
closed = 1;
nodes = (
"663 686 LINE",
"579 264 LINE SMOOTH",
"572 230 OFFCURVE",
"566 168 OFFCURVE",
"566 168 CURVE SMOOTH",
"562 168 LINE SMOOTH",
"562 168 OFFCURVE",
"554 237 OFFCURVE",
"549 264 CURVE SMOOTH",
"467 686 LINE",
"322 686 LINE",
"239 264 LINE SMOOTH",
"233 235 OFFCURVE",
"226 168 OFFCURVE",
"226 168 CURVE SMOOTH",
"222 168 LINE SMOOTH",
"222 168 OFFCURVE",
"215 234 OFFCURVE",
"209 264 CURVE SMOOTH",
"127 686 LINE",
"0 686 LINE",
"149 0 LINE",
"278 0 LINE",
"370 437 LINE SMOOTH",
"376 466 OFFCURVE",
"384 534 OFFCURVE",
"384 534 CURVE",
"388 534 LINE",
"388 534 OFFCURVE",
"394 472 OFFCURVE",
"402 437 CURVE SMOOTH",
"495 0 LINE",
"624 0 LINE",
"773 686 LINE"
);
},
{
closed = 1;
nodes = (
"250 883 LINE",
"249 880 LINE",
"357 751 LINE",
"456 751 LINE",
"370 883 LINE"
);
}
);
width = 774;
}
);
unicode = 1E80;
},
{
glyphname = X;
lastChange = "2014-07-03 12:03:26 -0700";
layers = (
{
layerId = "D861F68D-CC3D-4754-9BA0-60D90FAB2DB2";
name = Regular;
paths = (
{
closed = 1;
nodes = (
"427 686 LINE",
"273 435 LINE",
"279 435 LINE",
"128 686 LINE",
"24 686 LINE",
"223 356 LINE",
"4 0 LINE",
"98 0 LINE",
"273 284 LINE",
"268 284 LINE",
"439 0 LINE",
"543 0 LINE",
"322 364 LINE",
"521 686 LINE"
);
}
);
width = 547;
},
{
layerId = "72E9C866-9899-4CE7-8B77-ABF2E23FF1EF";
name = Bold;
paths = (
{
closed = 1;
nodes = (
"395 686 LINE",
"280 462 LINE",
"276 462 LINE",
"161 686 LINE",
"18 686 LINE",
"194 360 LINE",
"0 0 LINE",
"133 0 LINE",
"266 259 LINE",
"270 259 LINE",
"404 0 LINE",
"546 0 LINE",
"351 362 LINE",
"528 686 LINE"
);
}
);
width = 547;
}
);
unicode = 0058;
},
{
glyphname = Y;
lastChange = "2014-07-03 12:03:26 -0700";
layers = (
{
anchors = (
{
name = top;
position = "{274, 686}";
}
);
layerId = "D861F68D-CC3D-4754-9BA0-60D90FAB2DB2";
name = Regular;
paths = (
{
closed = 1;
nodes = (
"539 686 LINE",
"454 686 LINE",
"283 368 LINE",
"279 368 LINE",
"105 686 LINE",
"8 686 LINE",
"230 284 LINE",
"230 0 LINE",
"318 0 LINE",
"318 284 LINE"
);
}
);
width = 547;
},
{
anchors = (
{
name = top;
position = "{274, 686}";
}
);
layerId = "72E9C866-9899-4CE7-8B77-ABF2E23FF1EF";
name = Bold;
paths = (
{
closed = 1;
nodes = (
"547 686 LINE",
"418 686 LINE",
"279 385 LINE",
"275 385 LINE",
"135 686 LINE",
"0 686 LINE",
"210 259 LINE",
"210 0 LINE",
"338 0 LINE",
"338 259 LINE"
);
}
);
width = 547;
}
);
unicode = 0059;
},
{
glyphname = Yacute;
lastChange = "2014-07-03 12:03:26 -0700";
layers = (
{
layerId = "D861F68D-CC3D-4754-9BA0-60D90FAB2DB2";
name = Regular;
paths = (
{
closed = 1;
nodes = (
"454 686 LINE",
"283 368 LINE",
"279 368 LINE",
"105 686 LINE",
"8 686 LINE",
"230 284 LINE",
"230 0 LINE",
"318 0 LINE",
"318 284 LINE",
"539 686 LINE"
);
},
{
closed = 1;
nodes = (
"300 883 LINE",
"214 751 LINE",
"283 751 LINE",
"391 880 LINE",
"390 883 LINE"
);
}
);
width = 547;
},
{
layerId = "72E9C866-9899-4CE7-8B77-ABF2E23FF1EF";
name = Bold;
paths = (
{
closed = 1;
nodes = (
"418 686 LINE",
"279 385 LINE",
"275 385 LINE",
"135 686 LINE",
"0 686 LINE",
"210 259 LINE",
"210 0 LINE",
"338 0 LINE",
"338 259 LINE",
"547 686 LINE"
);
},
{
closed = 1;
nodes = (
"291 883 LINE",
"205 751 LINE",
"304 751 LINE",
"412 880 LINE",
"411 883 LINE"
);
}
);
width = 547;
}
);
unicode = 00DD;
},
{
glyphname = Ycircumflex;
lastChange = "2014-07-03 12:03:26 -0700";
layers = (
{
layerId = "D861F68D-CC3D-4754-9BA0-60D90FAB2DB2";
name = Regular;
paths = (
{
closed = 1;
nodes = (
"539 686 LINE",
"454 686 LINE",
"283 368 LINE",
"279 368 LINE",
"105 686 LINE",
"8 686 LINE",
"230 284 LINE",
"230 0 LINE",
"318 0 LINE",
"318 284 LINE"
);
},
{
closed = 1;
nodes = (
"313 882 LINE",
"235 882 LINE",
"149 747 LINE",
"229 747 LINE",
"274 826 LINE",
"318 747 LINE",
"398 747 LINE"
);
}
);
width = 547;
},
{
layerId = "72E9C866-9899-4CE7-8B77-ABF2E23FF1EF";
name = Bold;
paths = (
{
closed = 1;
nodes = (
"547 686 LINE",
"418 686 LINE",
"279 385 LINE",
"275 385 LINE",
"135 686 LINE",
"0 686 LINE",
"210 259 LINE",
"210 0 LINE",
"338 0 LINE",
"338 259 LINE"
);
},
{
closed = 1;
nodes = (
"323 883 LINE",
"225 883 LINE",
"139 748 LINE",
"229 748 LINE",
"274 817 LINE",
"318 748 LINE",
"408 748 LINE"
);
}
);
width = 547;
}
);
unicode = 0176;
},
{
glyphname = Ydieresis;
lastChange = "2014-07-03 12:03:26 -0700";
layers = (
{
layerId = "D861F68D-CC3D-4754-9BA0-60D90FAB2DB2";
name = Regular;
paths = (
{
closed = 1;
nodes = (
"454 686 LINE",
"283 368 LINE",
"279 368 LINE",
"105 686 LINE",
"8 686 LINE",
"230 284 LINE",
"230 0 LINE",
"318 0 LINE",
"318 284 LINE",
"539 686 LINE"
);
},
{
closed = 1;
nodes = (
"155 883 LINE",
"155 788 LINE",
"242 788 LINE",
"242 883 LINE"
);
},
{
closed = 1;
nodes = (
"305 883 LINE",
"305 788 LINE",
"392 788 LINE",
"392 883 LINE"
);
}
);
width = 547;
},
{
layerId = "72E9C866-9899-4CE7-8B77-ABF2E23FF1EF";
name = Bold;
paths = (
{
closed = 1;
nodes = (
"418 686 LINE",
"279 385 LINE",
"275 385 LINE",
"135 686 LINE",
"0 686 LINE",
"210 259 LINE",
"210 0 LINE",
"338 0 LINE",
"338 259 LINE",
"547 686 LINE"
);
},
{
closed = 1;
nodes = (
"136 883 LINE",
"136 774 LINE",
"236 774 LINE",
"236 883 LINE"
);
},
{
closed = 1;
nodes = (
"311 883 LINE",
"311 774 LINE",
"411 774 LINE",
"411 883 LINE"
);
}
);
width = 547;
}
);
unicode = 0178;
},
{
glyphname = Ygrave;
lastChange = "2014-07-03 12:03:26 -0700";
layers = (
{
layerId = "D861F68D-CC3D-4754-9BA0-60D90FAB2DB2";
name = Regular;
paths = (
{
closed = 1;
nodes = (
"454 686 LINE",
"283 368 LINE",
"279 368 LINE",
"105 686 LINE",
"8 686 LINE",
"230 284 LINE",
"230 0 LINE",
"318 0 LINE",
"318 284 LINE",
"539 686 LINE"
);
},
{
closed = 1;
nodes = (
"157 883 LINE",
"156 880 LINE",
"264 751 LINE",
"333 751 LINE",
"247 883 LINE"
);
}
);
width = 547;
},
{
layerId = "72E9C866-9899-4CE7-8B77-ABF2E23FF1EF";
name = Bold;
paths = (
{
closed = 1;
nodes = (
"418 686 LINE",
"279 385 LINE",
"275 385 LINE",
"135 686 LINE",
"0 686 LINE",
"210 259 LINE",
"210 0 LINE",
"338 0 LINE",
"338 259 LINE",
"547 686 LINE"
);
},
{
closed = 1;
nodes = (
"136 883 LINE",
"135 880 LINE",
"243 751 LINE",
"342 751 LINE",
"256 883 LINE"
);
}
);
width = 547;
}
);
unicode = 1EF2;
},
{
glyphname = Z;
lastChange = "2014-07-03 12:03:26 -0700";
layers = (
{
anchors = (
{
name = top;
position = "{251, 686}";
}
);
layerId = "D861F68D-CC3D-4754-9BA0-60D90FAB2DB2";
name = Regular;
paths = (
{
closed = 1;
nodes = (
"41 686 LINE",
"41 606 LINE",
"346 606 LINE",
"20 38 LINE",
"20 0 LINE",
"479 0 LINE",
"479 80 LINE",
"145 80 LINE",
"472 648 LINE",
"472 686 LINE"
);
}
);
width = 501;
},
{
anchors = (
{
name = top;
position = "{251, 686}";
}
);
layerId = "72E9C866-9899-4CE7-8B77-ABF2E23FF1EF";
name = Bold;
paths = (
{
closed = 1;
nodes = (
"37 686 LINE",
"37 572 LINE",
"298 572 LINE",
"16 49 LINE",
"16 0 LINE",
"480 0 LINE",
"480 114 LINE",
"191 114 LINE",
"473 636 LINE",
"473 686 LINE"
);
}
);
width = 501;
}
);
unicode = 005A;
},
{
glyphname = Zacute;
lastChange = "2014-07-03 12:03:26 -0700";
layers = (
{
layerId = "D861F68D-CC3D-4754-9BA0-60D90FAB2DB2";
name = Regular;
paths = (
{
closed = 1;
nodes = (
"41 686 LINE",
"41 606 LINE",
"346 606 LINE",
"20 38 LINE",
"20 0 LINE",
"479 0 LINE",
"479 80 LINE",
"145 80 LINE",
"472 648 LINE",
"472 686 LINE"
);
},
{
closed = 1;
nodes = (
"277 883 LINE",
"191 751 LINE",
"260 751 LINE",
"368 880 LINE",
"367 883 LINE"
);
}
);
width = 501;
},
{
layerId = "72E9C866-9899-4CE7-8B77-ABF2E23FF1EF";
name = Bold;
paths = (
{
closed = 1;
nodes = (
"37 686 LINE",
"37 572 LINE",
"298 572 LINE",
"16 49 LINE",
"16 0 LINE",
"480 0 LINE",
"480 114 LINE",
"191 114 LINE",
"473 636 LINE",
"473 686 LINE"
);
},
{
closed = 1;
nodes = (
"268 883 LINE",
"182 751 LINE",
"281 751 LINE",
"389 880 LINE",
"388 883 LINE"
);
}
);
width = 501;
}
);
unicode = 0179;
},
{
glyphname = Zcaron;
lastChange = "2014-07-03 12:03:26 -0700";
layers = (
{
layerId = "D861F68D-CC3D-4754-9BA0-60D90FAB2DB2";
name = Regular;
paths = (
{
closed = 1;
nodes = (
"41 686 LINE",
"41 606 LINE",
"346 606 LINE",
"20 38 LINE",
"20 0 LINE",
"479 0 LINE",
"479 80 LINE",
"145 80 LINE",
"472 648 LINE",
"472 686 LINE"
);
},
{
closed = 1;
nodes = (
"295 883 LINE",
"250 804 LINE",
"206 883 LINE",
"126 883 LINE",
"211 748 LINE",
"289 748 LINE",
"375 883 LINE"
);
}
);
width = 501;
},
{
layerId = "72E9C866-9899-4CE7-8B77-ABF2E23FF1EF";
name = Bold;
paths = (
{
closed = 1;
nodes = (
"37 686 LINE",
"37 572 LINE",
"298 572 LINE",
"16 49 LINE",
"16 0 LINE",
"480 0 LINE",
"480 114 LINE",
"191 114 LINE",
"473 636 LINE",
"473 686 LINE"
);
},
{
closed = 1;
nodes = (
"295 883 LINE",
"251 814 LINE",
"206 883 LINE",
"116 883 LINE",
"202 748 LINE",
"300 748 LINE",
"385 883 LINE"
);
}
);
width = 501;
}
);
unicode = 017D;
},
{
glyphname = Zdotaccent;
lastChange = "2014-07-03 12:03:26 -0700";
layers = (
{
layerId = "D861F68D-CC3D-4754-9BA0-60D90FAB2DB2";
name = Regular;
paths = (
{
closed = 1;
nodes = (
"41 686 LINE",
"41 606 LINE",
"346 606 LINE",
"20 38 LINE",
"20 0 LINE",
"479 0 LINE",
"479 80 LINE",
"145 80 LINE",
"472 648 LINE",
"472 686 LINE"
);
},
{
closed = 1;
nodes = (
"207 883 LINE",
"207 788 LINE",
"294 788 LINE",
"294 883 LINE"
);
}
);
width = 501;
},
{
layerId = "72E9C866-9899-4CE7-8B77-ABF2E23FF1EF";
name = Bold;
paths = (
{
closed = 1;
nodes = (
"37 686 LINE",
"37 572 LINE",
"298 572 LINE",
"16 49 LINE",
"16 0 LINE",
"480 0 LINE",
"480 114 LINE",
"191 114 LINE",
"473 636 LINE",
"473 686 LINE"
);
},
{
closed = 1;
nodes = (
"197 883 LINE",
"197 768 LINE",
"304 768 LINE",
"304 883 LINE"
);
}
);
width = 501;
}
);
unicode = 017B;
},
{
glyphname = a;
lastChange = "2014-07-03 12:03:26 -0700";
layers = (
{
anchors = (
{
name = ogonek;
position = "{410, 10}";
},
{
name = top;
position = "{228, 526}";
}
);
layerId = "D861F68D-CC3D-4754-9BA0-60D90FAB2DB2";
name = Regular;
paths = (
{
closed = 1;
nodes = (
"124 538 OFFCURVE",
"54 488 OFFCURVE",
"54 392 CURVE SMOOTH",
"54 383 OFFCURVE",
"54 376 OFFCURVE",
"55 370 CURVE",
"136 370 LINE",
"136 382 LINE SMOOTH",
"136 422 OFFCURVE",
"155 465 OFFCURVE",
"217 465 CURVE SMOOTH",
"284 465 OFFCURVE",
"300 430 OFFCURVE",
"300 380 CURVE SMOOTH",
"300 312 LINE",
"147 312 OFFCURVE",
"34 281 OFFCURVE",
"34 136 CURVE SMOOTH",
"34 9 OFFCURVE",
"120 -12 OFFCURVE",
"172 -12 CURVE SMOOTH",
"227 -12 OFFCURVE",
"273 14 OFFCURVE",
"300 57 CURVE",
"305 57 LINE",
"315 18 OFFCURVE",
"345 -8 OFFCURVE",
"388 -8 CURVE SMOOTH",
"414 -8 OFFCURVE",
"433 -1 OFFCURVE",
"442 4 CURVE",
"442 61 LINE",
"410 61 LINE SMOOTH",
"396 61 OFFCURVE",
"382 71 OFFCURVE",
"382 96 CURVE SMOOTH",
"382 391 LINE SMOOTH",
"382 484 OFFCURVE",
"329 538 OFFCURVE",
"223 538 CURVE SMOOTH"
);
},
{
closed = 1;
nodes = (
"300 191 LINE SMOOTH",
"300 104 OFFCURVE",
"243 61 OFFCURVE",
"191 61 CURVE SMOOTH",
"145 61 OFFCURVE",
"120 81 OFFCURVE",
"120 141 CURVE SMOOTH",
"120 223 OFFCURVE",
"193 239 OFFCURVE",
"300 239 CURVE"
);
}
);
width = 456;
},
{
anchors = (
{
name = ogonek;
position = "{410, 10}";
},
{
name = top;
position = "{228, 526}";
}
);
layerId = "72E9C866-9899-4CE7-8B77-ABF2E23FF1EF";
name = Bold;
paths = (
{
closed = 1;
nodes = (
"109 538 OFFCURVE",
"39 480 OFFCURVE",
"39 392 CURVE SMOOTH",
"39 383 OFFCURVE",
"39 376 OFFCURVE",
"40 370 CURVE",
"157 370 LINE",
"157 385 LINE SMOOTH",
"157 410 OFFCURVE",
"171 440 OFFCURVE",
"220 440 CURVE SMOOTH",
"266 440 OFFCURVE",
"275 411 OFFCURVE",
"275 375 CURVE SMOOTH",
"275 320 LINE",
"122 320 OFFCURVE",
"14 278 OFFCURVE",
"14 136 CURVE SMOOTH",
"14 14 OFFCURVE",
"97 -12 OFFCURVE",
"146 -12 CURVE SMOOTH",
"216 -12 OFFCURVE",
"249 15 OFFCURVE",
"279 57 CURVE",
"284 57 LINE",
"296 16 OFFCURVE",
"329 -12 OFFCURVE",
"377 -12 CURVE SMOOTH",
"413 -12 OFFCURVE",
"435 -3 OFFCURVE",
"448 4 CURVE",
"448 89 LINE",
"424 89 LINE SMOOTH",
"410 89 OFFCURVE",
"396 99 OFFCURVE",
"396 124 CURVE SMOOTH",
"396 383 LINE SMOOTH",
"396 481 OFFCURVE",
"339 538 OFFCURVE",
"217 538 CURVE SMOOTH"
);
},
{
closed = 1;
nodes = (
"275 203 LINE SMOOTH",
"275 141 OFFCURVE",
"253 88 OFFCURVE",
"196 88 CURVE SMOOTH",
"155 88 OFFCURVE",
"137 111 OFFCURVE",
"137 147 CURVE SMOOTH",
"137 215 OFFCURVE",
"205 233 OFFCURVE",
"275 233 CURVE"
);
}
);
width = 456;
}
);
unicode = 0061;
},
{
glyphname = aacute;
lastChange = "2014-07-03 12:03:26 -0700";
layers = (
{
layerId = "D861F68D-CC3D-4754-9BA0-60D90FAB2DB2";
name = Regular;
paths = (
{
closed = 1;
nodes = (
"124 538 OFFCURVE",
"54 488 OFFCURVE",
"54 392 CURVE SMOOTH",
"54 383 OFFCURVE",
"54 376 OFFCURVE",
"55 370 CURVE",
"136 370 LINE",
"136 382 LINE SMOOTH",
"136 422 OFFCURVE",
"155 465 OFFCURVE",
"217 465 CURVE SMOOTH",
"284 465 OFFCURVE",
"300 430 OFFCURVE",
"300 380 CURVE SMOOTH",
"300 312 LINE",
"147 312 OFFCURVE",
"34 281 OFFCURVE",
"34 136 CURVE SMOOTH",
"34 9 OFFCURVE",
"120 -12 OFFCURVE",
"172 -12 CURVE SMOOTH",
"227 -12 OFFCURVE",
"273 14 OFFCURVE",
"300 57 CURVE",
"305 57 LINE",
"315 18 OFFCURVE",
"345 -8 OFFCURVE",
"388 -8 CURVE SMOOTH",
"414 -8 OFFCURVE",
"433 -1 OFFCURVE",
"442 4 CURVE",
"442 61 LINE",
"410 61 LINE SMOOTH",
"396 61 OFFCURVE",
"382 71 OFFCURVE",
"382 96 CURVE SMOOTH",
"382 391 LINE SMOOTH",
"382 484 OFFCURVE",
"329 538 OFFCURVE",
"223 538 CURVE SMOOTH"
);
},
{
closed = 1;
nodes = (
"300 191 LINE SMOOTH",
"300 104 OFFCURVE",
"243 61 OFFCURVE",
"191 61 CURVE SMOOTH",
"145 61 OFFCURVE",
"120 81 OFFCURVE",
"120 141 CURVE SMOOTH",
"120 223 OFFCURVE",
"193 239 OFFCURVE",
"300 239 CURVE"
);
},
{
closed = 1;
nodes = (
"250 723 LINE",
"164 591 LINE",
"233 591 LINE",
"341 720 LINE",
"340 723 LINE"
);
}
);
width = 456;
},
{
layerId = "72E9C866-9899-4CE7-8B77-ABF2E23FF1EF";
name = Bold;
paths = (
{
closed = 1;
nodes = (
"109 538 OFFCURVE",
"39 480 OFFCURVE",
"39 392 CURVE SMOOTH",
"39 383 OFFCURVE",
"39 376 OFFCURVE",
"40 370 CURVE",
"157 370 LINE",
"157 385 LINE SMOOTH",
"157 410 OFFCURVE",
"171 440 OFFCURVE",
"220 440 CURVE SMOOTH",
"266 440 OFFCURVE",
"275 411 OFFCURVE",
"275 375 CURVE SMOOTH",
"275 320 LINE",
"122 320 OFFCURVE",
"14 278 OFFCURVE",
"14 136 CURVE SMOOTH",
"14 14 OFFCURVE",
"97 -12 OFFCURVE",
"146 -12 CURVE SMOOTH",
"216 -12 OFFCURVE",
"249 15 OFFCURVE",
"279 57 CURVE",
"284 57 LINE",
"296 16 OFFCURVE",
"329 -12 OFFCURVE",
"377 -12 CURVE SMOOTH",
"413 -12 OFFCURVE",
"435 -3 OFFCURVE",
"448 4 CURVE",
"448 89 LINE",
"424 89 LINE SMOOTH",
"410 89 OFFCURVE",
"396 99 OFFCURVE",
"396 124 CURVE SMOOTH",
"396 383 LINE SMOOTH",
"396 481 OFFCURVE",
"339 538 OFFCURVE",
"217 538 CURVE SMOOTH"
);
},
{
closed = 1;
nodes = (
"275 203 LINE SMOOTH",
"275 141 OFFCURVE",
"253 88 OFFCURVE",
"196 88 CURVE SMOOTH",
"155 88 OFFCURVE",
"137 111 OFFCURVE",
"137 147 CURVE SMOOTH",
"137 215 OFFCURVE",
"205 233 OFFCURVE",
"275 233 CURVE"
);
},
{
closed = 1;
nodes = (
"234 723 LINE",
"148 591 LINE",
"247 591 LINE",
"355 720 LINE",
"354 723 LINE"
);
}
);
width = 456;
}
);
unicode = 00E1;
},
{
glyphname = abreve;
lastChange = "2014-07-03 12:03:26 -0700";
layers = (
{
layerId = "D861F68D-CC3D-4754-9BA0-60D90FAB2DB2";
name = Regular;
paths = (
{
closed = 1;
nodes = (
"124 538 OFFCURVE",
"54 488 OFFCURVE",
"54 392 CURVE SMOOTH",
"54 383 OFFCURVE",
"54 376 OFFCURVE",
"55 370 CURVE",
"136 370 LINE",
"136 382 LINE SMOOTH",
"136 422 OFFCURVE",
"155 465 OFFCURVE",
"217 465 CURVE SMOOTH",
"284 465 OFFCURVE",
"300 430 OFFCURVE",
"300 380 CURVE SMOOTH",
"300 312 LINE",
"147 312 OFFCURVE",
"34 281 OFFCURVE",
"34 136 CURVE SMOOTH",
"34 9 OFFCURVE",
"120 -12 OFFCURVE",
"172 -12 CURVE SMOOTH",
"227 -12 OFFCURVE",
"273 14 OFFCURVE",
"300 57 CURVE",
"305 57 LINE",
"315 18 OFFCURVE",
"345 -8 OFFCURVE",
"388 -8 CURVE SMOOTH",
"414 -8 OFFCURVE",
"433 -1 OFFCURVE",
"442 4 CURVE",
"442 61 LINE",
"410 61 LINE SMOOTH",
"396 61 OFFCURVE",
"382 71 OFFCURVE",
"382 96 CURVE SMOOTH",
"382 391 LINE SMOOTH",
"382 484 OFFCURVE",
"329 538 OFFCURVE",
"223 538 CURVE SMOOTH"
);
},
{
closed = 1;
nodes = (
"300 191 LINE SMOOTH",
"300 104 OFFCURVE",
"243 61 OFFCURVE",
"191 61 CURVE SMOOTH",
"145 61 OFFCURVE",
"120 81 OFFCURVE",
"120 141 CURVE SMOOTH",
"120 223 OFFCURVE",
"193 239 OFFCURVE",
"300 239 CURVE"
);
},
{
closed = 1;
nodes = (
"288 723 LINE",
"286 709 OFFCURVE",
"262 690 OFFCURVE",
"228 690 CURVE SMOOTH",
"194 690 OFFCURVE",
"172 709 OFFCURVE",
"169 723 CURVE",
"104 723 LINE",
"104 678 OFFCURVE",
"152 626 OFFCURVE",
"228 626 CURVE SMOOTH",
"305 626 OFFCURVE",
"352 678 OFFCURVE",
"352 723 CURVE"
);
}
);
width = 456;
},
{
layerId = "72E9C866-9899-4CE7-8B77-ABF2E23FF1EF";
name = Bold;
paths = (
{
closed = 1;
nodes = (
"109 538 OFFCURVE",
"39 480 OFFCURVE",
"39 392 CURVE SMOOTH",
"39 383 OFFCURVE",
"39 376 OFFCURVE",
"40 370 CURVE",
"157 370 LINE",
"157 385 LINE SMOOTH",
"157 410 OFFCURVE",
"171 440 OFFCURVE",
"220 440 CURVE SMOOTH",
"266 440 OFFCURVE",
"275 411 OFFCURVE",
"275 375 CURVE SMOOTH",
"275 320 LINE",
"122 320 OFFCURVE",
"14 278 OFFCURVE",
"14 136 CURVE SMOOTH",
"14 14 OFFCURVE",
"97 -12 OFFCURVE",
"146 -12 CURVE SMOOTH",
"216 -12 OFFCURVE",
"249 15 OFFCURVE",
"279 57 CURVE",
"284 57 LINE",
"296 16 OFFCURVE",
"329 -12 OFFCURVE",
"377 -12 CURVE SMOOTH",
"413 -12 OFFCURVE",
"435 -3 OFFCURVE",
"448 4 CURVE",
"448 89 LINE",
"424 89 LINE SMOOTH",
"410 89 OFFCURVE",
"396 99 OFFCURVE",
"396 124 CURVE SMOOTH",
"396 383 LINE SMOOTH",
"396 481 OFFCURVE",
"339 538 OFFCURVE",
"217 538 CURVE SMOOTH"
);
},
{
closed = 1;
nodes = (
"275 203 LINE SMOOTH",
"275 141 OFFCURVE",
"253 88 OFFCURVE",
"196 88 CURVE SMOOTH",
"155 88 OFFCURVE",
"137 111 OFFCURVE",
"137 147 CURVE SMOOTH",
"137 215 OFFCURVE",
"205 233 OFFCURVE",
"275 233 CURVE"
);
},
{
closed = 1;
nodes = (
"276 723 LINE",
"274 709 OFFCURVE",
"250 690 OFFCURVE",
"216 690 CURVE SMOOTH",
"184 690 OFFCURVE",
"161 709 OFFCURVE",
"158 723 CURVE",
"83 723 LINE",
"83 673 OFFCURVE",
"134 616 OFFCURVE",
"216 616 CURVE SMOOTH",
"299 616 OFFCURVE",
"351 673 OFFCURVE",
"351 723 CURVE"
);
}
);
width = 456;
}
);
unicode = 0103;
},
{
glyphname = acircumflex;
lastChange = "2014-07-03 12:03:26 -0700";
layers = (
{
layerId = "D861F68D-CC3D-4754-9BA0-60D90FAB2DB2";
name = Regular;
paths = (
{
closed = 1;
nodes = (
"124 538 OFFCURVE",
"54 488 OFFCURVE",
"54 392 CURVE SMOOTH",
"54 383 OFFCURVE",
"54 376 OFFCURVE",
"55 370 CURVE",
"136 370 LINE",
"136 382 LINE SMOOTH",
"136 422 OFFCURVE",
"155 465 OFFCURVE",
"217 465 CURVE SMOOTH",
"284 465 OFFCURVE",
"300 430 OFFCURVE",
"300 380 CURVE SMOOTH",
"300 312 LINE",
"147 312 OFFCURVE",
"34 281 OFFCURVE",
"34 136 CURVE SMOOTH",
"34 9 OFFCURVE",
"120 -12 OFFCURVE",
"172 -12 CURVE SMOOTH",
"227 -12 OFFCURVE",
"273 14 OFFCURVE",
"300 57 CURVE",
"305 57 LINE",
"315 18 OFFCURVE",
"345 -8 OFFCURVE",
"388 -8 CURVE SMOOTH",
"414 -8 OFFCURVE",
"433 -1 OFFCURVE",
"442 4 CURVE",
"442 61 LINE",
"410 61 LINE SMOOTH",
"396 61 OFFCURVE",
"382 71 OFFCURVE",
"382 96 CURVE SMOOTH",
"382 391 LINE SMOOTH",
"382 484 OFFCURVE",
"329 538 OFFCURVE",
"223 538 CURVE SMOOTH"
);
},
{
closed = 1;
nodes = (
"300 191 LINE SMOOTH",
"300 104 OFFCURVE",
"243 61 OFFCURVE",
"191 61 CURVE SMOOTH",
"145 61 OFFCURVE",
"120 81 OFFCURVE",
"120 141 CURVE SMOOTH",
"120 223 OFFCURVE",
"193 239 OFFCURVE",
"300 239 CURVE"
);
},
{
closed = 1;
nodes = (
"268 722 LINE",
"189 722 LINE",
"104 587 LINE",
"184 587 LINE",
"229 666 LINE",
"273 587 LINE",
"353 587 LINE"
);
}
);
width = 456;
},
{
layerId = "72E9C866-9899-4CE7-8B77-ABF2E23FF1EF";
name = Bold;
paths = (
{
closed = 1;
nodes = (
"109 538 OFFCURVE",
"39 480 OFFCURVE",
"39 392 CURVE SMOOTH",
"39 383 OFFCURVE",
"39 376 OFFCURVE",
"40 370 CURVE",
"157 370 LINE",
"157 385 LINE SMOOTH",
"157 410 OFFCURVE",
"171 440 OFFCURVE",
"220 440 CURVE SMOOTH",
"266 440 OFFCURVE",
"275 411 OFFCURVE",
"275 375 CURVE SMOOTH",
"275 320 LINE",
"122 320 OFFCURVE",
"14 278 OFFCURVE",
"14 136 CURVE SMOOTH",
"14 14 OFFCURVE",
"97 -12 OFFCURVE",
"146 -12 CURVE SMOOTH",
"216 -12 OFFCURVE",
"249 15 OFFCURVE",
"279 57 CURVE",
"284 57 LINE",
"296 16 OFFCURVE",
"329 -12 OFFCURVE",
"377 -12 CURVE SMOOTH",
"413 -12 OFFCURVE",
"435 -3 OFFCURVE",
"448 4 CURVE",
"448 89 LINE",
"424 89 LINE SMOOTH",
"410 89 OFFCURVE",
"396 99 OFFCURVE",
"396 124 CURVE SMOOTH",
"396 383 LINE SMOOTH",
"396 481 OFFCURVE",
"339 538 OFFCURVE",
"217 538 CURVE SMOOTH"
);
},
{
closed = 1;
nodes = (
"275 203 LINE SMOOTH",
"275 141 OFFCURVE",
"253 88 OFFCURVE",
"196 88 CURVE SMOOTH",
"155 88 OFFCURVE",
"137 111 OFFCURVE",
"137 147 CURVE SMOOTH",
"137 215 OFFCURVE",
"205 233 OFFCURVE",
"275 233 CURVE"
);
},
{
closed = 1;
nodes = (
"267 723 LINE",
"168 723 LINE",
"83 588 LINE",
"172 588 LINE",
"217 657 LINE",
"262 588 LINE",
"352 588 LINE"
);
}
);
width = 456;
}
);
unicode = 00E2;
},
{
glyphname = adieresis;
lastChange = "2014-07-03 12:03:26 -0700";
layers = (
{
layerId = "D861F68D-CC3D-4754-9BA0-60D90FAB2DB2";
name = Regular;
paths = (
{
closed = 1;
nodes = (
"124 538 OFFCURVE",
"54 488 OFFCURVE",
"54 392 CURVE SMOOTH",
"54 383 OFFCURVE",
"54 376 OFFCURVE",
"55 370 CURVE",
"136 370 LINE",
"136 382 LINE SMOOTH",
"136 422 OFFCURVE",
"155 465 OFFCURVE",
"217 465 CURVE SMOOTH",
"284 465 OFFCURVE",
"300 430 OFFCURVE",
"300 380 CURVE SMOOTH",
"300 312 LINE",
"147 312 OFFCURVE",
"34 281 OFFCURVE",
"34 136 CURVE SMOOTH",
"34 9 OFFCURVE",
"120 -12 OFFCURVE",
"172 -12 CURVE SMOOTH",
"227 -12 OFFCURVE",
"273 14 OFFCURVE",
"300 57 CURVE",
"305 57 LINE",
"315 18 OFFCURVE",
"345 -8 OFFCURVE",
"388 -8 CURVE SMOOTH",
"414 -8 OFFCURVE",
"433 -1 OFFCURVE",
"442 4 CURVE",
"442 61 LINE",
"410 61 LINE SMOOTH",
"396 61 OFFCURVE",
"382 71 OFFCURVE",
"382 96 CURVE SMOOTH",
"382 391 LINE SMOOTH",
"382 484 OFFCURVE",
"329 538 OFFCURVE",
"223 538 CURVE SMOOTH"
);
},
{
closed = 1;
nodes = (
"300 191 LINE SMOOTH",
"300 104 OFFCURVE",
"243 61 OFFCURVE",
"191 61 CURVE SMOOTH",
"145 61 OFFCURVE",
"120 81 OFFCURVE",
"120 141 CURVE SMOOTH",
"120 223 OFFCURVE",
"193 239 OFFCURVE",
"300 239 CURVE"
);
},
{
closed = 1;
nodes = (
"109 723 LINE",
"109 628 LINE",
"196 628 LINE",
"196 723 LINE"
);
},
{
closed = 1;
nodes = (
"259 723 LINE",
"259 628 LINE",
"347 628 LINE",
"347 723 LINE"
);
}
);
width = 456;
},
{
layerId = "72E9C866-9899-4CE7-8B77-ABF2E23FF1EF";
name = Bold;
paths = (
{
closed = 1;
nodes = (
"109 538 OFFCURVE",
"39 480 OFFCURVE",
"39 392 CURVE SMOOTH",
"39 383 OFFCURVE",
"39 376 OFFCURVE",
"40 370 CURVE",
"157 370 LINE",
"157 385 LINE SMOOTH",
"157 410 OFFCURVE",
"171 440 OFFCURVE",
"220 440 CURVE SMOOTH",
"266 440 OFFCURVE",
"275 411 OFFCURVE",
"275 375 CURVE SMOOTH",
"275 320 LINE",
"122 320 OFFCURVE",
"14 278 OFFCURVE",
"14 136 CURVE SMOOTH",
"14 14 OFFCURVE",
"97 -12 OFFCURVE",
"146 -12 CURVE SMOOTH",
"216 -12 OFFCURVE",
"249 15 OFFCURVE",
"279 57 CURVE",
"284 57 LINE",
"296 16 OFFCURVE",
"329 -12 OFFCURVE",
"377 -12 CURVE SMOOTH",
"413 -12 OFFCURVE",
"435 -3 OFFCURVE",
"448 4 CURVE",
"448 89 LINE",
"424 89 LINE SMOOTH",
"410 89 OFFCURVE",
"396 99 OFFCURVE",
"396 124 CURVE SMOOTH",
"396 383 LINE SMOOTH",
"396 481 OFFCURVE",
"339 538 OFFCURVE",
"217 538 CURVE SMOOTH"
);
},
{
closed = 1;
nodes = (
"275 203 LINE SMOOTH",
"275 141 OFFCURVE",
"253 88 OFFCURVE",
"196 88 CURVE SMOOTH",
"155 88 OFFCURVE",
"137 111 OFFCURVE",
"137 147 CURVE SMOOTH",
"137 215 OFFCURVE",
"205 233 OFFCURVE",
"275 233 CURVE"
);
},
{
closed = 1;
nodes = (
"80 723 LINE",
"80 614 LINE",
"180 614 LINE",
"180 723 LINE"
);
},
{
closed = 1;
nodes = (
"254 723 LINE",
"254 614 LINE",
"354 614 LINE",
"354 723 LINE"
);
}
);
width = 456;
}
);
unicode = 00E4;
},
{
glyphname = agrave;
lastChange = "2014-07-03 12:03:26 -0700";
layers = (
{
layerId = "D861F68D-CC3D-4754-9BA0-60D90FAB2DB2";
name = Regular;
paths = (
{
closed = 1;
nodes = (
"124 538 OFFCURVE",
"54 488 OFFCURVE",
"54 392 CURVE SMOOTH",
"54 383 OFFCURVE",
"54 376 OFFCURVE",
"55 370 CURVE",
"136 370 LINE",
"136 382 LINE SMOOTH",
"136 422 OFFCURVE",
"155 465 OFFCURVE",
"217 465 CURVE SMOOTH",
"284 465 OFFCURVE",
"300 430 OFFCURVE",
"300 380 CURVE SMOOTH",
"300 312 LINE",
"147 312 OFFCURVE",
"34 281 OFFCURVE",
"34 136 CURVE SMOOTH",
"34 9 OFFCURVE",
"120 -12 OFFCURVE",
"172 -12 CURVE SMOOTH",
"227 -12 OFFCURVE",
"273 14 OFFCURVE",
"300 57 CURVE",
"305 57 LINE",
"315 18 OFFCURVE",
"345 -8 OFFCURVE",
"388 -8 CURVE SMOOTH",
"414 -8 OFFCURVE",
"433 -1 OFFCURVE",
"442 4 CURVE",
"442 61 LINE",
"410 61 LINE SMOOTH",
"396 61 OFFCURVE",
"382 71 OFFCURVE",
"382 96 CURVE SMOOTH",
"382 391 LINE SMOOTH",
"382 484 OFFCURVE",
"329 538 OFFCURVE",
"223 538 CURVE SMOOTH"
);
},
{
closed = 1;
nodes = (
"300 191 LINE SMOOTH",
"300 104 OFFCURVE",
"243 61 OFFCURVE",
"191 61 CURVE SMOOTH",
"145 61 OFFCURVE",
"120 81 OFFCURVE",
"120 141 CURVE SMOOTH",
"120 223 OFFCURVE",
"193 239 OFFCURVE",
"300 239 CURVE"
);
},
{
closed = 1;
nodes = (
"107 723 LINE",
"106 720 LINE",
"214 591 LINE",
"283 591 LINE",
"197 723 LINE"
);
}
);
width = 456;
},
{
layerId = "72E9C866-9899-4CE7-8B77-ABF2E23FF1EF";
name = Bold;
paths = (
{
closed = 1;
nodes = (
"109 538 OFFCURVE",
"39 480 OFFCURVE",
"39 392 CURVE SMOOTH",
"39 383 OFFCURVE",
"39 376 OFFCURVE",
"40 370 CURVE",
"157 370 LINE",
"157 385 LINE SMOOTH",
"157 410 OFFCURVE",
"171 440 OFFCURVE",
"220 440 CURVE SMOOTH",
"266 440 OFFCURVE",
"275 411 OFFCURVE",
"275 375 CURVE SMOOTH",
"275 320 LINE",
"122 320 OFFCURVE",
"14 278 OFFCURVE",
"14 136 CURVE SMOOTH",
"14 14 OFFCURVE",
"97 -12 OFFCURVE",
"146 -12 CURVE SMOOTH",
"216 -12 OFFCURVE",
"249 15 OFFCURVE",
"279 57 CURVE",
"284 57 LINE",
"296 16 OFFCURVE",
"329 -12 OFFCURVE",
"377 -12 CURVE SMOOTH",
"413 -12 OFFCURVE",
"435 -3 OFFCURVE",
"448 4 CURVE",
"448 89 LINE",
"424 89 LINE SMOOTH",
"410 89 OFFCURVE",
"396 99 OFFCURVE",
"396 124 CURVE SMOOTH",
"396 383 LINE SMOOTH",
"396 481 OFFCURVE",
"339 538 OFFCURVE",
"217 538 CURVE SMOOTH"
);
},
{
closed = 1;
nodes = (
"275 203 LINE SMOOTH",
"275 141 OFFCURVE",
"253 88 OFFCURVE",
"196 88 CURVE SMOOTH",
"155 88 OFFCURVE",
"137 111 OFFCURVE",
"137 147 CURVE SMOOTH",
"137 215 OFFCURVE",
"205 233 OFFCURVE",
"275 233 CURVE"
);
},
{
closed = 1;
nodes = (
"80 723 LINE",
"79 720 LINE",
"187 591 LINE",
"286 591 LINE",
"200 723 LINE"
);
}
);
width = 456;
}
);
unicode = 00E0;
},
{
glyphname = amacron;
lastChange = "2014-07-03 12:03:26 -0700";
layers = (
{
layerId = "D861F68D-CC3D-4754-9BA0-60D90FAB2DB2";
name = Regular;
paths = (
{
closed = 1;
nodes = (
"124 538 OFFCURVE",
"54 488 OFFCURVE",
"54 392 CURVE SMOOTH",
"54 383 OFFCURVE",
"54 376 OFFCURVE",
"55 370 CURVE",
"136 370 LINE",
"136 382 LINE SMOOTH",
"136 422 OFFCURVE",
"155 465 OFFCURVE",
"217 465 CURVE SMOOTH",
"284 465 OFFCURVE",
"300 430 OFFCURVE",
"300 380 CURVE SMOOTH",
"300 312 LINE",
"147 312 OFFCURVE",
"34 281 OFFCURVE",
"34 136 CURVE SMOOTH",
"34 9 OFFCURVE",
"120 -12 OFFCURVE",
"172 -12 CURVE SMOOTH",
"227 -12 OFFCURVE",
"273 14 OFFCURVE",
"300 57 CURVE",
"305 57 LINE",
"315 18 OFFCURVE",
"345 -8 OFFCURVE",
"388 -8 CURVE SMOOTH",
"414 -8 OFFCURVE",
"433 -1 OFFCURVE",
"442 4 CURVE",
"442 61 LINE",
"410 61 LINE SMOOTH",
"396 61 OFFCURVE",
"382 71 OFFCURVE",
"382 96 CURVE SMOOTH",
"382 391 LINE SMOOTH",
"382 484 OFFCURVE",
"329 538 OFFCURVE",
"223 538 CURVE SMOOTH"
);
},
{
closed = 1;
nodes = (
"300 191 LINE SMOOTH",
"300 104 OFFCURVE",
"243 61 OFFCURVE",
"191 61 CURVE SMOOTH",
"145 61 OFFCURVE",
"120 81 OFFCURVE",
"120 141 CURVE SMOOTH",
"120 223 OFFCURVE",
"193 239 OFFCURVE",
"300 239 CURVE"
);
},
{
closed = 1;
nodes = (
"354 671 LINE",
"103 671 LINE",
"103 599 LINE",
"354 599 LINE"
);
}
);
width = 456;
},
{
layerId = "72E9C866-9899-4CE7-8B77-ABF2E23FF1EF";
name = Bold;
paths = (
{
closed = 1;
nodes = (
"109 538 OFFCURVE",
"39 480 OFFCURVE",
"39 392 CURVE SMOOTH",
"39 383 OFFCURVE",
"39 376 OFFCURVE",
"40 370 CURVE",
"157 370 LINE",
"157 385 LINE SMOOTH",
"157 410 OFFCURVE",
"171 440 OFFCURVE",
"220 440 CURVE SMOOTH",
"266 440 OFFCURVE",
"275 411 OFFCURVE",
"275 375 CURVE SMOOTH",
"275 320 LINE",
"122 320 OFFCURVE",
"14 278 OFFCURVE",
"14 136 CURVE SMOOTH",
"14 14 OFFCURVE",
"97 -12 OFFCURVE",
"146 -12 CURVE SMOOTH",
"216 -12 OFFCURVE",
"249 15 OFFCURVE",
"279 57 CURVE",
"284 57 LINE",
"296 16 OFFCURVE",
"329 -12 OFFCURVE",
"377 -12 CURVE SMOOTH",
"413 -12 OFFCURVE",
"435 -3 OFFCURVE",
"448 4 CURVE",
"448 89 LINE",
"424 89 LINE SMOOTH",
"410 89 OFFCURVE",
"396 99 OFFCURVE",
"396 124 CURVE SMOOTH",
"396 383 LINE SMOOTH",
"396 481 OFFCURVE",
"339 538 OFFCURVE",
"217 538 CURVE SMOOTH"
);
},
{
closed = 1;
nodes = (
"275 203 LINE SMOOTH",
"275 141 OFFCURVE",
"253 88 OFFCURVE",
"196 88 CURVE SMOOTH",
"155 88 OFFCURVE",
"137 111 OFFCURVE",
"137 147 CURVE SMOOTH",
"137 215 OFFCURVE",
"205 233 OFFCURVE",
"275 233 CURVE"
);
},
{
closed = 1;
nodes = (
"345 686 LINE",
"89 686 LINE",
"89 599 LINE",
"345 599 LINE"
);
}
);
width = 456;
}
);
unicode = 0101;
},
